<?xml version="1.0" encoding="UTF-8" standalone="no"?>
<svg
   viewBox="0 0 128 128"
   version="1.1"
   id="svg15"
   sodipodi:docname="com.sindresorhus.Caprine.svg"
   width="128"
   height="128"
   inkscape:version="1.1.1 (3bf5ae0d25, 2021-09-20)"
   xmlns:inkscape="http://www.inkscape.org/namespaces/inkscape"
   xmlns:sodipodi="http://sodipodi.sourceforge.net/DTD/sodipodi-0.dtd"
   xmlns:xlink="http://www.w3.org/1999/xlink"
   xmlns="http://www.w3.org/2000/svg"
   xmlns:svg="http://www.w3.org/2000/svg">
  <defs
     id="defs19">
    <radialGradient
       id="a-3"
       cx="101.9"
       cy="809"
       r="1.1"
       gradientTransform="matrix(80,0,0,-80.997778,-8114.6001,65632.2)"
       gradientUnits="userSpaceOnUse"
       spreadMethod="pad">
      <stop
         offset="0"
         style="stop-color:#007ccf"
         id="stop2-6" />
      <stop
         offset=".6"
         style="stop-color:#8229cf"
         id="stop4-7" />
      <stop
         offset=".9"
         style="stop-color:#cf4368"
         id="stop6-5" />
      <stop
         offset="1"
         style="stop-color:#cf5b4e"
         id="stop8-3" />
    </radialGradient>
    <radialGradient
       id="a-6"
       cx="101.9"
       cy="809"
       r="1.1"
       gradientTransform="matrix(80,0,0,-80,-8010.6,64800)"
       gradientUnits="userSpaceOnUse">
      <stop
         offset="0"
         style="stop-color:#09f"
         id="stop2-2" />
      <stop
         offset=".6"
         style="stop-color:#a033ff"
         id="stop4-9" />
      <stop
         offset=".9"
         style="stop-color:#ff5280"
         id="stop6-1" />
      <stop
         offset="1"
         style="stop-color:#ff7061"
         id="stop8-2" />
    </radialGradient>
    <radialGradient
       id="a-9"
       cx="101.9"
       cy="809"
       r="1.1"
       gradientTransform="matrix(80,0,0,-79.997246,-8090.5999,64925.769)"
       gradientUnits="userSpaceOnUse">
      <stop
         offset="0"
         style="stop-color:#0099ff;stop-opacity:1"
         id="stop2-3" />
      <stop
         offset=".6"
         style="stop-color:#a033ff"
         id="stop4-6" />
      <stop
         offset=".9"
         style="stop-color:#ff5280"
         id="stop6-0" />
      <stop
         offset="1"
         style="stop-color:#ff7061"
         id="stop8-6" />
    </radialGradient>
    <radialGradient
       id="a-3-9"
       cx="101.9"
       cy="809"
       r="1.1"
       gradientTransform="matrix(80,0,0,-81.996973,-8090.6005,66545.549)"
       gradientUnits="userSpaceOnUse"
       spreadMethod="pad">
      <stop
         offset="0"
         style="stop-color:#007ccf"
         id="stop2-6-7" />
      <stop
         offset=".6"
         style="stop-color:#8229cf"
         id="stop4-7-3" />
      <stop
         offset=".9"
         style="stop-color:#cf4368"
         id="stop6-5-6" />
      <stop
         offset="1"
         style="stop-color:#cf5b4e"
         id="stop8-3-1" />
    </radialGradient>
    <radialGradient
       id="a-93"
       cx="101.9"
       cy="809"
       r="1.1"
       gradientTransform="matrix(80,0,0,-79.997805,-7987.12,64818.058)"
       gradientUnits="userSpaceOnUse">
      <stop
         offset="0"
         style="stop-color:#3584e4;stop-opacity:1"
         id="stop2-1" />
      <stop
         offset=".6"
         style="stop-color:#c061cb;stop-opacity:1"
         id="stop4-94" />
      <stop
         offset=".9"
         style="stop-color:#f66151;stop-opacity:1"
         id="stop6-7" />
      <stop
         offset="1"
         style="stop-color:#f66151;stop-opacity:1"
         id="stop8-8" />
    </radialGradient>
    <linearGradient
       inkscape:collect="always"
       xlink:href="#linearGradient1073-6"
       id="linearGradient1064-3"
       gradientUnits="userSpaceOnUse"
       gradientTransform="matrix(0.23214285,0,0,0.32894738,-8.5669094,263.82697)"
       x1="88.595886"
       y1="-449.39401"
       x2="536.59589"
       y2="-449.39401" />
    <linearGradient
       inkscape:collect="always"
       id="linearGradient1073-6">
      <stop
         style="stop-color:#9a9996;stop-opacity:1"
         offset="0"
         id="stop1060-7" />
      <stop
         id="stop1062"
         offset="0.03846154"
         style="stop-color:#deddda;stop-opacity:1" />
      <stop
         style="stop-color:#c0bfbc;stop-opacity:1"
         offset="0.07685554"
         id="stop1064" />
      <stop
         id="stop1067"
         offset="0.92307693"
         style="stop-color:#c0bfbc;stop-opacity:1" />
      <stop
         style="stop-color:#deddda;stop-opacity:1"
         offset="0.96153849"
         id="stop1069" />
      <stop
         style="stop-color:#9a9996;stop-opacity:1"
         offset="1"
         id="stop1071-5" />
    </linearGradient>
  </defs>
  <sodipodi:namedview
     id="namedview17"
     pagecolor="#505050"
     bordercolor="#eeeeee"
     borderopacity="1"
     inkscape:pageshadow="0"
     inkscape:pageopacity="0"
     inkscape:pagecheckerboard="0"
     showgrid="false"
     width="128px"
     inkscape:snap-page="true"
     inkscape:snap-bbox="true"
     inkscape:bbox-paths="true"
     inkscape:bbox-nodes="true"
     inkscape:snap-bbox-edge-midpoints="true"
     inkscape:snap-bbox-midpoints="true"
     inkscape:object-paths="true"
     inkscape:snap-intersection-paths="true"
     inkscape:snap-smooth-nodes="true"
     inkscape:snap-midpoints="true"
     inkscape:snap-object-midpoints="true"
     inkscape:snap-center="true"
     inkscape:snap-text-baseline="true"
     inkscape:zoom="4.6386205"
     inkscape:cx="141.31357"
     inkscape:cy="74.375561"
     inkscape:window-width="1920"
     inkscape:window-height="1011"
     inkscape:window-x="0"
     inkscape:window-y="32"
     inkscape:window-maximized="1"
     inkscape:current-layer="svg15" />
  <radialGradient
     id="a"
     cx="101.9"
     cy="809"
     r="1.1"
     gradientTransform="matrix(80,0,0,-79.997805,-8114.6001,64822.221)"
     gradientUnits="userSpaceOnUse">
    <stop
       offset="0"
       style="stop-color:#0099ff;stop-opacity:1"
       id="stop2" />
    <stop
       offset=".6"
       style="stop-color:#a033ff"
       id="stop4" />
    <stop
       offset=".9"
       style="stop-color:#ff5280"
       id="stop6" />
    <stop
       offset="1"
       style="stop-color:#ff7061"
       id="stop8" />
  </radialGradient>
  <rect
     style="display:inline;vector-effect:none;fill:url(#linearGradient1064-3);fill-opacity:1;stroke:none;stroke-width:0.25;stroke-linecap:butt;stroke-linejoin:miter;stroke-miterlimit:4;stroke-dasharray:none;stroke-dashoffset:0;stroke-opacity:1;marker:none;marker-start:none;marker-mid:none;marker-end:none;paint-order:normal;enable-background:new"
     id="rect1048-3"
     width="104"
     height="100"
     x="12"
     y="16.000006"
     rx="7.999999"
     ry="8" />
  <rect
     style="fill:#f6f5f4;stroke-width:3.28569;stroke-linecap:round;stroke-linejoin:round;paint-order:markers stroke fill"
     id="rect43"
     width="104"
     height="102"
     x="12"
     y="12"
     rx="8"
     ry="8" />
  <path
     fill="url(#a)"
     d="m 64.000005,24 c -22.53,0 -40,16.715916 -40,39.283921 0,11.805426 4.78,22.011141 12.56,29.057955 0.65,0.587236 1.05,1.417464 1.06999,2.308442 l 0.22,7.208802 a 3.2,3.239911 0 0 0 4.49001,2.86529 l 7.94,-3.54364 c 0.66999,-0.30375 1.43,-0.35438 2.13999,-0.162 3.65,1.01247 7.53,1.55921 11.58001,1.55921 C 86.530005,102.57798 104,85.862048 104,63.294046 104,40.726041 86.530005,24 64.000005,24 Z"
     id="path11-5"
     style="fill:url(#a-3);stroke-width:0.100622;stroke-miterlimit:4;stroke-dasharray:none" />
  <path
     style="fill:url(#a);stroke-width:0.0999986;stroke-miterlimit:4;stroke-dasharray:none"
     d="m 64.000005,24 c -22.53,0 -40,16.509548 -40,38.798936 0,11.65968 4.78,21.739399 12.56,28.699208 0.65,0.579984 1.05,1.399961 1.07,2.279937 l 0.22,7.119809 a 3.2,3.1999122 0 0 0 4.49,2.82992 l 7.94,-3.4999 c 0.67,-0.299998 1.43,-0.349996 2.14,-0.16 3.65,0.99998 7.53,1.53996 11.58,1.53996 C 86.530005,101.60787 104,85.098319 104,62.808936 104,40.519548 86.530005,24 64.000005,24 Z"
     id="path11" />
  <path
     style="opacity:0.25;mix-blend-mode:darken;fill:#000000;fill-opacity:1;stroke-width:0.101895"
     d="m 39.977343,73.03765 11.75,-19.353086 a 6,6.2295343 0 0 1 8.68,-1.661211 l 9.35,7.278175 a 2.4,2.4918137 0 0 0 2.89,-0.01038 l 12.62,-9.946491 c 1.68,-1.328967 3.88,0.768309 2.76,2.626786 l -11.76,19.342706 a 6,6.2295343 0 0 1 -8.68,1.661209 l -9.35,-7.278172 a 2.4,2.4918137 0 0 0 -2.89,0.01039 l -12.62,9.946489 c -1.68,1.328967 -3.88,-0.757926 -2.75,-2.616404 z"
     id="path4774" />
  <path
     id="path3767-2"
     style="fill:url(#a-3-9);stroke-width:0.10124;stroke-miterlimit:4;stroke-dasharray:none"
     d="m 88,128 c -22.530001,0 -40,16.92302 -40,39.76943 0,11.95106 4.778593,22.28194 12.558593,29.41568 0.65,0.59448 1.050314,1.43624 1.070313,2.3382 l 0.220703,7.29687 a 3.2,3.2798788 0 0 0 4.490234,2.90073 l 7.939453,-3.58737 c 0.669999,-0.30749 1.430626,-0.3589 2.140625,-0.16416 3.65,1.02496 7.530078,1.57948 11.580079,1.57948 22.53,0 40,-16.92302 40,-39.76942 C 128,144.93303 110.53,128 88,128 Z m 22.56445,27.60598 c 1.275,0.11483 2.30289,1.62481 1.46289,3.00082 l -11.75976,19.09397 a 6,6.1497877 0 0 1 -8.681643,1.64155 l -9.349609,-7.18676 a 2.4,2.4599151 0 0 0 -2.888672,0.012 l -12.621094,9.81924 c -1.68,1.31195 -3.88,-0.74975 -2.75,-2.58444 l 11.75,-19.10398 a 6,6.1497877 0 0 1 8.679688,-1.64154 l 9.351562,7.18676 a 2.4,2.4599151 0 0 0 2.888672,-0.012 l 12.621096,-9.81924 c 0.42,-0.32799 0.87187,-0.44466 1.29687,-0.40638 z" />
  <path
     id="path11-2"
     style="fill:url(#a-9);stroke-width:0.0999983;stroke-miterlimit:4;stroke-dasharray:none"
     d="m 88,128 c -22.53001,0 -40,16.51021 -40,38.79944 0,11.6596 4.78055,21.73848 12.56054,28.69824 0.65,0.57998 1.05032,1.39924 1.07031,2.27921 l 0.21875,7.12085 a 3.2,3.1998898 0 0 0 4.49023,2.82997 l 7.93946,-3.49986 c 0.67,-0.29999 1.43062,-0.35015 2.14062,-0.16016 3.65,0.99997 7.53008,1.53901 11.58009,1.53901 22.52999,0 40,-16.50826 40,-38.79749 C 128,144.51998 110.52999,128 88,128 Z m 22.56444,26.93267 c 1.275,0.11202 2.30289,1.58518 1.4629,2.92763 l -11.75977,18.62826 a 6,5.9997934 0 0 1 -8.67969,1.59956 l -9.34961,-7.00953 a 2.4,2.3999174 0 0 0 -2.89062,0.01 l -12.62109,9.57975 c -1.68,1.27996 -3.88001,-0.7295 -2.75,-2.51944 l 11.75,-18.63998 a 6,5.9997934 0 0 1 8.68164,-1.59956 l 9.34961,7.00953 a 2.4,2.3999174 0 0 0 2.88866,-0.01 l 12.62111,-9.57975 c 0.41999,-0.31999 0.87187,-0.43382 1.29686,-0.39647 z" />
  <path
     style="fill:#ffffff;stroke-width:0.1"
     d="m 39.977343,72.14938 11.75,-18.64 a 6,6 0 0 1 8.68,-1.600001 l 9.35,7.010001 a 2.4,2.4 0 0 0 2.89,-0.01 l 12.62,-9.580001 c 1.68,-1.28 3.88,0.74 2.76,2.53 l -11.76,18.630001 a 6,6 0 0 1 -8.68,1.6 l -9.35,-7.01 a 2.4,2.4 0 0 0 -2.89,0.01 l -12.62,9.58 c -1.68,1.28 -3.88,-0.73 -2.75,-2.52 z"
     id="path13" />
  <path
     style="fill:#ffffff;stroke-width:0.1;fill-opacity:1;stroke-miterlimit:4;stroke-dasharray:none"
     d="m 39.977343,72.14938 11.75,-18.64 a 6,6 0 0 1 8.68,-1.600001 l 9.35,7.010001 a 2.4,2.4 0 0 0 2.89,-0.01 l 12.62,-9.580001 c 1.68,-1.28 3.88,0.74 2.76,2.53 l -11.76,18.630001 a 6,6 0 0 1 -8.68,1.6 l -9.35,-7.01 a 2.4,2.4 0 0 0 -2.89,0.01 l -12.62,9.58 c -1.68,1.28 -3.88,-0.73 -2.75,-2.52 z"
     id="path6034" />
</svg>
