<?xml version="1.0" encoding="UTF-8" standalone="no"?>
<!-- Created with Inkscape (http://www.inkscape.org/) -->

<svg
   width="128"
   height="128"
   viewBox="0 0 33.866666 33.866668"
   version="1.1"
   id="svg5"
   sodipodi:docname="com.unity.UnityHub.svg"
   inkscape:version="1.2.1 (9c6d41e410, 2022-07-14)"
   xmlns:inkscape="http://www.inkscape.org/namespaces/inkscape"
   xmlns:sodipodi="http://sodipodi.sourceforge.net/DTD/sodipodi-0.dtd"
   xmlns="http://www.w3.org/2000/svg"
   xmlns:svg="http://www.w3.org/2000/svg">
  <sodipodi:namedview
     id="namedview7"
     pagecolor="#505050"
     bordercolor="#eeeeee"
     borderopacity="1"
     inkscape:pageshadow="0"
     inkscape:pageopacity="0"
     inkscape:pagecheckerboard="true"
     inkscape:document-units="mm"
     showgrid="true"
     units="px"
     width="128px"
     inkscape:snap-page="true"
     inkscape:snap-bbox="true"
     inkscape:bbox-paths="true"
     inkscape:bbox-nodes="true"
     inkscape:snap-bbox-edge-midpoints="true"
     inkscape:snap-bbox-midpoints="true"
     inkscape:object-paths="true"
     inkscape:snap-smooth-nodes="true"
     inkscape:snap-midpoints="true"
     inkscape:snap-object-midpoints="true"
     inkscape:snap-center="true"
     inkscape:snap-text-baseline="true"
     inkscape:zoom="3.3058631"
     inkscape:cx="93.470295"
     inkscape:cy="52.482512"
     inkscape:window-width="1920"
     inkscape:window-height="1011"
     inkscape:window-x="0"
     inkscape:window-y="32"
     inkscape:window-maximized="1"
     inkscape:current-layer="layer1"
     inkscape:showpageshadow="0"
     inkscape:deskcolor="#505050">
    <inkscape:grid
       type="axonomgrid"
       id="grid376"
       originx="16.933333"
       originy="16.933334" />
  </sodipodi:namedview>
  <defs
     id="defs2">
    <inkscape:path-effect
       effect="fillet_chamfer"
       id="path-effect1850"
       is_visible="true"
       lpeversion="1"
       nodesatellites_param="F,0,0,1,0,2.1166667,0,1 @ F,0,0,1,0,2.1166667,0,1 @ F,0,0,1,0,2.1166667,0,1 @ F,0,0,1,0,2.1166667,0,1 @ F,0,0,1,0,2.1166667,0,1 @ F,0,0,1,0,2.1166667,0,1"
       unit="px"
       method="auto"
       mode="F"
       radius="8"
       chamfer_steps="1"
       flexible="false"
       use_knot_distance="true"
       apply_no_radius="true"
       apply_with_radius="true"
       only_selected="false"
       hide_knots="false" />
    <inkscape:path-effect
       effect="fillet_chamfer"
       id="path-effect1770"
       is_visible="true"
       lpeversion="1"
       nodesatellites_param="F,0,0,1,0,0.52916667,0,1 @ F,0,0,1,0,0.52916667,0,1 @ F,0,0,1,0,0.52916667,0,1 @ F,0,0,1,0,0.52916667,0,1 @ F,0,0,1,0,0.52916667,0,1 @ F,0,0,1,0,0.52916667,0,1 @ F,0,0,1,0,0.52916667,0,1 @ F,0,0,1,0,0.52916667,0,1 @ F,0,0,1,0,0.52916667,0,1 @ F,0,0,1,0,0.52916667,0,1 @ F,0,0,1,0,0.52916667,0,1 @ F,0,0,1,0,0.52916667,0,1 @ F,0,0,1,0,0.52916667,0,1 @ F,0,0,1,0,0.52916667,0,1 @ F,0,0,1,0,0.52916667,0,1 @ F,0,0,1,0,0.52916667,0,1 @ F,0,0,1,0,0.52916667,0,1 @ F,0,0,1,0,0.52916667,0,1 @ F,0,0,1,0,0.52916667,0,1 @ F,0,0,1,0,0.52916667,0,1 @ F,0,0,1,0,0.52916667,0,1 @ F,0,0,1,0,0.52916667,0,1 @ F,0,0,1,0,0.52916667,0,1 @ F,0,0,1,0,0.52916667,0,1"
       unit="px"
       method="auto"
       mode="F"
       radius="2"
       chamfer_steps="1"
       flexible="false"
       use_knot_distance="true"
       apply_no_radius="true"
       apply_with_radius="true"
       only_selected="false"
       hide_knots="false" />
    <inkscape:path-effect
       effect="fillet_chamfer"
       id="path-effect1461"
       is_visible="true"
       lpeversion="1"
       nodesatellites_param="F,0,0,1,0,0.52916667,0,1 @ F,0,0,1,0,0.52916667,0,1 @ F,0,0,1,0,0.52916667,0,1 @ F,0,0,1,0,0.52916667,0,1 @ F,0,0,1,0,0.52916667,0,1 @ F,0,0,1,0,0.52916667,0,1 @ F,0,0,1,0,0.52916667,0,1 @ F,0,0,1,0,0.52916667,0,1 @ F,0,0,1,0,0.52916667,0,1 @ F,0,0,1,0,0.52916667,0,1"
       unit="px"
       method="auto"
       mode="F"
       radius="2"
       chamfer_steps="1"
       flexible="false"
       use_knot_distance="true"
       apply_no_radius="true"
       apply_with_radius="true"
       only_selected="false"
       hide_knots="false" />
    <inkscape:path-effect
       effect="fillet_chamfer"
       id="path-effect1459"
       is_visible="true"
       lpeversion="1"
       nodesatellites_param="F,0,0,1,0,0.52916667,0,1 @ F,0,0,1,0,0.52916667,0,1 @ F,0,0,1,0,0.52916667,0,1 @ F,0,0,1,0,0.52916667,0,1 @ F,0,0,1,0,0.52916667,0,1 @ F,0,0,1,0,0.52916667,0,1 @ F,0,0,1,0,0.52916667,0,1 @ F,0,0,1,0,0.52916667,0,1 @ F,0,0,1,0,0.52916667,0,1 @ F,0,0,1,0,0.52916667,0,1"
       unit="px"
       method="auto"
       mode="F"
       radius="2"
       chamfer_steps="1"
       flexible="false"
       use_knot_distance="true"
       apply_no_radius="true"
       apply_with_radius="true"
       only_selected="false"
       hide_knots="false" />
    <inkscape:path-effect
       effect="fillet_chamfer"
       id="path-effect1457"
       is_visible="true"
       lpeversion="1"
       nodesatellites_param="F,0,0,1,0,0.52916667,0,1 @ F,0,0,1,0,0.52916667,0,1 @ F,0,0,1,0,0.52916667,0,1 @ F,0,0,1,0,0.52916667,0,1 @ F,0,0,1,0,0.52916667,0,1 @ F,0,0,1,0,0.52916667,0,1 @ F,0,0,1,0,0.52916667,0,1 @ F,0,0,1,0,0.52916667,0,1 @ F,0,0,1,0,0.52916667,0,1 @ F,0,0,1,0,0.52916667,0,1"
       unit="px"
       method="auto"
       mode="F"
       radius="2"
       chamfer_steps="1"
       flexible="false"
       use_knot_distance="true"
       apply_no_radius="true"
       apply_with_radius="true"
       only_selected="false"
       hide_knots="false" />
  </defs>
  <g
     inkscape:label="Warstwa 1"
     inkscape:groupmode="layer"
     id="layer1">
    <path
       style="fill:#404040;fill-opacity:1;stroke-width:0.529167;stroke-linecap:round;stroke-linejoin:round;stroke-dashoffset:160;paint-order:markers stroke fill"
       d="M 23.807409,10.318751 19.224692,7.6729173 a 0.91654358,0.91654358 60.000001 0 1 -0.458272,-0.79375 l 0,-5.2916666 A 0.3055145,0.3055145 150 0 1 19.224692,1.3229174 L 31.139756,8.202084 a 0.91654377,0.91654377 59.999998 0 1 0.458272,0.7937501 l 2e-6,13.7583329 a 0.30551446,0.30551446 150 0 1 -0.458272,0.264584 l -4.582717,-2.645834 a 0.91654358,0.91654358 60.000001 0 1 -0.458272,-0.79375 v -5.291666 a 0.30551454,0.30551454 30.000002 0 0 -0.458272,-0.264584 l -6.415805,3.704167 a 0.91654349,0.91654349 120 0 0 -0.458272,0.79375 v 7.408333 a 0.30551451,0.30551451 29.999999 0 0 0.458272,0.264584 l 4.582717,-2.645834 a 0.91654359,0.91654359 180 0 1 0.916544,0 l 4.582718,2.645834 a 0.30551449,0.30551449 89.999999 0 1 0,0.529166 l -11.915066,6.879167 a 0.91654361,0.91654361 2.9002381e-7 0 1 -0.916544,0 L 4.5599951,26.722917 a 0.30551451,0.30551451 89.999999 0 1 0,-0.529166 l 4.5827177,-2.645834 a 0.91654356,0.91654356 180 0 1 0.9165432,0 l 4.582718,2.645834 a 0.30551452,0.30551452 150 0 0 0.458272,-0.264584 l 0,-7.408333 a 0.91654352,0.91654352 59.999999 0 0 -0.458272,-0.79375 L 8.2261693,14.022917 a 0.30551453,0.30551453 150 0 0 -0.4582718,0.264584 v 5.291666 a 0.91654356,0.91654356 120 0 1 -0.4582718,0.79375 L 2.726908,23.018751 A 0.30551452,0.30551452 30 0 1 2.2686362,22.754167 V 8.995834 A 0.91654355,0.91654355 120 0 1 2.726908,8.202084 L 14.641974,1.3229173 a 0.30551452,0.30551452 30 0 1 0.458272,0.2645834 v 5.2916666 a 0.91654355,0.91654355 120 0 1 -0.458272,0.79375 l -4.582718,2.6458337 a 0.30551451,0.30551451 89.999999 0 0 0,0.529166 l 6.415805,3.704167 a 0.9165436,0.9165436 180 0 0 0.916544,0 l 6.415804,-3.704167 a 0.30551452,0.30551452 90.000001 0 0 0,-0.529166 z"
       id="path1463"
       sodipodi:nodetypes="cccccccccccccccccc"
       inkscape:path-effect="#path-effect1770"
       inkscape:original-d="m 24.265681,10.583334 -5.499261,-3.175 v -6.35 l 12.831608,7.4083334 2e-6,14.8166666 -5.499261,-3.175 v -6.35 l -7.332349,4.233333 v 8.466667 l 5.499261,-3.175 5.499262,3.175 -12.83161,7.408333 -12.8316097,-7.408333 5.4992613,-3.175 5.4992614,3.175 V 17.991667 L 7.7678975,13.758334 v 6.35 l -5.4992613,3.175 V 8.4666673 L 15.100246,1.058334 v 6.35 l -5.4992614,3.175 7.3323484,4.233333 z" />
    <path
       style="fill:#404040;stroke-width:0.529167;stroke-linecap:round;stroke-linejoin:round;stroke-dashoffset:160;paint-order:markers stroke fill;fill-opacity:1"
       d="M 14.641974,17.727084 8.2261693,14.022917 a 0.30551453,0.30551453 150 0 0 -0.4582718,0.264584 v 5.291666 a 0.91654356,0.91654356 120 0 1 -0.4582718,0.79375 L 2.726908,23.018751 A 0.30551452,0.30551452 30 0 1 2.2686362,22.754167 l -10e-8,-13.7583329 A 0.30551452,0.30551452 150 0 1 2.7269079,8.7312507 L 16.475061,16.668751 a 0.91654355,0.91654355 60 0 1 0.458272,0.79375 V 33.3375 a 0.30551453,0.30551453 150 0 1 -0.458272,0.264584 L 4.5599951,26.722917 a 0.30551451,0.30551451 89.999999 0 1 0,-0.529166 l 4.5827177,-2.645834 a 0.91654356,0.91654356 180 0 1 0.9165432,0 l 4.582718,2.645834 a 0.30551452,0.30551452 150 0 0 0.458272,-0.264584 l 0,-7.408333 a 0.91654352,0.91654352 59.999999 0 0 -0.458272,-0.79375 z"
       id="path441"
       inkscape:path-effect="#path-effect1461"
       inkscape:original-d="M 15.100246,17.991667 7.7678975,13.758334 v 6.35 l -5.4992613,3.175 -10e-8,-14.8166666 14.6646969,8.4666666 v 16.933333 l -12.8316097,-7.408333 5.4992613,-3.175 5.4992614,3.175 z" />
    <path
       style="fill:#000000;fill-opacity:1;stroke-width:0.529167;stroke-linecap:round;stroke-linejoin:round;stroke-dashoffset:160;paint-order:markers stroke fill"
       d="m 19.224692,17.727084 6.415805,-3.704167 a 0.30551454,0.30551454 30.000002 0 1 0.458272,0.264584 l 0,5.291666 a 0.91654358,0.91654358 60.000001 0 0 0.458272,0.79375 l 4.582717,2.645834 a 0.30551451,0.30551451 150 0 0 0.458272,-0.264584 l 0,-13.7583326 A 0.30551453,0.30551453 30.000001 0 0 31.139758,8.731251 l -13.748153,7.9375 a 0.91654353,0.91654353 120 0 0 -0.458272,0.79375 V 33.3375 a 0.30551453,0.30551453 30.000001 0 0 0.458272,0.264584 l 11.915066,-6.879167 a 0.30551452,0.30551452 90.000002 0 0 0,-0.529166 l -4.582717,-2.645834 a 0.91654359,0.91654359 2.2557395e-6 0 0 -0.916544,0 l -4.582718,2.645834 A 0.30551454,0.30551454 30.000002 0 1 18.76642,25.929167 l 0,-7.408333 a 0.91654349,0.91654349 120 0 1 0.458272,-0.79375 z"
       id="path1186"
       inkscape:path-effect="#path-effect1459"
       inkscape:original-d="m 18.76642,17.991667 7.332349,-4.233333 v 6.35 l 5.499261,3.175 V 8.4666677 L 16.933333,16.933334 v 16.933333 l 12.83161,-7.408333 -5.499261,-3.175 -5.499262,3.175 z" />
    <path
       style="fill:#808080;fill-opacity:1;stroke-width:0.529167;stroke-linecap:round;stroke-linejoin:round;stroke-dashoffset:160;paint-order:markers stroke fill"
       d="M 23.807409,10.318751 19.224692,7.6729173 a 0.91654358,0.91654358 60.000001 0 1 -0.458272,-0.79375 l 0,-5.2916666 A 0.30551452,0.30551452 150 0 1 19.224692,1.3229173 L 31.139758,8.202084 a 0.30551451,0.30551451 90 0 1 0,0.5291666 L 17.391605,16.668751 a 0.91654357,0.91654357 180 0 1 -0.916544,0 L 2.7269079,8.7312507 a 0.30551452,0.30551452 90 0 1 0,-0.5291666 L 14.641974,1.3229173 a 0.30551452,0.30551452 30 0 1 0.458272,0.2645834 v 5.2916666 a 0.91654355,0.91654355 120 0 1 -0.458272,0.79375 l -4.582718,2.6458337 a 0.30551451,0.30551451 89.999999 0 0 0,0.529166 l 6.415805,3.704167 a 0.9165436,0.9165436 180 0 0 0.916544,0 l 6.415804,-3.704167 a 0.30551452,0.30551452 90.000001 0 0 0,-0.529166 z"
       id="path1242"
       inkscape:path-effect="#path-effect1457"
       inkscape:original-d="m 24.265681,10.583334 -5.499261,-3.175 v -6.35 L 31.59803,8.4666673 16.933333,16.933334 2.2686361,8.4666674 15.100246,1.058334 v 6.35 l -5.4992614,3.175 7.3323484,4.233333 z" />
  </g>
</svg>
