<?xml version="1.0" encoding="UTF-8" standalone="no"?>
<svg
   inkscape:version="1.2.1 (9c6d41e410, 2022-07-14)"
   height="128"
   width="128"
   sodipodi:docname="com.google.AndroidStudio.svg"
   id="svg101"
   version="1.1"
   viewBox="0 0 128 128"
   xmlns:inkscape="http://www.inkscape.org/namespaces/inkscape"
   xmlns:sodipodi="http://sodipodi.sourceforge.net/DTD/sodipodi-0.dtd"
   xmlns:xlink="http://www.w3.org/1999/xlink"
   xmlns="http://www.w3.org/2000/svg"
   xmlns:svg="http://www.w3.org/2000/svg">
  <sodipodi:namedview
     id="namedview103"
     pagecolor="#606060"
     bordercolor="#eeeeee"
     borderopacity="1"
     inkscape:pageshadow="0"
     inkscape:pageopacity="0"
     inkscape:pagecheckerboard="true"
     showgrid="true"
     fit-margin-bottom="0"
     inkscape:snap-page="true"
     inkscape:snap-bbox="true"
     inkscape:bbox-paths="true"
     inkscape:bbox-nodes="true"
     inkscape:snap-bbox-edge-midpoints="true"
     inkscape:snap-bbox-midpoints="true"
     inkscape:zoom="4"
     inkscape:cx="67.25"
     inkscape:cy="50.375"
     inkscape:window-width="1920"
     inkscape:window-height="1011"
     inkscape:window-x="0"
     inkscape:window-y="32"
     inkscape:window-maximized="1"
     inkscape:current-layer="svg101"
     inkscape:showpageshadow="0"
     inkscape:deskcolor="#606060">
    <inkscape:grid
       type="xygrid"
       id="grid1124"
       enabled="true" />
  </sodipodi:namedview>
  <defs
     id="defs30">
    <path
       d="M 101.33333,50.666667 C 101.33333,22.686667 78.646667,0 50.666667,0 22.686667,0 0,22.686667 0,50.666667 c 0,15.386666 6.8666667,29.16 17.693333,38.446666 L 11.613333,99.64 V 108 c 0,0.73333 0.6,1.33333 1.333334,1.33333 0.246666,0 0.473333,-0.0667 0.673333,-0.18 L 20.853333,104.98 26.5,95.206667 c 7.18,3.906666 15.413333,6.126663 24.166667,6.126663 8.753333,0 16.986666,-2.219997 24.173333,-6.126663 L 80.486667,104.98 87.72,109.15333 c 0.2,0.11334 0.426667,0.18 0.673333,0.18 0.733334,0 1.333334,-0.6 1.333334,-1.33333 v -8.36 l -6.08,-10.526667 c 10.82,-9.286666 17.686663,-23.06 17.686663,-38.446666 z"
       id="path-1" />
    <path
       d="M 101.33333,50.666667 C 101.33333,22.686667 78.646667,0 50.666667,0 22.686667,0 0,22.686667 0,50.666667 c 0,15.386666 6.8666667,29.16 17.693333,38.446666 L 11.613333,99.64 V 108 c 0,0.73333 0.6,1.33333 1.333334,1.33333 0.246666,0 0.473333,-0.0667 0.673333,-0.18 L 20.853333,104.98 26.5,95.206667 c 7.18,3.906666 15.413333,6.126663 24.166667,6.126663 8.753333,0 16.986666,-2.219997 24.173333,-6.126663 L 80.486667,104.98 87.72,109.15333 c 0.2,0.11334 0.426667,0.18 0.673333,0.18 0.733334,0 1.333334,-0.6 1.333334,-1.33333 v -8.36 l -6.08,-10.526667 c 10.82,-9.286666 17.686663,-23.06 17.686663,-38.446666 z"
       id="path-3" />
    <path
       d="M 101.33333,50.666667 C 101.33333,22.686667 78.646667,0 50.666667,0 22.686667,0 0,22.686667 0,50.666667 c 0,15.386666 6.8666667,29.16 17.693333,38.446666 L 11.613333,99.64 V 108 c 0,0.73333 0.6,1.33333 1.333334,1.33333 0.246666,0 0.473333,-0.0667 0.673333,-0.18 L 20.853333,104.98 26.5,95.206667 c 7.18,3.906666 15.413333,6.126663 24.166667,6.126663 8.753333,0 16.986666,-2.219997 24.173333,-6.126663 L 80.486667,104.98 87.72,109.15333 c 0.2,0.11334 0.426667,0.18 0.673333,0.18 0.733334,0 1.333334,-0.6 1.333334,-1.33333 v -8.36 l -6.08,-10.526667 c 10.82,-9.286666 17.686663,-23.06 17.686663,-38.446666 z"
       id="path-5" />
    <path
       d="M 101.33333,50.666667 C 101.33333,22.686667 78.646667,0 50.666667,0 22.686667,0 0,22.686667 0,50.666667 c 0,15.386666 6.8666667,29.16 17.693333,38.446666 L 11.613333,99.64 V 108 c 0,0.73333 0.6,1.33333 1.333334,1.33333 0.246666,0 0.473333,-0.0667 0.673333,-0.18 L 20.853333,104.98 26.5,95.206667 c 7.18,3.906666 15.413333,6.126663 24.166667,6.126663 8.753333,0 16.986666,-2.219997 24.173333,-6.126663 L 80.486667,104.98 87.72,109.15333 c 0.2,0.11334 0.426667,0.18 0.673333,0.18 0.733334,0 1.333334,-0.6 1.333334,-1.33333 v -8.36 l -6.08,-10.526667 c 10.82,-9.286666 17.686663,-23.06 17.686663,-38.446666 z"
       id="path-7" />
    <path
       d="M 101.33333,50.666667 C 101.33333,22.686667 78.646667,0 50.666667,0 22.686667,0 0,22.686667 0,50.666667 c 0,15.386666 6.8666667,29.16 17.693333,38.446666 L 11.613333,99.64 V 108 c 0,0.73333 0.6,1.33333 1.333334,1.33333 0.246666,0 0.473333,-0.0667 0.673333,-0.18 L 20.853333,104.98 26.5,95.206667 c 7.18,3.906666 15.413333,6.126663 24.166667,6.126663 8.753333,0 16.986666,-2.219997 24.173333,-6.126663 L 80.486667,104.98 87.72,109.15333 c 0.2,0.11334 0.426667,0.18 0.673333,0.18 0.733334,0 1.333334,-0.6 1.333334,-1.33333 v -8.36 l -6.08,-10.526667 c 10.82,-9.286666 17.686663,-23.06 17.686663,-38.446666 z"
       id="path-9" />
    <path
       d="M 101.33333,50.666667 C 101.33333,22.686667 78.646667,0 50.666667,0 22.686667,0 0,22.686667 0,50.666667 c 0,15.386666 6.8666667,29.16 17.693333,38.446666 L 11.613333,99.64 V 108 c 0,0.73333 0.6,1.33333 1.333334,1.33333 0.246666,0 0.473333,-0.0667 0.673333,-0.18 L 20.853333,104.98 26.5,95.206667 c 7.18,3.906666 15.413333,6.126663 24.166667,6.126663 8.753333,0 16.986666,-2.219997 24.173333,-6.126663 L 80.486667,104.98 87.72,109.15333 c 0.2,0.11334 0.426667,0.18 0.673333,0.18 0.733334,0 1.333334,-0.6 1.333334,-1.33333 v -8.36 l -6.08,-10.526667 c 10.82,-9.286666 17.686663,-23.06 17.686663,-38.446666 z"
       id="path-11" />
    <path
       d="M 101.33333,50.666667 C 101.33333,22.686667 78.646667,0 50.666667,0 22.686667,0 0,22.686667 0,50.666667 c 0,15.386666 6.8666667,29.16 17.693333,38.446666 L 11.613333,99.64 V 108 c 0,0.73333 0.6,1.33333 1.333334,1.33333 0.246666,0 0.473333,-0.0667 0.673333,-0.18 L 20.853333,104.98 26.5,95.206667 c 7.18,3.906666 15.413333,6.126663 24.166667,6.126663 8.753333,0 16.986666,-2.219997 24.173333,-6.126663 L 80.486667,104.98 87.72,109.15333 c 0.2,0.11334 0.426667,0.18 0.673333,0.18 0.733334,0 1.333334,-0.6 1.333334,-1.33333 v -8.36 l -6.08,-10.526667 c 10.82,-9.286666 17.686663,-23.06 17.686663,-38.446666 z"
       id="path-13" />
    <linearGradient
       x1="39.404789"
       y1="65.114182"
       x2="87.249611"
       y2="92.593346"
       id="linearGradient-15"
       gradientTransform="scale(0.98734641,1.0128158)"
       gradientUnits="userSpaceOnUse">
      <stop
         stop-color="#263238"
         stop-opacity="0.2"
         offset="0%"
         id="stop13" />
      <stop
         stop-color="#263238"
         stop-opacity="0.02"
         offset="100%"
         id="stop15" />
    </linearGradient>
    <path
       d="M 101.33333,50.666667 C 101.33333,22.686667 78.646667,0 50.666667,0 22.686667,0 0,22.686667 0,50.666667 c 0,15.386666 6.8666667,29.16 17.693333,38.446666 L 11.613333,99.64 V 108 c 0,0.73333 0.6,1.33333 1.333334,1.33333 0.246666,0 0.473333,-0.0667 0.673333,-0.18 L 20.853333,104.98 26.5,95.206667 c 7.18,3.906666 15.413333,6.126663 24.166667,6.126663 8.753333,0 16.986666,-2.219997 24.173333,-6.126663 L 80.486667,104.98 87.72,109.15333 c 0.2,0.11334 0.426667,0.18 0.673333,0.18 0.733334,0 1.333334,-0.6 1.333334,-1.33333 v -8.36 l -6.08,-10.526667 c 10.82,-9.286666 17.686663,-23.06 17.686663,-38.446666 z"
       id="path-16" />
    <path
       d="M 101.33333,50.666667 C 101.33333,22.686667 78.646667,0 50.666667,0 22.686667,0 0,22.686667 0,50.666667 c 0,15.386666 6.8666667,29.16 17.693333,38.446666 L 11.613333,99.64 V 108 c 0,0.73333 0.6,1.33333 1.333334,1.33333 0.246666,0 0.473333,-0.0667 0.673333,-0.18 L 20.853333,104.98 26.5,95.206667 c 7.18,3.906666 15.413333,6.126663 24.166667,6.126663 8.753333,0 16.986666,-2.219997 24.173333,-6.126663 L 80.486667,104.98 87.72,109.15333 c 0.2,0.11334 0.426667,0.18 0.673333,0.18 0.733334,0 1.333334,-0.6 1.333334,-1.33333 v -8.36 l -6.08,-10.526667 c 10.82,-9.286666 17.686663,-23.06 17.686663,-38.446666 z"
       id="path-18" />
    <path
       d="M 101.33333,50.666667 C 101.33333,22.686667 78.646667,0 50.666667,0 22.686667,0 0,22.686667 0,50.666667 c 0,15.386666 6.8666667,29.16 17.693333,38.446666 L 11.613333,99.64 V 108 c 0,0.73333 0.6,1.33333 1.333334,1.33333 0.246666,0 0.473333,-0.0667 0.673333,-0.18 L 20.853333,104.98 26.5,95.206667 c 7.18,3.906666 15.413333,6.126663 24.166667,6.126663 8.753333,0 16.986666,-2.219997 24.173333,-6.126663 L 80.486667,104.98 87.72,109.15333 c 0.2,0.11334 0.426667,0.18 0.673333,0.18 0.733334,0 1.333334,-0.6 1.333334,-1.33333 v -8.36 l -6.08,-10.526667 c 10.82,-9.286666 17.686663,-23.06 17.686663,-38.446666 z"
       id="path-20" />
    <path
       d="M 101.33333,50.666667 C 101.33333,22.686667 78.646667,0 50.666667,0 22.686667,0 0,22.686667 0,50.666667 c 0,15.386666 6.8666667,29.16 17.693333,38.446666 L 11.613333,99.64 V 108 c 0,0.73333 0.6,1.33333 1.333334,1.33333 0.246666,0 0.473333,-0.0667 0.673333,-0.18 L 20.853333,104.98 26.5,95.206667 c 7.18,3.906666 15.413333,6.126663 24.166667,6.126663 8.753333,0 16.986666,-2.219997 24.173333,-6.126663 L 80.486667,104.98 87.72,109.15333 c 0.2,0.11334 0.426667,0.18 0.673333,0.18 0.733334,0 1.333334,-0.6 1.333334,-1.33333 v -8.36 l -6.08,-10.526667 c 10.82,-9.286666 17.686663,-23.06 17.686663,-38.446666 z"
       id="path-22" />
    <path
       d="M 101.33333,50.666667 C 101.33333,22.686667 78.646667,0 50.666667,0 22.686667,0 0,22.686667 0,50.666667 c 0,15.386666 6.8666667,29.16 17.693333,38.446666 L 11.613333,99.64 V 108 c 0,0.73333 0.6,1.33333 1.333334,1.33333 0.246666,0 0.473333,-0.0667 0.673333,-0.18 L 20.853333,104.98 26.5,95.206667 c 7.18,3.906666 15.413333,6.126663 24.166667,6.126663 8.753333,0 16.986666,-2.219997 24.173333,-6.126663 L 80.486667,104.98 87.72,109.15333 c 0.2,0.11334 0.426667,0.18 0.673333,0.18 0.733334,0 1.333334,-0.6 1.333334,-1.33333 v -8.36 l -6.08,-10.526667 c 10.82,-9.286666 17.686663,-23.06 17.686663,-38.446666 z"
       id="path-24" />
    <path
       d="M 101.33333,50.666667 C 101.33333,22.686667 78.646667,0 50.666667,0 22.686667,0 0,22.686667 0,50.666667 c 0,15.386666 6.8666667,29.16 17.693333,38.446666 L 11.613333,99.64 V 108 c 0,0.73333 0.6,1.33333 1.333334,1.33333 0.246666,0 0.473333,-0.0667 0.673333,-0.18 L 20.853333,104.98 26.5,95.206667 c 7.18,3.906666 15.413333,6.126663 24.166667,6.126663 8.753333,0 16.986666,-2.219997 24.173333,-6.126663 L 80.486667,104.98 87.72,109.15333 c 0.2,0.11334 0.426667,0.18 0.673333,0.18 0.733334,0 1.333334,-0.6 1.333334,-1.33333 v -8.36 l -6.08,-10.526667 c 10.82,-9.286666 17.686663,-23.06 17.686663,-38.446666 z"
       id="path-26" />
    <path
       d="M 101.33333,50.666667 C 101.33333,22.686667 78.646667,0 50.666667,0 22.686667,0 0,22.686667 0,50.666667 c 0,15.386666 6.8666667,29.16 17.693333,38.446666 L 11.613333,99.64 V 108 c 0,0.73333 0.6,1.33333 1.333334,1.33333 0.246666,0 0.473333,-0.0667 0.673333,-0.18 L 20.853333,104.98 26.5,95.206667 c 7.18,3.906666 15.413333,6.126663 24.166667,6.126663 8.753333,0 16.986666,-2.219997 24.173333,-6.126663 L 80.486667,104.98 87.72,109.15333 c 0.2,0.11334 0.426667,0.18 0.673333,0.18 0.733334,0 1.333334,-0.6 1.333334,-1.33333 v -8.36 l -6.08,-10.526667 c 10.82,-9.286666 17.686663,-23.06 17.686663,-38.446666 z"
       id="path-28" />
    <radialGradient
       cx="15.828767"
       cy="14.563382"
       fx="15.828767"
       fy="14.563382"
       r="124.73273"
       gradientTransform="matrix(0.96271972,0,0,1.0387239,152.88977,3.8205887)"
       id="radialGradient-30"
       gradientUnits="userSpaceOnUse">
      <stop
         stop-color="#FFFFFF"
         stop-opacity="0.1"
         offset="0%"
         id="stop25" />
      <stop
         stop-color="#FFFFFF"
         stop-opacity="0"
         offset="100%"
         id="stop27" />
    </radialGradient>
    <radialGradient
       xlink:href="#radialGradient-30"
       id="radialGradient692"
       gradientUnits="userSpaceOnUse"
       gradientTransform="matrix(1.1400629,0,0,1.2300679,-120.39474,-129.86844)"
       cx="15.828767"
       cy="14.563382"
       fx="15.828767"
       fy="14.563382"
       r="124.73273" />
    <clipPath
       clipPathUnits="userSpaceOnUse"
       id="clipPath6011">
      <g
         id="g6019"
         transform="matrix(1.1842106,0,0,1.1842106,4.0000001,4.0000022)"
         style="fill:#ffffff;fill-rule:evenodd;stroke:none;stroke-width:1">
        <mask
           id="mask6015"
           fill="#ffffff">
          <use
             xlink:href="#path-1"
             id="use6013"
             x="0"
             y="0"
             width="100%"
             height="100%" />
        </mask>
        <circle
           id="circle6017"
           fill="#45ef8a"
           fill-rule="nonzero"
           mask="url(#mask-2)"
           cx="50.666668"
           cy="50.666668"
           r="50.666668"
           style="fill:#ffffff" />
      </g>
    </clipPath>
    <mask
       id="mask-23"
       fill="#ffffff">
      <use
         xlink:href="#path-22"
         id="use126"
         x="0"
         y="0"
         width="100%"
         height="100%" />
    </mask>
  </defs>
  <g
     id="Clipped"
     transform="matrix(1.1842106,0,0,1.1842106,4.0000001,4.0000022)"
     style="fill:#57e389;fill-rule:evenodd;stroke:none;stroke-width:1">
    <mask
       id="mask-2"
       fill="#ffffff">
      <use
         xlink:href="#path-1"
         id="use32"
         x="0"
         y="0"
         width="100%"
         height="100%" />
    </mask>
    <circle
       id="Oval"
       fill="#45ef8a"
       fill-rule="nonzero"
       mask="url(#mask-2)"
       cx="50.666668"
       cy="50.666668"
       r="50.666668"
       style="fill:#57e389" />
  </g>
  <g
     id="g53"
     transform="matrix(1.1842106,0,0,1.1842106,4.0000001,4.0000022)"
     style="fill:#33d17a;fill-rule:evenodd;stroke:none;stroke-width:1">
    <mask
       id="mask-6"
       fill="#ffffff">
      <use
         xlink:href="#path-5"
         id="use46"
         x="0"
         y="0"
         width="100%"
         height="100%" />
    </mask>
    <g
       id="g49"
       style="fill:#33d17a" />
    <path
       d="M 50.666667,0 C 22.686667,0 0,22.686667 0,50.666667 H 101.33333 C 101.33333,22.686667 78.646667,0 50.666667,0 Z"
       id="path51"
       fill="#3ddc84"
       fill-rule="nonzero"
       mask="url(#mask-6)"
       style="fill:#33d17a" />
  </g>
  <g
     id="g62"
     transform="matrix(1.072758,0,0,1.072758,9.6469295,10.183315)"
     style="fill:none;fill-rule:evenodd;stroke:none;stroke-width:1">
    <mask
       id="mask-8"
       fill="#ffffff">
      <use
         xlink:href="#path-7"
         id="use55"
         x="0"
         y="0"
         width="100%"
         height="100%" />
    </mask>
    <g
       id="g58" />
    <circle
       id="circle60"
       fill="#3ddc84"
       fill-rule="nonzero"
       mask="url(#mask-8)"
       cx="50.666668"
       cy="42.666668"
       r="6.6666665" />
  </g>
  <g
     id="g71"
     transform="matrix(1.1842106,0,0,1.1842106,4.0000001,4.0000022)"
     style="fill:none;fill-rule:evenodd;stroke:none;stroke-width:1">
    <mask
       id="mask-10"
       fill="#ffffff">
      <use
         xlink:href="#path-9"
         id="use64"
         x="0"
         y="0"
         width="100%"
         height="100%" />
    </mask>
    <g
       id="g67" />
    <polygon
       id="polygon69"
       fill-opacity="0.05"
       fill="#263238"
       fill-rule="nonzero"
       mask="url(#mask-10)"
       points="101.33333,50.666667 0,50.666667 0,50 101.33333,50 " />
  </g>
  <g
     id="g80"
     transform="matrix(1.1842106,0,0,1.1842106,4.0000001,4.0000022)"
     style="fill:none;fill-rule:evenodd;stroke:none;stroke-width:1">
    <mask
       id="mask-12"
       fill="#ffffff">
      <use
         xlink:href="#path-11"
         id="use73"
         x="0"
         y="0"
         width="100%"
         height="100%" />
    </mask>
    <g
       id="g76" />
    <polygon
       id="polygon78"
       fill-opacity="0.05"
       fill="#ffffff"
       fill-rule="nonzero"
       mask="url(#mask-12)"
       points="101.33333,51.333333 0,51.333333 0,50.666667 101.33333,50.666667 " />
  </g>
  <path
     style="display:inline;opacity:0.2;fill:#000000;fill-opacity:1;stroke:none;stroke-width:8;stroke-linejoin:round;stroke-miterlimit:4;stroke-dasharray:1, 0.5;stroke-dashoffset:0;stroke-opacity:1;enable-background:new"
     d="M 123.9375,62.246106 A 60.000008,60.000008 0 0 1 64.000003,121.00001 60.000008,60.000008 0 0 1 4.0625051,62.753918 60.000008,60.000008 0 0 0 4.0000051,64.000012 60.000008,60.000008 0 0 0 64.000003,124.00001 60.000008,60.000008 0 0 0 124,64.000012 60.000008,60.000008 0 0 0 123.9375,62.246106 Z"
     id="circle1110"
     inkscape:connector-curvature="0" />
  <g
     id="g124"
     transform="matrix(1.072758,0,0,1.072758,9.6469295,9.6469347)"
     style="fill:none;fill-rule:evenodd;stroke:none;stroke-width:1">
    <mask
       id="mask-21"
       fill="#ffffff">
      <use
         xlink:href="#path-20"
         id="use107"
         x="0"
         y="0"
         width="100%"
         height="100%" />
    </mask>
    <g
       id="g110" />
    <g
       id="Group"
       mask="url(#mask-21)">
      <g
         transform="translate(43.333333,45.333333)"
         id="g121">
        <path
           d="M 18.113333,5.3333333 H 5.7933333 L 37.153333,59.646667 44.386667,63.82 c 0.2,0.113333 0.426666,0.18 0.673333,0.18 0.733333,0 1.333333,-0.6 1.333333,-1.333333 v -8.36 z"
           id="path113"
           fill="#d7effe"
           fill-rule="nonzero"
           style="fill:#c0bfbc" />
        <path
           d="M 73.697771,5.3333333 H 61.377772 L 92.737771,59.646667 99.971105,63.82 c 0.200005,0.113333 0.426665,0.18 0.673335,0.18 0.73333,0 1.33333,-0.6 1.33333,-1.333333 v -8.36 z"
           id="path115"
           fill="#bdbdbd"
           fill-rule="nonzero"
           opacity="0.3"
           style="fill:#c0bfbc" />
      </g>
    </g>
  </g>
  <g
     id="g129"
     transform="matrix(1.072758,0,0,1.072758,9.6469295,10.183315)"
     style="fill:none;fill-rule:evenodd;stroke:none;stroke-width:1" />
  <g
     id="g141"
     mask="url(#mask-23)"
     transform="matrix(1.072758,0,0,1.072758,9.6469295,9.6469347)"
     style="fill:none;fill-rule:evenodd;stroke:none;stroke-width:1">
    <g
       transform="translate(6,45.333333)"
       id="g139">
      <path
         d="M 71.333333,5.3333333 C 71.333333,20.06 59.393333,32 44.666667,32 c -4.38,0 -8.513334,-1.06 -12.16,-2.933333 L 44.666667,8 l 1.54,-2.6666667 h -12.32 L 5.6066667,54.306667 v 8.36 C 5.6066667,63.4 6.2066667,64 6.94,64 7.1866667,64 7.4133333,63.93333 7.6133333,63.82 l 7.2333337,-4.173333 12.32,-21.333334 c 5.22,2.773334 11.173333,4.353334 17.5,4.353334 C 65.286667,42.666667 82,25.953333 82,5.3333333 Z"
         id="path133"
         fill="#d7effe"
         fill-rule="nonzero"
         style="fill:#deddda" />
    </g>
  </g>
  <g
     id="g158"
     transform="matrix(1.072758,0,0,1.072758,9.6469295,10.183315)"
     style="fill:#241f31;fill-rule:evenodd;stroke:none;stroke-width:1">
    <mask
       id="mask-25"
       fill="#ffffff">
      <use
         xlink:href="#path-24"
         id="use145"
         x="0"
         y="0"
         width="100%"
         height="100%" />
    </mask>
    <g
       id="g148"
       style="fill:#241f31" />
    <g
       id="g156"
       mask="url(#mask-25)"
       style="fill:#241f31">
      <g
         transform="translate(29.333333,13.333333)"
         id="g154"
         style="fill:#241f31">
        <path
           d="M 33.333333,13.333333 H 26.666667 V 5.3333333 H 16 V 13.333333 H 9.3333333 c -2.2,0 -4,1.8 -4,4 v 20 l 13.1733337,13.16 c 0.726666,0.72 1.72,1.173334 2.826666,1.173334 C 22.44,51.666667 23.44,51.22 24.16,50.493333 l 13.173333,-13.16 v -20 c 0,-2.2 -1.8,-4 -4,-4 z M 21.333333,36 c -3.68,0 -6.666666,-2.986667 -6.666666,-6.666667 0,-3.68 2.986666,-6.666666 6.666666,-6.666666 3.68,0 6.666667,2.986666 6.666667,6.666666 C 28,33.013333 25.013333,36 21.333333,36 Z"
           id="path152"
           fill="#073042"
           fill-rule="nonzero"
           style="fill:#241f31" />
      </g>
    </g>
  </g>
</svg>
