<?xml version="1.0" encoding="UTF-8" standalone="no"?>
<!-- Created with Inkscape (http://www.inkscape.org/) -->

<svg
   width="128"
   height="128"
   viewBox="0 0 128 128"
   version="1.1"
   id="svg5"
   xml:space="preserve"
   inkscape:version="1.2.1 (9c6d41e410, 2022-07-14)"
   sodipodi:docname="com.vscodium.codium.svg"
   xmlns:inkscape="http://www.inkscape.org/namespaces/inkscape"
   xmlns:sodipodi="http://sodipodi.sourceforge.net/DTD/sodipodi-0.dtd"
   xmlns="http://www.w3.org/2000/svg"
   xmlns:svg="http://www.w3.org/2000/svg"><sodipodi:namedview
     id="namedview7"
     pagecolor="#505050"
     bordercolor="#ffffff"
     borderopacity="1"
     inkscape:showpageshadow="0"
     inkscape:pageopacity="0"
     inkscape:pagecheckerboard="1"
     inkscape:deskcolor="#505050"
     inkscape:document-units="px"
     showgrid="true"
     inkscape:zoom="5.6568543"
     inkscape:cx="70.357125"
     inkscape:cy="62.313785"
     inkscape:current-layer="layer1"><inkscape:grid
       type="xygrid"
       id="grid132"
       spacingx="1"
       spacingy="1"
       empspacing="8" /></sodipodi:namedview><defs
     id="defs2"><linearGradient
       id="Gradient_1"
       gradientUnits="userSpaceOnUse"
       x1="2.763"
       y1="-0.313"
       x2="94.027"
       y2="95.408"
       gradientTransform="matrix(0.81999734,0,0,0.81999734,23.026584,23.256666)"><stop
         offset="0"
         stop-color="#56CCF2"
         id="stop356" /><stop
         offset="1"
         stop-color="#2F80ED"
         id="stop358" /></linearGradient></defs><g
     inkscape:label="Warstwa 1"
     inkscape:groupmode="layer"
     id="layer1"><circle
       style="fill:#ffffff;stroke-width:2.04302;stroke-linecap:round;stroke-linejoin:round;stroke-dashoffset:160;paint-order:markers stroke fill"
       id="path397"
       cx="64"
       cy="64"
       r="60" /><path
       d="m 75.257955,24.418601 c 0.538738,-0.849516 1.502235,-1.414495 2.514112,-1.418595 1.417775,-0.0032 2.767491,0.792937 3.588309,1.926994 0.773258,1.084036 1.011877,2.454251 1.013517,3.762968 -0.0123,1.840074 -0.43624,3.648168 -0.941357,5.408703 -1.261977,4.154926 -2.976591,8.155693 -4.257427,12.305699 -1.410395,4.709245 -2.086893,9.957229 -0.191879,14.632854 0.990557,-2.765032 1.970454,-5.535803 2.95773,-8.304114 0.280439,-0.731438 0.649438,-1.562915 1.433356,-1.863034 1.091417,-0.388678 2.204152,0.750298 2.172172,1.804815 -0.298479,1.535854 -0.877397,2.99955 -1.333316,4.493585 -3.692447,11.099485 -7.827694,22.04563 -11.809601,33.045074 5.295542,-4.842085 10.607485,-9.666129 15.909588,-14.499194 1.526016,-1.389075 3.180771,-2.902791 3.648168,-5.001983 0.466579,-2.060654 -0.400977,-4.105727 -1.384154,-5.875282 -1.135696,-2.111494 -2.585452,-4.119666 -3.11845,-6.496019 -0.268139,-1.230816 -0.18696,-2.646951 0.642878,-3.655548 0.598597,-0.759318 1.688374,-1.151277 2.607591,-0.780637 0.907737,0.346858 1.455495,1.218516 1.884354,2.041793 1.440735,2.890491 2.339453,6.04912 2.648591,9.26515 0.983997,-1.985213 1.979473,-3.962228 2.965109,-5.945801 0.595319,-1.168496 1.120937,-2.422272 2.086894,-3.345589 0.583018,-0.575638 1.432535,-0.938077 2.25499,-0.751118 1.03156,0.22796 1.75562,1.166036 2.03278,2.140194 0.31406,1.034836 -0.0181,2.112313 -0.35177,3.09549 -0.99385,2.74945 -2.555124,5.237323 -4.059819,7.727655 -2.097553,3.296389 -4.325485,6.513239 -6.757598,9.573469 1.389896,-0.928237 2.853591,-1.904854 4.555905,-2.099194 1.610474,-0.215658 3.390689,0.727338 3.923686,2.299272 0.356696,1.070097 -0.220579,2.281234 -1.189815,2.803572 -1.421875,0.792938 -3.104511,0.782278 -4.684645,0.852798 -5.734242,0.157438 -11.322523,2.98069 -14.880492,7.475096 -2.807669,3.584207 -4.241845,8.037613 -7.091337,11.592296 -1.797433,2.16644 -4.336966,4.88638 -7.130696,4.28532 C 61.195,104.11578 61.195,98.301183 60.267583,95.418892 c -0.478058,-1.453035 -1.375135,-2.78061 -2.619891,-3.686707 -1.088136,-0.803598 -2.391111,-1.264437 -3.708028,-1.516995 -3.02333,-0.580558 -6.14178,-0.27388 -9.15773,-0.897077 -1.509616,-0.307499 -2.996271,-0.912658 -4.149187,-1.956514 -1.098796,-0.964318 -1.858114,-2.254993 -2.384552,-3.605529 -1.136517,-2.94215 -1.367756,-6.1344 -2.377993,-9.11345 -1.462055,-4.288586 -4.355005,-8.080255 -8.122893,-10.598466 -0.794578,-0.536278 -1.658035,-1.059437 -2.172174,-1.895834 -0.418198,-0.653537 -0.381298,-1.582594 0.16646,-2.152494 0.923317,-1.005316 2.592011,-1.088136 3.658828,-0.256658 2.186114,1.550614 2.501813,4.563285 4.539506,6.2492 0.0032,-2.783071 -0.01072,-5.563683 -0.01558,-8.345113 0.0066,-0.803598 -0.08282,-1.668695 0.318979,-2.399313 0.365719,-0.692078 1.377595,-0.879857 1.965534,-0.360799 0.794577,0.665837 1.036476,1.752335 1.149636,2.735511 0.395238,3.833489 0.777357,7.668616 1.174235,11.504563 1.997515,-1.794153 2.915091,-4.705964 2.268933,-7.317656 -0.195979,-0.833937 -0.513318,-1.691654 -0.333739,-2.556753 0.146781,-0.725696 0.916758,-1.236555 1.642455,-1.106994 0.815898,0.110699 1.398096,0.810156 1.703955,1.528474 0.487078,1.190637 0.488718,2.516572 0.390318,3.781008 -0.289459,2.879831 -1.507974,5.539082 -2.348472,8.279513 -0.819177,2.418992 -1.382516,5.106944 -0.561698,7.605475 0.731438,2.336173 2.585451,4.182807 4.760904,5.229944 2.685492,1.319375 5.710463,1.729375 8.669832,1.845813 -1.799074,-3.148789 -3.755588,-6.480439 -3.721968,-10.226187 0.03526,-3.771167 2.432933,-6.947836 3.080731,-10.587805 1.103717,-6.038461 -1.621135,-12.60254 -6.693638,-16.067029 -2.253353,-1.548154 -4.958524,-2.236951 -7.273377,-3.672767 -2.094273,-1.281656 -3.975347,-3.562889 -3.646528,-6.160641 1.590794,-0.615817 3.366909,-0.222219 4.802724,0.604338 2.806032,1.497316 4.591165,4.336146 7.411136,5.810501 0.990557,0.540379 2.126254,0.807699 3.25457,0.738819 0.610898,-1.464516 0,-3.10451 -0.985638,-4.245128 -1.854013,-2.233672 -4.983123,-2.77569 -6.921597,-4.910963 -0.971697,-1.114377 -1.513715,-2.706812 -1.105356,-4.163947 0.332098,-1.151276 1.523556,-1.935193 2.710091,-1.848273 1.757254,0.10906 3.270149,1.209495 4.471446,2.420632 3.974527,3.972886 6.261499,9.376669 7.158577,14.868192 1.059436,6.477159 0.236159,13.084697 -1.068458,19.462637 -0.243538,1.299695 -0.699457,2.632192 -0.362438,3.958947 0.14514,0.614178 0.587938,1.248035 1.268536,1.302975 0.935617,0.05986 1.708874,-0.577277 2.390292,-1.135696 2.131173,-1.740854 3.825288,-4.084406 4.523926,-6.768258 0.546117,-1.956513 0.561697,-4.004867 0.523158,-6.019601 0.01072,-1.007776 -0.06396,-2.120513 0.538739,-2.99299 0.430499,-0.674037 1.234095,-1.203757 2.060653,-1.007776 0.647798,0.122998 1.106995,0.684698 1.304615,1.286575 0.318159,0.991377 0.269779,2.061474 0.0779,3.07253 -0.609258,2.790452 -1.160297,5.616982 -2.264013,8.266393 -0.778997,1.901575 -1.831053,3.709669 -3.256209,5.199604 -1.571115,1.665414 -3.512049,3.00037 -4.778124,4.941305 -0.863458,1.325936 -1.421876,2.973309 -1.047138,4.557544 0.27388,1.263616 1.235736,2.295172 2.396033,2.821611 1.690014,0.771618 3.741648,0.732258 5.389022,-0.136119 1.307076,-0.706838 2.236134,-1.928634 2.975771,-3.184049 1.302976,-2.258274 2.092633,-4.765825 2.747811,-7.276657 1.007777,-4.054067 1.601456,-8.210634 1.834335,-12.38196 0.266498,-4.455046 -0.54202,-9.061791 -2.787992,-12.953498 -1.193916,-2.083614 -2.88229,-3.858089 -4.854385,-5.216004 -1.776113,-1.321016 -3.729347,-2.464913 -5.170082,-4.176247 -1.347255,-1.585875 -2.281234,-3.726068 -1.790874,-5.831 0.921676,-0.578919 2.085253,-0.679778 3.10615,-0.317339 1.926173,0.655177 3.434969,2.201692 4.407485,3.951566 1.321016,2.062294 2.423093,4.516546 4.750245,5.636662 -1.893375,-3.724428 -3.845788,-7.416876 -5.762121,-11.128184 -0.623198,-1.253775 -1.237377,-2.623991 -1.075017,-4.058167 0.11808,-1.093057 1.133237,-1.989313 2.229572,-1.984393 0.973337,0.0032 1.885994,0.551038 2.465732,1.313636 0.661739,0.858537 0.978258,1.916333 1.276736,2.94379 1.526836,5.315223 3.052851,10.627985 4.585426,15.941568 1.926173,-3.669488 2.740431,-7.921174 2.192673,-12.0392 -0.23944,-2.182834 -0.880677,-4.291047 -1.389077,-6.42058 -0.346038,-1.393175 -0.241898,-2.956091 0.552679,-4.182807 z"
       fill="url(#Gradient_1)"
       id="Shape"
       style="opacity:1;fill:url(#Gradient_1);stroke-width:0.819998" /><path
       style="display:inline;opacity:0.2;fill:#000000;fill-opacity:1;stroke:none;stroke-width:8;stroke-linejoin:round;stroke-miterlimit:4;stroke-dasharray:1, 0.5;stroke-dashoffset:0;stroke-opacity:1;enable-background:new"
       d="M 123.93751,62.246094 A 60.00001,60.00001 0 0 1 64.000016,121 60.00001,60.00001 0 0 1 4.0625155,62.753906 60.00001,60.00001 0 0 0 4.0000035,64.000001 60.00001,60.00001 0 0 0 64.000006,124 60.00001,60.00001 0 0 0 124,64.000001 60.00001,60.00001 0 0 0 123.9375,62.246094 Z"
       id="circle1110"
       inkscape:connector-curvature="0" /></g></svg>
