<?xml version="1.0" encoding="UTF-8" standalone="no"?>
<svg
   inkscape:version="1.1.1 (3bf5ae0d25, 2021-09-20)"
   sodipodi:docname="com.spotify.Client.svg"
   viewBox="0 0 128 128"
   height="128"
   width="128"
   xml:space="preserve"
   id="svg834"
   version="1.1"
   xmlns:inkscape="http://www.inkscape.org/namespaces/inkscape"
   xmlns:sodipodi="http://sodipodi.sourceforge.net/DTD/sodipodi-0.dtd"
   xmlns="http://www.w3.org/2000/svg"
   xmlns:svg="http://www.w3.org/2000/svg"
   xmlns:rdf="http://www.w3.org/1999/02/22-rdf-syntax-ns#"
   xmlns:cc="http://creativecommons.org/ns#"
   xmlns:dc="http://purl.org/dc/elements/1.1/"><sodipodi:namedview
     id="namedview11"
     pagecolor="#505050"
     bordercolor="#eeeeee"
     borderopacity="1"
     inkscape:pageshadow="0"
     inkscape:pageopacity="0"
     inkscape:pagecheckerboard="0"
     showgrid="false"
     inkscape:snap-global="true"
     inkscape:snap-others="true"
     inkscape:snap-nodes="true"
     inkscape:snap-object-midpoints="true"
     inkscape:snap-page="true"
     height="128px"
     inkscape:zoom="5.6171875"
     inkscape:cx="76.639777"
     inkscape:cy="65.869263"
     inkscape:window-width="1920"
     inkscape:window-height="1011"
     inkscape:window-x="0"
     inkscape:window-y="32"
     inkscape:window-maximized="1"
     inkscape:current-layer="layer1"
     inkscape:object-paths="true"
     inkscape:snap-intersection-paths="true"
     inkscape:snap-smooth-nodes="true"
     inkscape:snap-midpoints="true"
     inkscape:snap-center="true"
     inkscape:snap-text-baseline="true"
     lock-margins="true" /><metadata
     id="metadata840"><rdf:RDF><cc:Work
         rdf:about=""><dc:format>image/svg+xml</dc:format><dc:type
           rdf:resource="http://purl.org/dc/dcmitype/StillImage" /></cc:Work></rdf:RDF></metadata><defs
     id="defs838" /><g
     inkscape:groupmode="layer"
     id="layer1"
     inkscape:label="Layer 1"><path
       id="path4771"
       d="m 52.408259,34.596225 c -10.2321,0.188303 -20.6015,1.152587 -30.365,4.370407 -4.00577,1.577031 -5.52068,7.311003 -2.4911,10.489784 1.82072,2.324663 5.06587,3.128609 7.80362,2.092227 11.69087,-3.374572 24.05098,-3.515833 36.13169,-2.841878 12.06498,0.908326 24.25029,3.659956 35.08845,9.318043 2.156081,0.940876 4.402831,2.685534 6.870321,1.728914 3.66082,-0.738107 5.94201,-4.762781 5.01706,-8.315442 -1.01458,-3.846742 -5.24921,-5.241036 -8.37252,-6.954686 C 86.668329,37.215627 69.348799,34.544602 52.408259,34.596225 Z"
       style="opacity:1;vector-effect:none;fill:#191414;fill-opacity:1;stroke:none;stroke-width:1;stroke-miterlimit:4;stroke-dasharray:none" /><path
       id="path4773"
       d="m 52.561617,54.843042 c -8.65856,0.148728 -17.39895,1.270981 -25.60813,4.091541 -3.08144,1.663126 -4.19361,6.268582 -1.62115,8.877215 1.59476,2.031662 4.39962,2.488354 6.74631,1.648605 6.12269,-1.646346 12.44185,-2.779741 18.80519,-2.668233 7.45045,-0.177369 14.88208,0.09783 22.14306,1.899165 7.51072,1.471167 14.46148,4.568498 21.17772,8.077794 1.60566,1.062633 3.6114,1.51138 5.42059,0.680701 3.594413,-1.23646 5.031753,-6.278493 2.391073,-9.10455 -3.348553,-2.944614 -7.632593,-4.573441 -11.641623,-6.414409 -11.9233,-4.965785 -24.92261,-7.209315 -37.81304,-7.087829 z"
       style="opacity:1;vector-effect:none;fill:#191414;fill-opacity:1;stroke:none;stroke-width:1;stroke-miterlimit:4;stroke-dasharray:none" /><path
       id="path4775"
       d="m 52.882648,75.983839 c -8.33048,-0.001 -16.67334,1.030123 -24.73162,3.127637 -2.54137,1.121738 -3.97794,4.537638 -2.238,6.927683 1.05645,2.174079 3.74441,2.605323 5.88232,2.037587 6.8057,-1.37534 13.73614,-2.400623 20.6882,-2.333124 10.20861,-0.238219 20.4599,1.556268 29.58209,6.12634 2.58538,0.949 4.82279,3.289575 7.72777,3.08329 3.45444,-0.337686 5.74319,-5.13991 3.07358,-7.732957 -3.08869,-2.739738 -7.06988,-4.218674 -10.77472,-5.93213 -9.20566,-3.83274 -19.26157,-5.492504 -29.20962,-5.304326 z"
       style="opacity:1;vector-effect:none;fill:#191414;fill-opacity:1;stroke:none;stroke-width:1;stroke-miterlimit:4;stroke-dasharray:none" /><g
       style="fill:#1db954;fill-opacity:1;stroke-width:0.125"
       id="g842"
       transform="matrix(9.9999989,0,0,-9.9999989,4.0000049,123.99994)"><g
         id="g844"
         transform="matrix(0.00716478,0,0,0.00716478,-0.09185512,-0.09186037)"
         style="fill:#1db954;fill-opacity:1;stroke-width:1.74465"><path
           d="m 1345.62,945.281 c -269.94,160.309 -715.202,175.049 -972.893,96.839 -41.383,-12.56 -85.145,10.81 -97.68,52.18 -12.543,41.41 10.793,85.14 52.207,97.72 295.812,89.79 787.556,72.45 1098.316,-112.02 37.22,-22.1 49.43,-70.17 27.37,-107.328 -22.08,-37.219 -70.19,-49.488 -107.32,-27.391 z m -8.84,-237.441 c -18.94,-30.731 -59.12,-40.371 -89.81,-21.5 -225.05,138.336 -568.216,178.41 -834.466,97.59 -34.527,-10.434 -70.996,9.035 -81.484,43.496 -10.403,34.527 9.074,70.929 43.539,81.429 304.152,92.295 682.261,47.59 940.741,-111.253 30.69,-18.903 40.35,-59.102 21.48,-89.762 z M 1234.31,479.809 c -15.05,-24.68 -47.18,-32.411 -71.77,-17.368 -196.653,120.188 -444.173,147.329 -735.673,80.75 -28.09,-6.441 -56.086,11.161 -62.492,39.25 -6.434,28.079 11.102,56.079 39.254,62.489 318.996,72.925 592.633,41.539 813.361,-93.34 24.61,-15.031 32.36,-47.18 17.32,-71.781 z M 850.254,1687.68 c -462.496,0 -837.4337,-374.93 -837.4337,-837.418 0,-462.543 374.9377,-837.4417 837.4337,-837.4417 462.506,0 837.426,374.8987 837.426,837.4417 0,462.488 -374.92,837.418 -837.426,837.418"
           style="fill:#1db954;fill-opacity:1;fill-rule:nonzero;stroke:none;stroke-width:1.74465"
           id="path846" /></g></g><g
       id="g228"
       transform="translate(2.6764117e-4,-172)"><path
         style="display:inline;opacity:0.2;fill:#000000;fill-opacity:1;stroke:none;stroke-width:8;stroke-linejoin:round;stroke-miterlimit:4;stroke-dasharray:1, 0.5;stroke-dashoffset:0;stroke-opacity:1;enable-background:new"
         d="M 123.9375,62.246094 A 60.000008,60.000008 0 0 1 64,121 60.000008,60.000008 0 0 1 4.0625,62.753906 60.000008,60.000008 0 0 0 4,64 a 60.000008,60.000008 0 0 0 60,60 60.000008,60.000008 0 0 0 60,-60 60.000008,60.000008 0 0 0 -0.0625,-1.753906 z"
         transform="translate(0,172)"
         id="circle1110"
         inkscape:connector-curvature="0" /></g></g></svg>
