<?xml version="1.0" encoding="UTF-8" standalone="no"?>
<svg
   width="128"
   height="128"
   viewBox="0 0 128 128"
   fill="none"
   version="1.1"
   id="svg10"
   sodipodi:docname="im.riot.Riot.svg"
   inkscape:version="1.2 (dc2aedaf03, 2022-05-15)"
   xmlns:inkscape="http://www.inkscape.org/namespaces/inkscape"
   xmlns:sodipodi="http://sodipodi.sourceforge.net/DTD/sodipodi-0.dtd"
   xmlns:xlink="http://www.w3.org/1999/xlink"
   xmlns="http://www.w3.org/2000/svg"
   xmlns:svg="http://www.w3.org/2000/svg">
  <defs
     id="defs14">
    <linearGradient
       inkscape:collect="always"
       id="linearGradient3505">
      <stop
         style="stop-color:#1a5fb4;stop-opacity:1"
         offset="0"
         id="stop3493" />
      <stop
         id="stop3495"
         offset="0.03846154"
         style="stop-color:#99c1f1;stop-opacity:1" />
      <stop
         style="stop-color:#1c71d8;stop-opacity:1"
         offset="0.07685554"
         id="stop3497" />
      <stop
         id="stop3499"
         offset="0.92307693"
         style="stop-color:#1c71d8;stop-opacity:1" />
      <stop
         style="stop-color:#99c1f1;stop-opacity:1"
         offset="0.96153849"
         id="stop3501" />
      <stop
         style="stop-color:#1a5fb4;stop-opacity:1"
         offset="1"
         id="stop3503" />
    </linearGradient>
    <linearGradient
       inkscape:collect="always"
       id="linearGradient2753">
      <stop
         style="stop-color:#26a269;stop-opacity:1"
         offset="0"
         id="stop2741" />
      <stop
         id="stop2743"
         offset="0.03846154"
         style="stop-color:#8ff0a4;stop-opacity:1" />
      <stop
         style="stop-color:#2ec27e;stop-opacity:1"
         offset="0.07685554"
         id="stop2745" />
      <stop
         id="stop2747"
         offset="0.92307693"
         style="stop-color:#2ec27e;stop-opacity:1" />
      <stop
         style="stop-color:#8ff0a4;stop-opacity:1"
         offset="0.96153849"
         id="stop2749" />
      <stop
         style="stop-color:#26a269;stop-opacity:1"
         offset="1"
         id="stop2751" />
    </linearGradient>
    <linearGradient
       inkscape:collect="always"
       xlink:href="#linearGradient2753"
       id="linearGradient1871"
       x1="12"
       y1="66"
       x2="116"
       y2="66"
       gradientUnits="userSpaceOnUse" />
    <linearGradient
       inkscape:collect="always"
       xlink:href="#linearGradient3505"
       id="linearGradient3491"
       gradientUnits="userSpaceOnUse"
       x1="12"
       y1="66"
       x2="116"
       y2="66" />
  </defs>
  <sodipodi:namedview
     id="namedview12"
     pagecolor="#505050"
     bordercolor="#ffffff"
     borderopacity="1"
     inkscape:showpageshadow="0"
     inkscape:pageopacity="0"
     inkscape:pagecheckerboard="1"
     inkscape:deskcolor="#505050"
     showgrid="true"
     inkscape:zoom="2.1851852"
     inkscape:cx="60.177966"
     inkscape:cy="57.432203"
     inkscape:window-width="1920"
     inkscape:window-height="1011"
     inkscape:window-x="0"
     inkscape:window-y="32"
     inkscape:window-maximized="1"
     inkscape:current-layer="svg10">
    <inkscape:grid
       type="xygrid"
       id="grid780"
       spacingx="2"
       spacingy="2" />
  </sodipodi:namedview>
  <rect
     style="fill:url(#linearGradient1871);fill-opacity:1.0;stroke-width:2;stroke-linecap:round;stroke-linejoin:round;stroke-dashoffset:160"
     id="rect836"
     width="104"
     height="100"
     x="12"
     y="16"
     rx="8"
     ry="8" />
  <rect
     style="opacity:0.12;fill:url(#linearGradient3491);fill-opacity:1;stroke-width:2;stroke-linecap:round;stroke-linejoin:round;stroke-dashoffset:160"
     id="rect3489"
     width="104"
     height="100"
     x="12"
     y="16"
     rx="8"
     ry="8" />
  <rect
     style="fill:#0dbd8b;fill-opacity:1;stroke-width:2;stroke-linecap:round;stroke-linejoin:round;stroke-dashoffset:160"
     id="rect297"
     width="104"
     height="100"
     x="-116"
     y="12"
     rx="6.0000005"
     ry="6" />
  <rect
     style="fill:#33d17a;fill-opacity:1;stroke-width:2;stroke-linecap:round;stroke-linejoin:round;stroke-dashoffset:160"
     id="rect838"
     width="104"
     height="100"
     x="12"
     y="12"
     rx="8"
     ry="8" />
  <rect
     style="opacity:0.12;fill:#3584e4;fill-opacity:1;stroke-width:2;stroke-linecap:round;stroke-linejoin:round;stroke-dashoffset:160"
     id="rect840"
     width="104"
     height="100"
     x="12"
     y="12"
     rx="8"
     ry="8" />
  <path
     fill-rule="evenodd"
     clip-rule="evenodd"
     d="m 53.921867,30.320009 c 0,-2.385867 1.934132,-4.32 4.32,-4.32 15.905865,0 28.8,12.894201 28.8,28.800001 0,2.385866 -1.934133,4.32 -4.320001,4.32 -2.385866,0 -4.320001,-1.934134 -4.320001,-4.32 0,-11.134134 -9.025864,-20.16 -20.159998,-20.16 -2.385868,0 -4.32,-1.934134 -4.32,-4.320001 z"
     fill="#0dbd8b"
     id="path2"
     style="fill:#ffffff;stroke-width:0.999999" />
  <path
     fill-rule="evenodd"
     clip-rule="evenodd"
     d="m 74.078133,93.680009 c 0,2.385864 -1.934133,4.32 -4.32,4.32 -15.905733,0 -28.799987,-12.894133 -28.799987,-28.799999 0,-2.385867 1.934119,-4.32 4.319986,-4.32 2.385866,0 4.32,1.934133 4.32,4.32 0,11.134 9.026001,20.159999 20.160001,20.159999 2.385867,0 4.32,1.934136 4.32,4.32 z"
     fill="#0dbd8b"
     id="path4"
     style="fill:#ffffff;stroke-width:0.999999" />
  <path
     fill-rule="evenodd"
     clip-rule="evenodd"
     d="M 32.319999,72.080142 C 29.934131,72.080142 28,70.14601 28,67.760142 c -4e-6,-15.905866 12.8942,-28.800039 28.8,-28.800039 2.385867,0 4.32,1.934173 4.32,4.320039 0,2.385868 -1.934134,4.32 -4.32,4.32 -11.134002,0 -20.160001,9.025868 -20.160001,20.16 0,2.385868 -1.934133,4.32 -4.32,4.32 z"
     fill="#0dbd8b"
     id="path6"
     style="fill:#ffffff;stroke-width:0.999999" />
  <path
     fill-rule="evenodd"
     clip-rule="evenodd"
     d="m 95.68,51.919876 c 2.385864,0 4.32,1.934134 4.32,4.32 0,15.905867 -12.894134,28.800001 -28.800001,28.800001 -2.385867,0 -4.32,-1.934134 -4.32,-4.32 0,-2.385868 1.934133,-4.320001 4.32,-4.320001 11.134,0 20.160001,-9.025866 20.160001,-20.16 0,-2.385867 1.934136,-4.32 4.32,-4.32 z"
     fill="#0dbd8b"
     id="path8"
     style="fill:#ffffff;stroke-width:0.999999" />
</svg>
