<?xml version="1.0" encoding="UTF-8" standalone="no"?>
<svg
   inkscape:version="1.1.1 (3bf5ae0d25, 2021-09-20)"
   sodipodi:docname="nvidia.svg"
   id="svg25"
   version="1.1"
   width="128"
   viewBox="0 0 128 128"
   height="128"
   enable-background="new"
   xmlns:inkscape="http://www.inkscape.org/namespaces/inkscape"
   xmlns:sodipodi="http://sodipodi.sourceforge.net/DTD/sodipodi-0.dtd"
   xmlns:xlink="http://www.w3.org/1999/xlink"
   xmlns="http://www.w3.org/2000/svg"
   xmlns:svg="http://www.w3.org/2000/svg">
  <defs
     id="defs29">
    <linearGradient
       id="linearGradient31197"
       inkscape:collect="always">
      <stop
         id="stop31193"
         offset="0"
         style="stop-color:#66cc33;stop-opacity:1" />
      <stop
         id="stop31195"
         offset="1"
         style="stop-color:#99ff66;stop-opacity:1" />
    </linearGradient>
    <linearGradient
       inkscape:collect="always"
       xlink:href="#linearGradient965"
       id="linearGradient914"
       gradientUnits="userSpaceOnUse"
       gradientTransform="matrix(0.25,0,0,0.25,-460.60691,395.4264)"
       x1="88.595886"
       y1="-449.39401"
       x2="536.59589"
       y2="-449.39401" />
    <linearGradient
       inkscape:collect="always"
       xlink:href="#linearGradient31197"
       id="linearGradient29859"
       x1="8.0000029"
       y1="112"
       x2="8.0000029"
       y2="28.000002"
       gradientUnits="userSpaceOnUse"
       gradientTransform="matrix(1.0000074,0,0,1.0000263,-446.45806,167.07566)" />
  </defs>
  <sodipodi:namedview
     id="namedview27"
     pagecolor="#505050"
     bordercolor="#eeeeee"
     borderopacity="1"
     inkscape:pageshadow="0"
     inkscape:pageopacity="0"
     inkscape:pagecheckerboard="0"
     showgrid="false"
     inkscape:snap-bbox="true"
     inkscape:bbox-paths="true"
     inkscape:bbox-nodes="true"
     inkscape:snap-bbox-edge-midpoints="true"
     inkscape:snap-bbox-midpoints="true"
     inkscape:zoom="11.313708"
     inkscape:cx="51.132659"
     inkscape:cy="59.043416"
     inkscape:window-width="1920"
     inkscape:window-height="1011"
     inkscape:window-x="0"
     inkscape:window-y="32"
     inkscape:window-maximized="1"
     inkscape:current-layer="svg25" />
  <linearGradient
     id="linearGradient965"
     gradientUnits="userSpaceOnUse"
     x1="48"
     x2="464"
     y1="44"
     y2="44"
     gradientTransform="matrix(0.25,0,0,0.25,126.45471,53)">
    <stop
       offset="0"
       stop-color="#77767b"
       id="stop2" />
    <stop
       offset=".05"
       stop-color="#c0bfbc"
       id="stop4" />
    <stop
       offset=".1"
       stop-color="#9a9996"
       id="stop6" />
    <stop
       offset=".9"
       stop-color="#9a9996"
       id="stop8" />
    <stop
       offset=".95"
       stop-color="#c0bfbc"
       id="stop10" />
    <stop
       offset="1"
       stop-color="#77767b"
       id="stop12" />
  </linearGradient>
  <g
     style="display:inline;enable-background:new"
     id="g1064"
     transform="translate(446.45795,-167.07791)">
    <rect
       ry="8"
       rx="7.9999995"
       y="207.07791"
       x="-438.45795"
       height="76"
       width="112.00001"
       id="rect884"
       style="display:inline;opacity:1;vector-effect:none;fill:url(#linearGradient914);fill-opacity:1.0;stroke:none;stroke-width:0.25;stroke-linecap:butt;stroke-linejoin:miter;stroke-miterlimit:4;stroke-dasharray:none;stroke-dashoffset:0;stroke-opacity:1;marker:none;marker-start:none;marker-mid:none;marker-end:none;paint-order:normal;enable-background:new" />
    <rect
       style="display:inline;opacity:1;vector-effect:none;fill:#f6f5f4;fill-opacity:1;stroke:none;stroke-width:0.25;stroke-linecap:butt;stroke-linejoin:miter;stroke-miterlimit:4;stroke-dasharray:none;stroke-dashoffset:0;stroke-opacity:1;marker:none;marker-start:none;marker-mid:none;marker-end:none;paint-order:normal;enable-background:new"
       id="rect886"
       width="112.00001"
       height="84"
       x="-438.45795"
       y="195.07791"
       rx="7.9999995"
       ry="8" />
    <rect
       style="display:inline;opacity:1;vector-effect:none;fill:#232323;fill-opacity:1;stroke:none;stroke-width:0.229147;stroke-linecap:butt;stroke-linejoin:miter;stroke-miterlimit:4;stroke-dasharray:none;stroke-dashoffset:0;stroke-opacity:1;marker:none;marker-start:none;marker-mid:none;marker-end:none;paint-order:normal;enable-background:new"
       id="rect486"
       width="104"
       height="76"
       x="-434.33795"
       y="199.47742"
       rx="4"
       ry="4" />
    <path
       id="rect29794"
       style="display:inline;opacity:1;vector-effect:none;fill:url(#linearGradient29859);fill-opacity:1;stroke:none;stroke-width:0.250004;stroke-linecap:butt;stroke-linejoin:miter;stroke-miterlimit:4;stroke-dasharray:none;stroke-dashoffset:0;stroke-opacity:1;marker:none;marker-start:none;marker-mid:none;marker-end:none;paint-order:normal;enable-background:new"
       d="m -391.73108,199.47691 v 10.178 c 0.63726,-0.0517 1.06045,-0.094 1.70118,-0.11719 24.68047,-0.88231 40.76007,21.46932 40.76007,21.46932 0,0 -18.4691,23.82289 -37.71121,23.82289 -1.76354,0 -3.19932,-0.17362 -4.75004,-0.46486 v 6.35564 c 1.32603,0.17826 2.48528,0.28321 3.91995,0.28321 17.90616,0 30.85594,-9.69855 43.39486,-21.17829 2.07893,1.76602 10.5903,6.06107 12.33993,7.94161 -11.92169,10.58712 -39.70785,19.1216 -55.4594,19.1216 -1.51836,0 -2.76198,-0.0973 -4.19534,-0.24414 v 8.83421 h 57.39301 c 2.21601,0 4.00003,-1.78405 4.00003,-4.00011 v -68.00178 c 0,-2.21606 -1.78402,-4.00011 -4.00003,-4.00011 z m -0.004,10.178 c -21.70887,1.84931 -40.72296,21.35213 -40.72296,21.35213 0,0 10.8631,32.64837 40.72296,35.63766 v -5.92399 c -21.90865,-2.92774 -29.62802,-28.53359 -29.63107,-28.54372 0.005,-0.008 10.03656,-15.35876 29.63107,-16.94772 z m 3.34963,5.46499 c -0.54252,-0.0144 -1.08993,-0.0126 -1.64454,0.006 -0.64903,0.022 -1.07044,0.0643 -1.70118,0.10351 v 6.88496 c 1.16117,-0.13116 2.12949,-0.22506 3.36525,-0.22462 11.36853,0 18.11148,9.38306 18.11148,9.38306 l -9.23836,8.26193 c -4.15394,-7.34494 -5.32888,-10.58153 -12.23837,-11.4671 v 20.87165 c 1.56592,0.55856 3.09067,0.89065 5.03129,0.89065 13.48404,0 26.06074,-18.52783 26.06074,-18.52783 0,0 -10.92809,-15.73613 -27.74631,-16.18207 z m -3.34572,33.81925 c -9.33672,-3.3273 -12.58603,-14.88906 -12.58603,-14.88906 0,0 5.62943,-6.8688 12.56064,-5.98649 0.007,0 0.0136,0.002 0.0215,0.002 v -5.95327 c -13.20664,1.51533 -21.3732,10.85965 -21.3732,10.85965 0,0 4.81171,18.25942 21.3732,21.39119 v -5.42397 z" />
  </g>
</svg>
