<?xml version="1.0" encoding="UTF-8" standalone="no"?>
<!-- Created with Inkscape (http://www.inkscape.org/) -->

<svg
   width="128.0px"
   height="128.0px"
   viewBox="0 0 128.0 128.0"
   version="1.1"
   id="SVGRoot"
   sodipodi:docname="org.apache.netbeans.svg"
   inkscape:version="1.2.1 (9c6d41e410, 2022-07-14)"
   xmlns:inkscape="http://www.inkscape.org/namespaces/inkscape"
   xmlns:sodipodi="http://sodipodi.sourceforge.net/DTD/sodipodi-0.dtd"
   xmlns="http://www.w3.org/2000/svg"
   xmlns:svg="http://www.w3.org/2000/svg">
  <sodipodi:namedview
     id="namedview317"
     pagecolor="#505050"
     bordercolor="#ffffff"
     borderopacity="1"
     inkscape:showpageshadow="0"
     inkscape:pageopacity="0"
     inkscape:pagecheckerboard="1"
     inkscape:deskcolor="#505050"
     inkscape:document-units="px"
     showgrid="true"
     inkscape:zoom="4.7572176"
     inkscape:cx="53.392555"
     inkscape:cy="59.803865"
     inkscape:current-layer="layer1">
    <inkscape:grid
       type="axonomgrid"
       id="grid447"
       originx="64"
       originy="64" />
  </sodipodi:namedview>
  <defs
     id="defs312">
    <inkscape:path-effect
       effect="fillet_chamfer"
       id="path-effect16977"
       is_visible="true"
       lpeversion="1"
       nodesatellites_param="F,0,0,1,0,2,0,1 @ F,0,0,1,0,2,0,1 @ F,0,0,1,0,2,0,1 @ F,0,0,1,0,2,0,1"
       unit="px"
       method="auto"
       mode="F"
       radius="2"
       chamfer_steps="1"
       flexible="false"
       use_knot_distance="true"
       apply_no_radius="true"
       apply_with_radius="true"
       only_selected="false"
       hide_knots="false" />
    <inkscape:path-effect
       effect="fillet_chamfer"
       id="path-effect16910"
       is_visible="true"
       lpeversion="1"
       nodesatellites_param="F,0,0,1,0,2,0,1 @ F,0,0,1,0,2,0,1 @ F,0,0,1,0,2,0,1 @ F,0,0,1,0,2,0,1"
       unit="px"
       method="auto"
       mode="F"
       radius="2"
       chamfer_steps="1"
       flexible="false"
       use_knot_distance="true"
       apply_no_radius="true"
       apply_with_radius="true"
       only_selected="false"
       hide_knots="false" />
    <inkscape:path-effect
       effect="fillet_chamfer"
       id="path-effect16908"
       is_visible="true"
       lpeversion="1"
       nodesatellites_param="F,0,0,1,0,2,0,1 @ F,0,0,1,0,2,0,1 @ F,0,0,1,0,2,0,1 @ F,0,0,1,0,2,0,1 @ F,0,0,1,0,2,0,1 @ F,0,0,1,0,2,0,1"
       unit="px"
       method="auto"
       mode="F"
       radius="2"
       chamfer_steps="1"
       flexible="false"
       use_knot_distance="true"
       apply_no_radius="true"
       apply_with_radius="true"
       only_selected="false"
       hide_knots="false" />
    <inkscape:path-effect
       effect="fillet_chamfer"
       id="path-effect16906"
       is_visible="true"
       lpeversion="1"
       nodesatellites_param="F,0,0,1,0,2,0,1 @ F,0,0,1,0,2,0,1 @ F,0,0,1,0,2,0,1 @ F,0,0,1,0,2,0,1 @ F,0,0,1,0,2,0,1 @ F,0,0,1,0,2,0,1"
       unit="px"
       method="auto"
       mode="F"
       radius="2"
       chamfer_steps="1"
       flexible="false"
       use_knot_distance="true"
       apply_no_radius="true"
       apply_with_radius="true"
       only_selected="false"
       hide_knots="false" />
    <inkscape:path-effect
       effect="fillet_chamfer"
       id="path-effect16900"
       is_visible="true"
       lpeversion="1"
       nodesatellites_param="F,0,0,1,0,2,0,1 @ F,0,0,1,0,2,0,1 @ F,0,0,1,0,2,0,1 @ F,0,0,1,0,2,0,1 @ F,0,0,1,0,2,0,1 @ F,0,0,1,0,2,0,1"
       unit="px"
       method="auto"
       mode="F"
       radius="2"
       chamfer_steps="1"
       flexible="false"
       use_knot_distance="true"
       apply_no_radius="true"
       apply_with_radius="true"
       only_selected="false"
       hide_knots="false" />
    <inkscape:path-effect
       effect="fillet_chamfer"
       id="path-effect16898"
       is_visible="true"
       lpeversion="1"
       nodesatellites_param="F,0,0,1,0,2,0,1 @ F,0,0,1,0,2,0,1 @ F,0,0,1,0,2,0,1 @ F,0,0,1,0,2,0,1"
       unit="px"
       method="auto"
       mode="F"
       radius="2"
       chamfer_steps="1"
       flexible="false"
       use_knot_distance="true"
       apply_no_radius="true"
       apply_with_radius="true"
       only_selected="false"
       hide_knots="false" />
    <inkscape:path-effect
       effect="fillet_chamfer"
       id="path-effect16896"
       is_visible="true"
       lpeversion="1"
       nodesatellites_param="F,0,0,1,0,2,0,1 @ F,0,0,1,0,2,0,1 @ F,0,0,1,0,2,0,1 @ F,0,0,1,0,2,0,1 @ F,0,0,1,0,2,0,1 @ F,0,0,1,0,2,0,1"
       unit="px"
       method="auto"
       mode="F"
       radius="2"
       chamfer_steps="1"
       flexible="false"
       use_knot_distance="true"
       apply_no_radius="true"
       apply_with_radius="true"
       only_selected="false"
       hide_knots="false" />
    <inkscape:path-effect
       effect="fillet_chamfer"
       id="path-effect8182"
       is_visible="true"
       lpeversion="1"
       nodesatellites_param="F,0,0,1,0,2,0,1 @ F,0,0,1,0,2,0,1 @ F,0,0,1,0,2,0,1 @ F,0,0,1,0,2,0,1 @ F,0,0,1,0,2,0,1 @ F,0,0,1,0,2,0,1"
       unit="px"
       method="auto"
       mode="F"
       radius="2"
       chamfer_steps="1"
       flexible="false"
       use_knot_distance="true"
       apply_no_radius="true"
       apply_with_radius="true"
       only_selected="false"
       hide_knots="false" />
    <inkscape:path-effect
       effect="fillet_chamfer"
       id="path-effect2459"
       is_visible="true"
       lpeversion="1"
       nodesatellites_param="F,0,0,1,0,2,0,1 @ F,0,0,1,0,2,0,1 @ F,0,0,1,0,2,0,1 @ F,0,0,1,0,2,0,1 @ F,0,0,1,0,2,0,1 @ F,0,0,1,0,2,0,1"
       unit="px"
       method="auto"
       mode="F"
       radius="2"
       chamfer_steps="1"
       flexible="false"
       use_knot_distance="true"
       apply_no_radius="true"
       apply_with_radius="true"
       only_selected="false"
       hide_knots="false" />
    <inkscape:path-effect
       effect="fillet_chamfer"
       id="path-effect2386"
       is_visible="true"
       lpeversion="1"
       nodesatellites_param="F,0,0,1,0,2,0,1 @ F,0,0,1,0,2,0,1 @ F,0,0,1,0,2,0,1 @ F,0,0,1,0,2,0,1"
       unit="px"
       method="auto"
       mode="F"
       radius="2"
       chamfer_steps="1"
       flexible="false"
       use_knot_distance="true"
       apply_no_radius="true"
       apply_with_radius="true"
       only_selected="false"
       hide_knots="false" />
    <inkscape:path-effect
       effect="fillet_chamfer"
       id="path-effect2384"
       is_visible="true"
       lpeversion="1"
       nodesatellites_param="F,0,0,1,0,2,0,1 @ F,0,0,1,0,2,0,1 @ F,0,0,1,0,2,0,1 @ F,0,0,1,0,2,0,1"
       unit="px"
       method="auto"
       mode="F"
       radius="2"
       chamfer_steps="1"
       flexible="false"
       use_knot_distance="true"
       apply_no_radius="true"
       apply_with_radius="true"
       only_selected="false"
       hide_knots="false" />
    <inkscape:path-effect
       effect="fillet_chamfer"
       id="path-effect2382"
       is_visible="true"
       lpeversion="1"
       nodesatellites_param="F,0,0,1,0,2,0,1 @ F,0,0,1,0,2,0,1 @ F,0,0,1,0,2,0,1 @ F,0,0,1,0,2,0,1 @ F,0,0,1,0,2,0,1 @ F,0,0,1,0,2,0,1"
       unit="px"
       method="auto"
       mode="F"
       radius="2"
       chamfer_steps="1"
       flexible="false"
       use_knot_distance="true"
       apply_no_radius="true"
       apply_with_radius="true"
       only_selected="false"
       hide_knots="false" />
    <inkscape:path-effect
       effect="fillet_chamfer"
       id="path-effect1051"
       is_visible="true"
       lpeversion="1"
       nodesatellites_param="F,0,0,1,0,2,0,1 @ F,0,0,1,0,2,0,1 @ F,0,0,1,0,2,0,1 @ F,0,0,1,0,2,0,1 @ F,0,0,1,0,2,0,1 @ F,0,0,1,0,2,0,1"
       unit="px"
       method="auto"
       mode="F"
       radius="2"
       chamfer_steps="1"
       flexible="false"
       use_knot_distance="true"
       apply_no_radius="true"
       apply_with_radius="true"
       only_selected="false"
       hide_knots="false" />
    <inkscape:path-effect
       effect="fillet_chamfer"
       id="path-effect1049"
       is_visible="true"
       lpeversion="1"
       nodesatellites_param="F,0,0,1,0,2,0,1 @ F,0,0,1,0,2,0,1 @ F,0,0,1,0,2,0,1 @ F,0,0,1,0,2,0,1"
       unit="px"
       method="auto"
       mode="F"
       radius="2"
       chamfer_steps="1"
       flexible="false"
       use_knot_distance="true"
       apply_no_radius="true"
       apply_with_radius="true"
       only_selected="false"
       hide_knots="false" />
    <inkscape:path-effect
       effect="fillet_chamfer"
       id="path-effect1047"
       is_visible="true"
       lpeversion="1"
       nodesatellites_param="F,0,0,1,0,2,0,1 @ F,0,0,1,0,2,0,1 @ F,0,0,1,0,2,0,1 @ F,0,0,1,0,2,0,1"
       unit="px"
       method="auto"
       mode="F"
       radius="2"
       chamfer_steps="1"
       flexible="false"
       use_knot_distance="true"
       apply_no_radius="true"
       apply_with_radius="true"
       only_selected="false"
       hide_knots="false" />
    <inkscape:path-effect
       effect="fillet_chamfer"
       id="path-effect1045"
       is_visible="true"
       lpeversion="1"
       nodesatellites_param="F,0,0,1,0,2,0,1 @ F,0,0,1,0,2,0,1 @ F,0,0,1,0,2,0,1 @ F,0,0,1,0,2,0,1"
       unit="px"
       method="auto"
       mode="F"
       radius="2"
       chamfer_steps="1"
       flexible="false"
       use_knot_distance="true"
       apply_no_radius="true"
       apply_with_radius="true"
       only_selected="false"
       hide_knots="false" />
  </defs>
  <g
     inkscape:label="Warstwa 1"
     inkscape:groupmode="layer"
     id="layer1">
    <path
       style="fill:#ffffff;fill-opacity:1;stroke-width:2;stroke-linecap:round;stroke-linejoin:round;stroke-dashoffset:160;paint-order:markers stroke fill"
       d="M 65.732051,0.99999994 117.69358,31 a 3.4641015,3.4641015 59.999999 0 1 1.73205,3 v 60 a 3.4641015,3.4641015 120 0 1 -1.73205,3 l -51.961529,30 a 3.4641017,3.4641017 9.4000886e-7 0 1 -3.464102,0 L 10.306425,97 A 3.4641016,3.4641016 60 0 1 8.5743742,94 V 34 A 3.4641016,3.4641016 120 0 1 10.306425,31 L 62.267949,1 a 3.4641017,3.4641017 180 0 1 3.464102,-6e-8 z"
       id="path2380"
       inkscape:path-effect="#path-effect2382"
       inkscape:original-d="m 64,0 55.42563,32 V 96 L 64,128 8.5743742,96 V 32 Z" />
    <path
       style="fill:#f6f5f4;fill-opacity:0.999168;stroke:none;stroke-linecap:round;stroke-linejoin:round"
       d="M 62.267949,25 31.091035,43 a 1.1547005,1.1547005 90 0 0 0,2 l 31.176914,18 a 3.4641016,3.4641016 0 0 0 3.464102,0 L 96.908965,45 a 1.1547005,1.1547005 90 0 0 0,-2 L 65.732051,25 a 3.4641016,3.4641016 0 0 0 -3.464102,0 z"
       id="path1524"
       inkscape:path-effect="#path-effect1045"
       inkscape:original-d="M 64,24 29.358984,44 64,64 98.641016,44 Z" />
    <path
       style="fill:#ffffff;fill-opacity:0.999168;stroke:none;stroke-linecap:round;stroke-linejoin:round"
       d="m 29.358984,46 v 36 a 3.4641016,3.4641016 60 0 0 1.732051,3 l 31.176914,18 A 1.1547005,1.1547005 150 0 0 64,102 V 66 A 3.4641016,3.4641016 60 0 0 62.267949,63 L 31.091035,45 a 1.1547005,1.1547005 150 0 0 -1.732051,1 z"
       id="path2125"
       inkscape:path-effect="#path-effect1049"
       inkscape:original-d="M 29.358984,44 V 84 L 64,104 V 64 Z" />
    <path
       style="fill:#deddda;fill-opacity:0.999168;stroke:none;stroke-linecap:round;stroke-linejoin:round"
       d="m 98.641016,46 v 36 a 3.4641016,3.4641016 120 0 1 -1.732051,3 L 65.732051,103 A 1.1547005,1.1547005 30 0 1 64,102 V 66 a 3.4641016,3.4641016 120 0 1 1.732051,-3 L 96.908965,45 a 1.1547005,1.1547005 30 0 1 1.732051,1 z"
       id="path2240"
       inkscape:path-effect="#path-effect1047"
       inkscape:original-d="M 98.641016,44 V 84 L 64,104 V 64 Z" />
    <path
       style="fill:#ed333b;fill-opacity:1;stroke-width:2;stroke-linecap:round;stroke-linejoin:round;stroke-dashoffset:160;paint-order:markers stroke fill"
       d="m 10.306425,33 17.320508,10 a 3.4641016,3.4641016 60 0 1 1.732051,3 v 36 a 3.4641016,3.4641016 60 0 0 1.732051,3 l 31.176914,18 A 3.4641016,3.4641016 60 0 1 64,106 v 20 a 1.1547005,1.1547005 150 0 1 -1.732051,1 L 10.306425,97 A 3.4641016,3.4641016 60 0 1 8.5743742,94 V 34 a 1.1547005,1.1547005 150 0 1 1.7320508,-1 z"
       id="path3230"
       inkscape:path-effect="#path-effect16896"
       inkscape:original-d="M 8.5743742,32 29.358984,44 V 84 L 64,104 v 24 L 8.5743742,96 Z" />
    <path
       style="opacity:0.5;fill:#a51d2d;fill-opacity:1;stroke-width:2;stroke-linecap:round;stroke-linejoin:round;stroke-dashoffset:160;paint-order:markers stroke fill"
       d="M 10.306425,95 27.626933,85 a 3.4641016,3.4641016 120 0 0 1.732051,-3 V 46 A 3.4641016,3.4641016 60 0 0 27.626933,43 L 10.306425,33 a 1.1547005,1.1547005 150 0 0 -1.7320508,1 v 60 a 1.1547005,1.1547005 30 0 0 1.7320508,1 z"
       id="path16975"
       inkscape:path-effect="#path-effect16977"
       inkscape:original-d="M 8.5743742,96 29.358984,84 V 44 L 8.5743742,32 Z" />
    <path
       style="opacity:0.25;mix-blend-mode:normal;fill:#c000c0;fill-opacity:1;stroke-width:2;stroke-linecap:round;stroke-linejoin:round;stroke-dashoffset:160;paint-order:markers stroke fill"
       d="m 10.306425,33 17.320507,10 a 3.4641017,3.4641017 60.000001 0 1 1.732051,3 l 0,36 a 3.4641016,3.4641016 60 0 0 1.732051,3 l 31.176914,18 a 3.4641016,3.4641016 60 0 1 1.732051,3 v 20 a 1.1547005,1.1547005 150 0 1 -1.732051,1 L 10.306425,97 A 3.4641016,3.4641016 60 0 1 8.5743742,94 V 34 a 1.1547005,1.1547005 150 0 1 1.7320508,-1 z"
       id="path3360"
       inkscape:path-effect="#path-effect16900"
       inkscape:original-d="M 8.5743742,32 29.358983,44 v 40 l 34.641016,20 v 24 L 8.5743742,96 Z" />
    <path
       style="fill:#2ec27e;fill-opacity:1;stroke-width:2;stroke-linecap:round;stroke-linejoin:round;stroke-dashoffset:160;paint-order:markers stroke fill"
       d="m 10.306425,33 17.320508,10 a 3.4641016,3.4641016 180 0 0 3.464102,0 L 62.267949,25 a 3.4641016,3.4641016 0 0 1 3.464102,0 l 31.176914,18 a 3.464102,3.464102 2.6260561e-6 0 0 3.464105,0 l 17.32051,-10 a 1.1547004,1.1547004 90.000002 0 0 0,-2 L 65.732051,0.99999994 A 3.4641017,3.4641017 180 0 0 62.267949,1 L 10.306425,31 a 1.1547005,1.1547005 90 0 0 0,2 z"
       id="path2388"
       inkscape:path-effect="#path-effect2459"
       inkscape:original-d="M 8.5743742,32 29.358984,44 64,24 98.641016,44 119.42563,32 64,0 Z" />
    <path
       style="fill:#57e389;fill-opacity:1;stroke-width:2;stroke-linecap:round;stroke-linejoin:round;stroke-dashoffset:160;paint-order:markers stroke fill"
       d="M 64,22 V 2 A 1.1547006,1.1547006 150 0 1 65.732051,0.99999994 L 117.69358,31 a 1.1547004,1.1547004 90.000002 0 1 0,2 l -17.32051,10 a 3.464102,3.464102 2.626056e-6 0 1 -3.464105,0 L 65.732051,25 A 3.4641016,3.4641016 60 0 1 64,22 Z"
       id="path1270"
       inkscape:path-effect="#path-effect2386"
       inkscape:original-d="M 64,24 V 0 l 55.42563,32 -20.784614,12 z" />
    <path
       style="opacity:0.5;fill:#f6d32d;fill-opacity:1;stroke-width:2;stroke-linecap:round;stroke-linejoin:round;stroke-dashoffset:160;paint-order:markers stroke fill"
       d="M 10.306422,33 27.62693,43 a 3.4641016,3.4641016 180 0 0 3.464102,0 L 62.267946,25 a 3.4641016,3.4641016 0 0 1 3.464102,0 l 31.176914,18 a 3.4641022,3.4641022 4.4165485e-6 0 0 3.464098,0 l 17.32052,-10 a 1.1547003,1.1547003 90.000003 0 0 0,-2 L 65.732048,0.9999999 A 3.4641018,3.4641018 180 0 0 62.267946,1 L 10.306422,31 a 1.1547005,1.1547005 90 0 0 0,2 z"
       id="path16902"
       inkscape:path-effect="#path-effect16906"
       inkscape:original-d="M 8.5743711,32 29.358981,44 63.999997,24 98.641013,44 119.42563,32 63.999997,0 Z" />
    <path
       style="opacity:1;fill:#1a5fb4;fill-opacity:1;stroke-width:2;stroke-linecap:round;stroke-linejoin:round;stroke-dashoffset:160;paint-order:markers stroke fill"
       d="m 98.641016,46 v 36 a 3.4641016,3.4641016 120 0 1 -1.732051,3 L 65.732051,103 A 3.4641016,3.4641016 120 0 0 64,106 v 20 a 1.1547006,1.1547006 30.000001 0 0 1.732051,1 L 117.69358,97 a 3.4641015,3.4641015 120 0 0 1.73205,-3 V 34 a 1.1547007,1.1547007 30.000003 0 0 -1.73205,-1 l -17.32051,10 a 3.4641013,3.4641013 120 0 0 -1.732054,3 z"
       id="path5998"
       inkscape:path-effect="#path-effect16908"
       inkscape:original-d="M 98.641016,44 V 84 L 64,104 v 24 L 119.42563,96 V 32 Z" />
    <path
       style="fill:#3584e4;fill-opacity:0.999168;stroke:none;stroke-linecap:round;stroke-linejoin:round"
       d="m 64,126 v -20 a 3.4641016,3.4641016 120 0 1 1.732051,-3 L 96.908965,85 a 3.464102,3.464102 180 0 1 3.464105,0 l 17.32051,10 a 1.1547004,1.1547004 89.999998 0 1 0,2 L 65.732051,127 A 1.1547006,1.1547006 30.000001 0 1 64,126 Z"
       id="path1608"
       inkscape:path-effect="#path-effect16910"
       inkscape:original-d="M 64,128 V 104 L 98.641016,84 119.42563,96 Z" />
  </g>
</svg>
