<?xml version="1.0" encoding="UTF-8" standalone="no"?>
<!-- Generator: Adobe Illustrator 23.0.1, SVG Export Plug-In . SVG Version: 6.00 Build 0)  -->

<svg
   version="1.1"
   id="Livello_1"
   x="0px"
   y="0px"
   viewBox="0 0 128 128"
   enable-background="new 0 0 240.1 240.1"
   xml:space="preserve"
   sodipodi:docname="org.telegram.desktop.svg"
   width="128"
   height="128"
   inkscape:version="1.2.1 (9c6d41e410, 2022-07-14)"
   xmlns:inkscape="http://www.inkscape.org/namespaces/inkscape"
   xmlns:sodipodi="http://sodipodi.sourceforge.net/DTD/sodipodi-0.dtd"
   xmlns="http://www.w3.org/2000/svg"
   xmlns:svg="http://www.w3.org/2000/svg"><defs
   id="defs13">
	
		<linearGradient
   id="Oval_1_"
   gradientUnits="userSpaceOnUse"
   x1="-838.04102"
   y1="660.58099"
   x2="-838.04102"
   y2="660.34271"
   gradientTransform="matrix(499.58362,0,0,-499.58362,418735.52,330019.45)">
		<stop
   offset="0"
   style="stop-color:#62a0ea;stop-opacity:1"
   id="stop16185" />
		<stop
   offset="1"
   style="stop-color:#3584e4;stop-opacity:1"
   id="stop4" />
	</linearGradient>
	
	
</defs><sodipodi:namedview
   id="namedview11"
   pagecolor="#505050"
   bordercolor="#ffffff"
   borderopacity="1"
   inkscape:showpageshadow="0"
   inkscape:pageopacity="0"
   inkscape:pagecheckerboard="1"
   inkscape:deskcolor="#505050"
   showgrid="false"
   inkscape:zoom="5.6568543"
   inkscape:cx="63.816387"
   inkscape:cy="66.202872"
   inkscape:current-layer="Livello_1" />
<circle
   id="Oval"
   fill-rule="evenodd"
   clip-rule="evenodd"
   fill="url(#Oval_1_)"
   cx="64"
   cy="64"
   r="60"
   style="fill:url(#Oval_1_);stroke-width:1" /><g
   id="g20990"
   style="opacity:0.5;mix-blend-mode:soft-light;fill:#000000"><path
     d="M 31.1274,63.3505 C 48.6128,55.7569 60.2531,50.7111 66.0982,48.2631 v 0 c 16.6362,-6.9442 20.1333,-8.1432 22.3814,-8.1932 v 0 c 0.4996,0 1.5987,0.1 2.348,0.6995 v 0 c 0.5995,0.4995 0.7494,1.149 0.8493,1.6486 v 0 c 0.0999,0.4996 0.1999,1.5487 0.0999,2.348 v 0 c -0.8992,9.4921 -4.796,32.5229 -6.7943,43.1141 v 0 c -0.8493,4.4962 -2.4979,5.995 -4.0966,6.1449 v 0 c -3.4971,0.2997 -6.1449,-2.2981 -9.4921,-4.4963 v 0 C 66.0982,86.0816 63.1507,83.9334 58.005,80.5362 v 0 c -5.9451,-3.8967 -2.0983,-6.045 1.2989,-9.542 v 0 C 60.2031,70.0949 75.5404,56.1066 75.8401,54.8576 v 0 c 0.05,-0.1499 0.05,-0.7494 -0.2997,-1.0491 v 0 c -0.3497,-0.2998 -0.8493,-0.1998 -1.249,-0.0999 v 0 c -0.5495,0.0999 -8.9425,5.6952 -25.2789,16.736 v 0 c -2.398,1.6487 -4.5462,2.448 -6.4946,2.398 v 0 c -2.1482,-0.05 -6.2448,-1.199 -9.3422,-2.1981 v 0 c -3.7469,-1.199 -6.7444,-1.8485 -6.4946,-3.9467 v 0 c 0.1499,-1.0991 1.6486,-2.1982 4.4463,-3.3473 z"
     style="fill:#000000;stroke-width:1"
     id="path20954" /><path
     d="M 31.1274,63.4682 C 48.6128,55.8745 60.2531,50.8287 66.0982,48.3808 l 10e-5,-1e-4 c 16.6361,-6.9442 20.1332,-8.1432 22.3813,-8.1931 v 0 c 0.4996,0 1.5987,0.0999 2.348,0.6994 h 10e-5 c 0.5994,0.4996 0.7493,1.1491 0.8492,1.6486 v 10e-5 c 0.0999,0.4996 0.1999,1.5487 0.0999,2.348 v 0 c -0.8992,9.4922 -4.796,32.5229 -6.7943,43.114 v 1e-4 c -0.8493,4.4962 -2.4979,5.9949 -4.0966,6.1448 v 0 c -3.4971,0.2997 -6.1449,-2.2981 -9.4921,-4.4962 v -1e-4 C 66.0982,86.1992 63.1507,84.051 58.005,80.6539 l -1e-4,-10e-5 c -5.9449,-3.8967 -2.0982,-6.0449 1.299,-9.542 v 0 C 60.2036,70.2122 75.5404,56.2242 75.8401,54.9753 v -10e-5 c 0.05,-0.1499 0.05,-0.7493 -0.2997,-1.0491 h -1e-4 c -0.3497,-0.2997 -0.8492,-0.1998 -1.2489,-0.0999 v 0 c -0.55,0.1003 -8.943,5.6956 -25.2789,16.7361 v 0 c -2.398,1.6486 -4.5462,2.4479 -6.4946,2.398 h -10e-5 c -2.1482,-0.05 -6.2447,-1.199 -9.3421,-2.1982 h -10e-5 c -3.7468,-1.199 -6.7443,-1.8484 -6.4945,-3.9467 v 0 c 0.1499,-1.0991 1.6487,-2.1982 4.4463,-3.3472 z"
     style="fill:#000000;stroke-width:1"
     id="path20956" /><path
     d="M 31.1274,63.5858 C 48.6128,55.9922 60.2531,50.9464 66.0982,48.4984 h 10e-5 c 16.6361,-6.9442 20.1332,-8.1432 22.3813,-8.1932 h 10e-5 c 0.4996,1e-4 1.5986,0.1 2.3479,0.6995 h 10e-5 c 0.5994,0.4996 0.7493,1.149 0.8492,1.6486 v 10e-5 c 0.0999,0.4996 0.1999,1.5486 0.0999,2.3479 v 10e-5 c -0.8993,9.4922 -4.796,32.5229 -6.7943,43.114 v 1e-4 c -0.8493,4.4962 -2.4979,5.9949 -4.0966,6.1448 h -1e-4 C 77.3888,94.56 74.741,91.9622 71.3938,89.764 v 0 C 66.0982,86.3169 63.1507,84.1687 58.005,80.7715 h -1e-4 c -5.9449,-3.8968 -2.0982,-6.045 1.299,-9.542 l 1e-4,-1e-4 c 0.9,-0.9 16.2364,-14.8876 16.5361,-16.1365 l 10e-5,-1e-4 c 0.0499,-0.15 0.0498,-0.7493 -0.2998,-1.049 l -1e-4,-10e-5 C 75.1906,53.744 74.691,53.844 74.2914,53.9439 h -10e-5 c -0.5504,0.1005 -8.9434,5.6959 -25.2788,16.736 l -1e-4,1e-4 c -2.398,1.6486 -4.5461,2.4479 -6.4945,2.3979 h -10e-5 c -2.1482,-0.05 -6.2448,-1.199 -9.3421,-2.1981 h -10e-5 c -3.7468,-1.199 -6.7443,-1.8485 -6.4945,-3.9467 v -10e-5 c 0.1499,-1.0991 1.6487,-2.1981 4.4463,-3.3472 z"
     style="fill:#000000;stroke-width:1"
     id="path20958" /><path
     d="M 31.1274,63.7035 C 48.6128,56.1098 60.2531,51.064 66.0982,48.6161 l 2e-4,-1e-4 c 16.636,-6.9442 20.1331,-8.1432 22.3812,-8.1931 h 10e-5 c 0.4997,0 1.5986,0.1 2.3479,0.6994 l 10e-5,10e-5 c 0.5994,0.4995 0.7493,1.149 0.8492,1.6485 l 1e-4,2e-4 c 0.0998,0.4996 0.1997,1.5486 0.0998,2.3479 v 1e-4 c -0.8993,9.4922 -4.796,32.5228 -6.7943,43.1139 v 2e-4 c -0.8493,4.4961 -2.4979,5.9949 -4.0966,6.1447 h -1e-4 c -3.497,0.2997 -6.1448,-2.2981 -9.492,-4.4962 l -1e-4,-10e-5 C 66.0982,86.4345 63.1507,84.2863 58.005,80.8892 l -1e-4,-1e-4 c -5.9449,-3.8967 -2.0982,-6.0449 1.299,-9.542 l 1e-4,-1e-4 C 60.2045,70.4467 75.5404,56.4595 75.8401,55.2106 l 10e-5,-2e-4 c 0.0499,-0.1501 0.0498,-0.7493 -0.2998,-1.049 h -1e-4 C 75.1906,53.8617 74.691,53.9616 74.2914,54.0615 l -10e-5,10e-5 c -0.5509,0.1008 -8.9439,5.6961 -25.2788,16.736 h -1e-4 c -2.398,1.6486 -4.5462,2.4479 -6.4945,2.398 h -2e-4 c -2.1482,-0.0501 -6.2447,-1.199 -9.342,-2.1982 h -2e-4 c -3.7468,-1.199 -6.7442,-1.8485 -6.4944,-3.9467 v -1e-4 c 0.15,-1.0991 1.6487,-2.1981 4.4463,-3.3471 z"
     style="fill:#000000;stroke-width:1"
     id="path20960" /><path
     d="M 31.1274,63.8211 C 48.6128,56.2275 60.2531,51.1817 66.0982,48.7337 l 2e-4,-10e-5 c 16.636,-6.9441 20.1331,-8.1431 22.3812,-8.1931 h 2e-4 c 0.4996,10e-5 1.5985,0.1 2.3478,0.6995 h 10e-5 c 0.5995,0.4996 0.7493,1.149 0.8492,1.6486 l 1e-4,2e-4 c 0.0998,0.4996 0.1997,1.5486 0.0998,2.3478 v 2e-4 c -0.8993,9.4923 -4.796,32.5228 -6.7943,43.1139 v 2e-4 c -0.8494,4.4961 -2.4979,5.9948 -4.0966,6.1447 h -1e-4 c -3.497,0.2996 -6.1448,-2.2981 -9.492,-4.4963 l -1e-4,-1e-4 C 66.0982,86.5522 63.1507,84.404 58.005,81.0068 l -2e-4,-1e-4 C 52.06,77.11 55.9068,74.9618 59.3039,71.4648 l 2e-4,-2e-4 c 0.9008,-0.9007 16.2363,-14.8875 16.536,-16.1364 l 10e-5,-2e-4 c 0.0499,-0.1502 0.0498,-0.7493 -0.2998,-1.0489 l -2e-4,-10e-5 C 75.1905,53.9794 74.691,54.0793 74.2914,54.1792 h -2e-4 c -0.5513,0.1012 -8.9442,5.6965 -25.2787,16.736 l -1e-4,1e-4 c -2.398,1.6486 -4.5462,2.4479 -6.4945,2.3979 h -2e-4 c -2.1483,-0.05 -6.2447,-1.199 -9.342,-2.1981 l -2e-4,-1e-4 c -3.7468,-1.1989 -6.7442,-1.8484 -6.4944,-3.9466 v -2e-4 c 0.15,-1.099 1.6488,-2.1981 4.4463,-3.3471 z"
     style="fill:#000000;stroke-width:1"
     id="path20962" /><path
     d="M 31.1274,63.9388 C 48.6128,56.3451 60.2531,51.2993 66.0982,48.8514 l 3e-4,-10e-5 c 16.6359,-6.9442 20.133,-8.1432 22.3811,-8.1931 h 2e-4 c 0.4997,0 1.5986,0.1 2.3478,0.6994 l 2e-4,1e-4 c 0.5994,0.4996 0.7492,1.149 0.8491,1.6485 l 1e-4,2e-4 c 0.0999,0.4997 0.1997,1.5487 0.0998,2.3479 v 2e-4 c -0.8993,9.4923 -4.796,32.5228 -6.7943,43.1138 v 3e-4 c -0.8494,4.4961 -2.498,5.9948 -4.0966,6.1446 h -2e-4 c -3.497,0.2997 -6.1447,-2.2981 -9.4919,-4.4962 l -1e-4,-1e-4 C 66.0982,86.6698 63.1506,84.5216 58.005,81.1245 l -2e-4,-1e-4 c -5.9448,-3.8967 -2.098,-6.0449 1.2991,-9.542 l 2e-4,-2e-4 c 0.9012,-0.901 16.2363,-14.8875 16.536,-16.1363 l 10e-5,-3e-4 c 0.0499,-0.1503 0.0497,-0.7493 -0.2998,-1.0489 l -2e-4,-1e-4 C 75.1905,54.097 74.691,54.1969 74.2914,54.2968 l -2e-4,1e-4 c -0.5518,0.1014 -8.9447,5.6968 -25.2787,16.736 l -2e-4,1e-4 c -2.3979,1.6485 -4.5461,2.4478 -6.4944,2.3979 h -2e-4 c -2.1483,-0.0501 -6.2447,-1.199 -9.342,-2.1982 h -2e-4 c -3.7468,-1.199 -6.7442,-1.8485 -6.4944,-3.9467 v -2e-4 c 0.1501,-1.099 1.6488,-2.198 4.4463,-3.347 z"
     style="fill:#000000;stroke-width:1"
     id="path20964" /><path
     d="M 31.1274,64.0564 C 48.6128,56.4628 60.2531,51.417 66.0982,48.969 l 3e-4,-1e-4 c 16.6359,-6.9441 20.133,-8.1431 22.3811,-8.1931 h 2e-4 c 0.4998,1e-4 1.5986,0.1001 2.3478,0.6995 l 2e-4,1e-4 c 0.5994,0.4996 0.7492,1.1489 0.8491,1.6485 l 1e-4,2e-4 c 0.0999,0.4997 0.1997,1.5486 0.0998,2.3478 v 3e-4 c -0.8993,9.4923 -4.796,32.5227 -6.7943,43.1138 l -1e-4,3e-4 c -0.8493,4.496 -2.4979,5.9947 -4.0965,6.1446 h -2e-4 c -3.497,0.2996 -6.1447,-2.2982 -9.4919,-4.4963 l -2e-4,-1e-4 C 66.0982,86.7874 63.1506,84.6392 58.005,81.2421 l -2e-4,-10e-5 c -5.9448,-3.8967 -2.098,-6.0449 1.2991,-9.5419 l 2e-4,-3e-4 c 0.9017,-0.9014 16.2363,-14.8874 16.536,-16.1363 l 10e-5,-3e-4 c 0.0499,-0.1504 0.0497,-0.7493 -0.2998,-1.0488 l -2e-4,-2e-4 C 75.1905,54.2147 74.691,54.3146 74.2914,54.4145 h -3e-4 c -0.5521,0.1018 -8.9451,5.6971 -25.2786,16.736 l -2e-4,1e-4 c -2.3979,1.6486 -4.5461,2.4479 -6.4944,2.3979 h -3e-4 c -2.1483,-0.0501 -6.2446,-1.199 -9.3419,-2.1981 l -3e-4,-10e-5 c -3.7467,-1.199 -6.7441,-1.8484 -6.4943,-3.9466 v -3e-4 c 0.1501,-1.099 1.6489,-2.198 4.4463,-3.3469 z"
     style="fill:#000000;stroke-width:1"
     id="path20966" /><path
     d="M 31.1274,64.1741 C 48.6128,56.5804 60.2531,51.5346 66.0982,49.0867 l 4e-4,-2e-4 c 16.6358,-6.9441 20.1329,-8.143 22.381,-8.193 h 3e-4 c 0.4997,0 1.5985,0.1 2.3477,0.6994 l 2e-4,2e-4 c 0.5994,0.4995 0.7492,1.1489 0.8491,1.6484 l 1e-4,3e-4 c 0.0999,0.4997 0.1997,1.5486 0.0998,2.3478 v 3e-4 c -0.8993,9.4924 -4.796,32.5227 -6.7943,43.1137 l -1e-4,4e-4 c -0.8493,4.496 -2.4979,5.9947 -4.0965,6.1445 h -3e-4 c -3.4969,0.2996 -6.1447,-2.2981 -9.4918,-4.4962 l -2e-4,-2e-4 c -5.2954,-3.447 -8.243,-5.5952 -13.3886,-8.9923 l -2e-4,-2e-4 C 52.06,77.463 55.9068,75.3148 59.3039,71.8177 l 3e-4,-3e-4 C 60.2062,70.9157 75.5404,56.93 75.8401,55.6812 l 10e-5,-4e-4 c 0.0499,-0.1505 0.0496,-0.7492 -0.2998,-1.0488 l -2e-4,-10e-5 C 75.1905,54.3323 74.691,54.4322 74.2914,54.5321 l -3e-4,1e-4 c -0.5526,0.1021 -8.9455,5.6974 -25.2786,16.736 l -2e-4,1e-4 c -2.3979,1.6486 -4.5461,2.4479 -6.4944,2.3979 h -3e-4 C 40.3693,73.6161 36.2729,72.4671 33.1757,71.468 l -3e-4,-1e-4 C 29.4286,70.269 26.4313,69.6195 26.6811,67.5213 v -3e-4 c 0.1502,-1.099 1.6489,-2.198 4.4463,-3.3469 z"
     style="fill:#000000;stroke-width:1"
     id="path20968" /><path
     d="M 31.1274,64.2917 C 48.6128,56.6981 60.2531,51.6523 66.0982,49.2043 l 4e-4,-1e-4 c 16.6358,-6.9441 20.1329,-8.1431 22.381,-8.1931 h 3e-4 c 0.4998,1e-4 1.5985,0.1001 2.3477,0.6995 l 2e-4,1e-4 c 0.5994,0.4996 0.7492,1.149 0.8491,1.6485 l 1e-4,3e-4 c 0.0999,0.4998 0.1997,1.5486 0.0998,2.3477 v 4e-4 C 90.8775,55.2 86.9808,78.2303 84.9825,88.8213 l -1e-4,4e-4 c -0.8493,4.4959 -2.4979,5.9946 -4.0965,6.1445 h -3e-4 c -3.4969,0.2996 -6.1447,-2.2982 -9.4918,-4.4963 l -2e-4,-10e-5 C 66.0982,87.0227 63.1506,84.8745 58.005,81.4774 l -3e-4,-2e-4 C 52.06,77.5806 55.9068,75.4324 59.3039,71.9354 l 3e-4,-3e-4 C 60.2067,71.0329 75.5404,57.0476 75.8401,55.7988 l 2e-4,-4e-4 c 0.0498,-0.1506 0.0495,-0.7492 -0.2999,-1.0487 l -3e-4,-2e-4 C 75.1904,54.45 74.691,54.5499 74.2914,54.6498 l -4e-4,1e-4 c -0.553,0.1024 -8.9459,5.6977 -25.2785,16.7359 l -2e-4,2e-4 c -2.3979,1.6485 -4.5461,2.4478 -6.4944,2.3978 h -4e-4 c -2.1483,-0.0501 -6.2446,-1.199 -9.3418,-2.1981 l -4e-4,-1e-4 c -3.7467,-1.199 -6.744,-1.8484 -6.4942,-3.9466 v -4e-4 c 0.1502,-1.099 1.6489,-2.1979 4.4463,-3.3468 z"
     style="fill:#000000;stroke-width:1"
     id="path20970" /><path
     d="M 31.1274,64.4094 C 48.6128,56.8157 60.2531,51.7699 66.0982,49.322 l 5e-4,-2e-4 c 16.6357,-6.9441 20.1328,-8.143 22.3809,-8.193 h 4e-4 c 0.4997,0 1.5985,0.1001 2.3476,0.6994 l 3e-4,2e-4 c 0.5993,0.4996 0.7491,1.1489 0.849,1.6484 l 1e-4,4e-4 c 0.0999,0.4998 0.1997,1.5485 0.0998,2.3477 v 4e-4 c -0.8993,9.4924 -4.796,32.5227 -6.7943,43.1136 l -1e-4,5e-4 c -0.8493,4.4959 -2.4979,5.9946 -4.0965,6.1444 l -3e-4,1e-4 c -3.4969,0.2995 -6.1447,-2.2982 -9.4918,-4.4963 l -2e-4,-2e-4 c -5.2955,-3.447 -8.243,-5.5952 -13.3886,-8.9923 l -3e-4,-2e-4 C 52.0601,77.6982 55.9068,75.55 59.3039,72.053 l 3e-4,-3e-4 C 60.2071,71.1502 75.5404,57.1653 75.8401,55.9165 l 2e-4,-5e-4 c 0.0498,-0.1506 0.0495,-0.7492 -0.2999,-1.0487 l -3e-4,-2e-4 C 75.1904,54.5676 74.691,54.6675 74.2914,54.7674 l -4e-4,10e-5 c -0.5535,0.1027 -8.9464,5.698 -25.2785,16.736 l -3e-4,2e-4 c -2.3979,1.6485 -4.546,2.4478 -6.4943,2.3978 h -4e-4 c -2.1484,-0.0502 -6.2446,-1.1991 -9.3418,-2.1982 l -4e-4,-1e-4 c -3.7467,-1.1989 -6.744,-1.8484 -6.4942,-3.9466 v -4e-4 c 0.1502,-1.099 1.649,-2.1979 4.4463,-3.3468 z"
     style="fill:#000000;stroke-width:1"
     id="path20972" /><path
     d="M 31.1274,64.527 C 48.6128,56.9334 60.2531,51.8876 66.0982,49.4396 l 5e-4,-2e-4 c 16.6357,-6.944 20.1328,-8.143 22.3809,-8.193 h 4e-4 c 0.4998,10e-5 1.5985,0.1001 2.3476,0.6995 l 3e-4,2e-4 c 0.5993,0.4995 0.7491,1.1489 0.849,1.6484 l 1e-4,4e-4 c 0.0999,0.4998 0.1997,1.5485 0.0998,2.3476 v 5e-4 c -0.8994,9.4925 -4.796,32.5226 -6.7943,43.1136 l -1e-4,5e-4 c -0.8493,4.4959 -2.4979,5.9945 -4.0965,6.1444 h -4e-4 c -3.4969,0.2995 -6.1446,-2.2982 -9.4917,-4.4963 l -3e-4,-2e-4 C 66.0981,87.258 63.1506,85.1098 58.005,81.7127 l -3e-4,-2e-4 c -5.9446,-3.8966 -2.0979,-6.0448 1.2992,-9.5418 l 4e-4,-4e-4 C 60.2076,71.2674 75.5404,57.2829 75.8401,56.0341 l 2e-4,-5e-4 c 0.0498,-0.1507 0.0494,-0.7492 -0.2999,-1.0486 l -3e-4,-3e-4 C 75.1904,54.6853 74.691,54.7852 74.2914,54.8851 l -5e-4,10e-5 c -0.5539,0.103 -8.9467,5.6983 -25.2784,16.7359 l -3e-4,2e-4 c -2.3979,1.6485 -4.546,2.4478 -6.4943,2.3978 h -5e-4 C 40.3691,73.969 36.2729,72.8201 33.1757,71.821 l -4e-4,-1e-4 c -3.7467,-1.199 -6.744,-1.8485 -6.4942,-3.9466 v -5e-4 c 0.1503,-1.0989 1.649,-2.1979 4.4463,-3.3467 z"
     style="fill:#000000;stroke-width:1"
     id="path20974" /><path
     d="M 31.1274,64.6447 C 48.6128,57.051 60.2531,52.0052 66.0982,49.5573 l 5e-4,-2e-4 c 16.6357,-6.9441 20.1328,-8.143 22.3809,-8.193 h 5e-4 c 0.4998,10e-5 1.5984,0.1001 2.3475,0.6994 l 3e-4,2e-4 c 0.5993,0.4996 0.7491,1.1489 0.849,1.6484 l 1e-4,5e-4 c 0.0999,0.4998 0.1997,1.5485 0.0998,2.3476 v 5e-4 c -0.8994,9.4925 -4.796,32.5226 -6.7943,43.1135 l -1e-4,6e-4 c -0.8493,4.4958 -2.4979,5.9945 -4.0965,6.1443 l -4e-4,10e-5 c -3.4969,0.2995 -6.1446,-2.2982 -9.4917,-4.4963 l -3e-4,-2e-4 C 66.0981,87.3757 63.1506,85.2275 58.005,81.8304 l -4e-4,-3e-4 c -5.9445,-3.8966 -2.0978,-6.0448 1.2993,-9.5418 l 4e-4,-4e-4 C 60.208,71.3847 75.5404,57.4005 75.8401,56.1518 l 2e-4,-6e-4 c 0.0498,-0.1508 0.0494,-0.7492 -0.2999,-1.0486 l -4e-4,-2e-4 C 75.1903,54.803 74.6909,54.9028 74.2914,55.0027 l -5e-4,1e-4 c -0.5543,0.1034 -8.9472,5.6987 -25.2784,16.736 l -3e-4,2e-4 c -2.3979,1.6485 -4.546,2.4478 -6.4943,2.3978 h -5e-4 C 40.369,74.0866 36.2728,72.9377 33.1757,71.9386 l -5e-4,-10e-5 c -3.7466,-1.1989 -6.7439,-1.8484 -6.4941,-3.9466 l 10e-5,-5e-4 c 0.1502,-1.0989 1.649,-2.1978 4.4462,-3.3467 z"
     style="fill:#000000;stroke-width:1"
     id="path20976" /><path
     d="M 31.1274,64.7623 C 48.6128,57.1687 60.2531,52.1229 66.0982,49.6749 l 6e-4,-2e-4 c 16.6357,-6.944 20.1327,-8.143 22.3808,-8.193 h 5e-4 c 0.4998,1e-4 1.5984,0.1002 2.3475,0.6995 l 3e-4,2e-4 c 0.5993,0.4996 0.7491,1.1489 0.849,1.6484 l 1e-4,5e-4 c 0.0999,0.4998 0.1997,1.5485 0.0998,2.3475 v 6e-4 c -0.8994,9.4925 -4.796,32.5226 -6.7943,43.1135 l -1e-4,6e-4 c -0.8493,4.4958 -2.4979,5.9944 -4.0965,6.1443 h -4e-4 c -3.4969,0.2995 -6.1446,-2.2982 -9.4917,-4.4963 l -3e-4,-2e-4 C 66.0981,87.4933 63.1506,85.3451 58.005,81.948 l -4e-4,-2e-4 C 52.0601,78.0512 55.9068,75.903 59.3039,72.406 l 5e-4,-5e-4 c 0.904,-0.9036 16.236,-14.8873 16.5357,-16.1361 l 2e-4,-6e-4 c 0.0498,-0.1509 0.0493,-0.7492 -0.2999,-1.0485 l -4e-4,-3e-4 c -0.3497,-0.2994 -0.8491,-0.1995 -1.2486,-0.0996 l -6e-4,1e-4 c -0.5547,0.1037 -8.9476,5.699 -25.2783,16.7359 l -3e-4,3e-4 c -2.3979,1.6484 -4.546,2.4477 -6.4943,2.3977 h -6e-4 c -2.1483,-0.0502 -6.2445,-1.199 -9.3416,-2.1981 l -5e-4,-2e-4 c -3.7467,-1.1989 -6.7439,-1.8484 -6.4941,-3.9465 l 10e-5,-6e-4 c 0.1503,-1.0989 1.649,-2.1978 4.4462,-3.3466 z"
     style="fill:#000000;stroke-width:1"
     id="path20978" /><path
     d="M 31.1274,64.88 C 48.6128,57.2863 60.2531,52.2405 66.0982,49.7926 l 6e-4,-3e-4 c 16.6357,-6.944 20.1327,-8.1429 22.3808,-8.1929 h 5e-4 c 0.4999,10e-5 1.5984,0.1001 2.3475,0.6994 l 4e-4,3e-4 c 0.5992,0.4995 0.749,1.1488 0.8489,1.6483 l 1e-4,6e-4 c 0.0999,0.4998 0.1997,1.5484 0.0998,2.3475 v 7e-4 c -0.8994,9.4925 -4.796,32.5224 -6.7943,43.1133 l -1e-4,7e-4 c -0.8494,4.4957 -2.4979,5.9944 -4.0965,6.1442 l -5e-4,1e-4 c -3.4968,0.2994 -6.1445,-2.2983 -9.4916,-4.4963 l -4e-4,-3e-4 C 66.0981,87.6109 63.1506,85.4628 58.005,82.0657 l -4e-4,-3e-4 c -5.9445,-3.8966 -2.0978,-6.0448 1.2993,-9.5418 l 5e-4,-5e-4 c 0.9045,-0.9039 16.236,-14.8873 16.5357,-16.136 l 2e-4,-7e-4 c 0.0498,-0.151 0.0493,-0.7492 -0.2999,-1.0485 l -4e-4,-3e-4 C 75.1903,55.0383 74.6909,55.1382 74.2914,55.238 l -6e-4,2e-4 c -0.5552,0.1039 -8.948,5.6992 -25.2783,16.7359 l -4e-4,2e-4 c -2.3978,1.6485 -4.5459,2.4478 -6.4942,2.3978 h -6e-4 C 40.3689,74.3219 36.2728,73.173 33.1757,72.1739 l -6e-4,-1e-4 c -3.7466,-1.1989 -6.7438,-1.8484 -6.494,-3.9466 l 10e-5,-6e-4 c 0.1503,-1.0989 1.649,-2.1978 4.4462,-3.3466 z"
     style="fill:#000000;stroke-width:1"
     id="path20980" /><path
     d="M 31.1274,64.9976 C 48.6128,57.404 60.2531,52.3582 66.0982,49.9102 l 7e-4,-2e-4 c 16.6356,-6.944 20.1326,-8.143 22.3807,-8.193 h 6e-4 c 0.4999,1e-4 1.5984,0.1002 2.3474,0.6995 l 4e-4,3e-4 c 0.5992,0.4995 0.749,1.1488 0.8489,1.6483 l 1e-4,6e-4 c 0.0999,0.4998 0.1997,1.5484 0.0998,2.3474 v 8e-4 c -0.8994,9.4925 -4.796,32.5224 -6.7943,43.1133 l -1e-4,7e-4 c -0.8494,4.4957 -2.4979,5.9943 -4.0965,6.1442 h -5e-4 c -3.4968,0.2995 -6.1445,-2.2982 -9.4916,-4.4963 l -4e-4,-2e-4 C 66.0981,87.7286 63.1506,85.5804 58.005,82.1833 l -5e-4,-3e-4 c -5.9444,-3.8965 -2.0977,-6.0447 1.2994,-9.5417 l 5e-4,-6e-4 c 0.9049,-0.9043 16.236,-14.8873 16.5357,-16.136 l 3e-4,-7e-4 c 0.0497,-0.1511 0.0492,-0.7491 -0.3,-1.0484 l -5e-4,-4e-4 c -0.3496,-0.2993 -0.849,-0.1994 -1.2485,-0.0995 l -7e-4,1e-4 c -0.5556,0.1043 -8.9484,5.6996 -25.2782,16.7359 l -4e-4,3e-4 c -2.3978,1.6485 -4.5459,2.4477 -6.4942,2.3977 h -7e-4 c -2.1483,-0.0502 -6.2444,-1.1991 -9.3415,-2.1981 l -6e-4,-2e-4 c -3.7466,-1.1989 -6.7438,-1.8484 -6.494,-3.9465 l 10e-5,-7e-4 c 0.1504,-1.0989 1.6491,-2.1977 4.4462,-3.3465 z"
     style="fill:#000000;stroke-width:1"
     id="path20982" /><path
     d="M 31.1274,65.1153 C 48.6128,57.5216 60.2531,52.4758 66.0982,50.0279 l 7e-4,-3e-4 c 16.6356,-6.944 20.1326,-8.1429 22.3807,-8.1929 h 6e-4 c 0.4999,1e-4 1.5984,0.1002 2.3474,0.6994 l 4e-4,3e-4 c 0.5992,0.4996 0.749,1.1489 0.8489,1.6483 l 2e-4,7e-4 c 0.0998,0.4998 0.1996,1.5484 0.0997,2.3474 v 8e-4 c -0.8994,9.4925 -4.796,32.5224 -6.7943,43.1132 l -1e-4,8e-4 c -0.8494,4.4957 -2.4979,5.9943 -4.0965,6.1441 l -6e-4,1e-4 c -3.4968,0.2994 -6.1445,-2.2983 -9.4915,-4.4963 l -4e-4,-3e-4 C 66.0981,87.8462 63.1505,85.698 58.005,82.301 l -5e-4,-3e-4 c -5.9444,-3.8966 -2.0977,-6.0448 1.2994,-9.5418 l 6e-4,-6e-4 C 60.2098,71.8537 75.5404,57.8711 75.8401,56.6224 l 3e-4,-8e-4 c 0.0497,-0.1512 0.0491,-0.7491 -0.3,-1.0484 l -5e-4,-3e-4 c -0.3497,-0.2993 -0.849,-0.1994 -1.2485,-0.0996 l -7e-4,2e-4 c -0.5561,0.1046 -8.9489,5.6999 -25.2782,16.7359 l -4e-4,3e-4 c -2.3979,1.6484 -4.5459,2.4477 -6.4942,2.3977 h -7e-4 c -2.1484,-0.0502 -6.2444,-1.1991 -9.3415,-2.1982 l -6e-4,-2e-4 c -3.7466,-1.1988 -6.7438,-1.8483 -6.494,-3.9465 l 10e-5,-7e-4 c 0.1504,-1.0988 1.6491,-2.1977 4.4462,-3.3465 z"
     style="fill:#000000;stroke-width:1"
     id="path20984" /><path
     d="M 31.1274,65.2329 C 48.6128,57.6393 60.2531,52.5935 66.0982,50.1455 l 8e-4,-3e-4 c 16.6355,-6.9439 20.1325,-8.1429 22.3806,-8.1929 h 7e-4 c 0.4999,10e-5 1.5983,0.1002 2.3473,0.6995 l 5e-4,3e-4 c 0.5991,0.4995 0.7489,1.1488 0.8488,1.6483 l 2e-4,7e-4 c 0.0998,0.4998 0.1996,1.5484 0.0997,2.3473 l -10e-5,9e-4 c -0.8993,9.4926 -4.7959,32.5223 -6.7942,43.1132 l -1e-4,8e-4 c -0.8494,4.4956 -2.4979,5.9942 -4.0965,6.1441 h -6e-4 c -3.4968,0.2994 -6.1445,-2.2982 -9.4915,-4.4963 l -4e-4,-3e-4 C 66.0981,87.9639 63.1505,85.8157 58.005,82.4186 l -5e-4,-3e-4 c -5.9443,-3.8966 -2.0977,-6.0447 1.2994,-9.5417 l 6e-4,-6e-4 C 60.2102,71.9709 75.5404,57.9887 75.8401,56.74 l 3e-4,-8e-4 c 0.0497,-0.1513 0.0491,-0.7491 -0.3,-1.0483 l -5e-4,-4e-4 c -0.3497,-0.2993 -0.849,-0.1994 -1.2485,-0.0995 l -8e-4,10e-5 C 73.7341,55.696 65.3413,61.2913 49.0125,72.327 l -4e-4,3e-4 c -2.3979,1.6485 -4.5459,2.4477 -6.4942,2.3977 h -8e-4 c -2.1484,-0.0502 -6.2444,-1.1991 -9.3414,-2.1981 l -7e-4,-2e-4 c -3.7465,-1.1989 -6.7437,-1.8484 -6.4939,-3.9465 l 10e-5,-8e-4 c 0.1504,-1.0988 1.6492,-2.1977 4.4462,-3.3464 z"
     style="fill:#000000;stroke-width:1"
     id="path20986" /><path
     d="M 31.1274,65.3506 C 48.6128,57.7569 60.2531,52.7111 66.0982,50.2632 l 8e-4,-3e-4 C 82.7345,43.3189 86.2315,42.12 88.4796,42.07 h 7e-4 c 0.5,10e-5 1.5983,0.1002 2.3473,0.6994 l 5e-4,4e-4 c 0.5991,0.4995 0.7489,1.1488 0.8488,1.6482 l 2e-4,8e-4 c 0.0998,0.4999 0.1996,1.5483 0.0997,2.3473 l -10e-5,9e-4 c -0.8994,9.4926 -4.7959,32.5223 -6.7942,43.1131 l -2e-4,9e-4 c -0.8493,4.4956 -2.4978,5.9942 -4.0964,6.144 l -6e-4,10e-5 c -3.4968,0.2994 -6.1445,-2.2983 -9.4915,-4.4963 l -5e-4,-3e-4 C 66.0981,88.0815 63.1505,85.9333 58.005,82.5363 l -6e-4,-4e-4 c -5.9442,-3.8965 -2.0976,-6.0447 1.2995,-9.5417 l 7e-4,-6e-4 c 0.906,-0.9055 16.2358,-14.8873 16.5355,-16.1359 l 3e-4,-9e-4 c 0.0497,-0.1513 0.049,-0.7491 -0.3,-1.0483 l -5e-4,-4e-4 c -0.3497,-0.2992 -0.849,-0.1993 -1.2485,-0.0995 l -8e-4,2e-4 c -0.5569,0.1052 -8.9497,5.7005 -25.2781,16.7359 l -5e-4,3e-4 c -2.3978,1.6484 -4.5459,2.4477 -6.4941,2.3977 h -8e-4 c -2.1484,-0.0503 -6.2444,-1.1991 -9.3414,-2.1982 l -7e-4,-2e-4 C 29.4284,71.4454 26.4313,70.796 26.6811,68.6978 l 10e-5,-8e-4 c 0.1505,-1.0988 1.6492,-2.1976 4.4462,-3.3464 z"
     style="fill:#000000;stroke-width:1"
     id="path20988" /></g><path
   style="display:inline;fill:#000000;fill-opacity:0.24;stroke:none;stroke-width:8;stroke-linejoin:round;stroke-miterlimit:4;stroke-dasharray:1, 0.5;stroke-dashoffset:0;stroke-opacity:1;enable-background:new"
   d="M 123.93751,62.246094 A 60.00001,60.00001 0 0 1 64.000008,121 60.00001,60.00001 0 0 1 4.062512,62.753906 60.00001,60.00001 0 0 0 4.000002,64.000001 60.00001,60.00001 0 0 0 63.999999,124 60.00001,60.00001 0 0 0 124,64.000001 60.00001,60.00001 0 0 0 123.9375,62.246094 Z"
   id="circle1110"
   inkscape:connector-curvature="0" /><path
   id="Path-3"
   fill-rule="evenodd"
   clip-rule="evenodd"
   fill="#ffffff"
   d="m 31.127391,63.350537 c 17.485426,-7.59367 29.125726,-12.63947 34.970856,-15.08743 16.63613,-6.94421 20.13322,-8.143211 22.38134,-8.193169 0.49959,0 1.59867,0.09992 2.34805,0.699417 0.5995,0.499584 0.74937,1.149042 0.84929,1.648626 0.0999,0.499583 0.19983,1.548706 0.0999,2.348046 -0.89925,9.49209 -4.796,32.5229 -6.79433,43.11406 -0.8493,4.49626 -2.49792,5.99501 -4.09659,6.14488 -3.49708,0.29975 -6.14488,-2.29808 -9.49209,-4.49625 -5.29558,-3.44713 -8.24313,-5.59534 -13.38884,-8.99251 -5.94504,-3.89675 -2.09825,-6.04496 1.29892,-9.54204 0.89925,-0.89925 16.23647,-14.88759 16.53622,-16.13655 0.05,-0.14988 0.05,-0.74938 -0.29975,-1.04913 -0.34971,-0.29975 -0.8493,-0.19983 -1.24896,-0.0999 -0.54955,0.0999 -8.94255,5.69525 -25.27893,16.73605 -2.398,1.64863 -4.54621,2.44796 -6.494591,2.398 -2.148209,-0.05 -6.244796,-1.199 -9.342215,-2.19816 -3.746876,-1.19901 -6.744378,-1.84846 -6.494586,-3.94672 0.149875,-1.09908 1.648626,-2.19816 4.446294,-3.34721 z"
   style="stroke-width:1" />
<g
   id="g21528"
   style="opacity:1;mix-blend-mode:normal;fill:#99c1f1"><path
     d="M 31.1274,63.3505 C 48.6128,55.7569 60.2531,50.7111 66.0982,48.2631 v 0 c 16.6362,-6.9442 20.1333,-8.1432 22.3814,-8.1932 v 0 c 0.4996,0 1.5987,0.1 2.348,0.6995 v 0 c 0.5995,0.4995 0.7494,1.149 0.8493,1.6486 v 0 c 0.0999,0.4996 0.1999,1.5487 0.0999,2.348 v 0 c -0.8992,9.4921 -4.796,32.5229 -6.7943,43.1141 v 0 c -0.8493,4.4962 -2.4979,5.995 -4.0966,6.1449 v 0 c -3.4971,0.2997 -6.1449,-2.2981 -9.4921,-4.4963 v 0 C 66.0982,86.0816 63.1507,83.9334 58.005,80.5362 v 0 c -5.9451,-3.8967 -2.0983,-6.045 1.2989,-9.542 v 0 C 60.2031,70.0949 75.5404,56.1066 75.8401,54.8576 v 0 c 0.05,-0.1499 0.05,-0.7494 -0.2997,-1.0491 v 0 c -0.3497,-0.2998 -0.8493,-0.1998 -1.249,-0.0999 v 0 c -0.5495,0.0999 -8.9425,5.6952 -25.2789,16.736 v 0 c -2.398,1.6487 -4.5462,2.448 -6.4946,2.398 v 0 c -2.1482,-0.05 -6.2448,-1.199 -9.3422,-2.1981 v 0 c -3.7469,-1.199 -6.7444,-1.8485 -6.4946,-3.9467 v 0 c 0.1499,-1.0991 1.6486,-2.1982 4.4463,-3.3473 z"
     style="fill:#99c1f1;stroke-width:1"
     id="path21492" /><path
     d="M 31.1274,63.4682 C 48.6128,55.8745 60.2531,50.8287 66.0982,48.3808 l 10e-5,-1e-4 c 16.6361,-6.9442 20.1332,-8.1432 22.3813,-8.1931 v 0 c 0.4996,0 1.5987,0.0999 2.348,0.6994 h 10e-5 c 0.5994,0.4996 0.7493,1.1491 0.8492,1.6486 v 10e-5 c 0.0999,0.4996 0.1999,1.5487 0.0999,2.348 v 0 c -0.8992,9.4922 -4.796,32.5229 -6.7943,43.114 v 1e-4 c -0.8493,4.4962 -2.4979,5.9949 -4.0966,6.1448 v 0 c -3.4971,0.2997 -6.1449,-2.2981 -9.4921,-4.4962 v -1e-4 C 66.0982,86.1992 63.1507,84.051 58.005,80.6539 l -1e-4,-10e-5 c -5.9449,-3.8967 -2.0982,-6.0449 1.299,-9.542 v 0 C 60.2036,70.2122 75.5404,56.2242 75.8401,54.9753 v -10e-5 c 0.05,-0.1499 0.05,-0.7493 -0.2997,-1.0491 h -1e-4 c -0.3497,-0.2997 -0.8492,-0.1998 -1.2489,-0.0999 v 0 c -0.55,0.1003 -8.943,5.6956 -25.2789,16.7361 v 0 c -2.398,1.6486 -4.5462,2.4479 -6.4946,2.398 h -10e-5 c -2.1482,-0.05 -6.2447,-1.199 -9.3421,-2.1982 h -10e-5 c -3.7468,-1.199 -6.7443,-1.8484 -6.4945,-3.9467 v 0 c 0.1499,-1.0991 1.6487,-2.1982 4.4463,-3.3472 z"
     style="fill:#99c1f1;stroke-width:1"
     id="path21494" /><path
     d="M 31.1274,63.5858 C 48.6128,55.9922 60.2531,50.9464 66.0982,48.4984 h 10e-5 c 16.6361,-6.9442 20.1332,-8.1432 22.3813,-8.1932 h 10e-5 c 0.4996,1e-4 1.5986,0.1 2.3479,0.6995 h 10e-5 c 0.5994,0.4996 0.7493,1.149 0.8492,1.6486 v 10e-5 c 0.0999,0.4996 0.1999,1.5486 0.0999,2.3479 v 10e-5 c -0.8993,9.4922 -4.796,32.5229 -6.7943,43.114 v 1e-4 c -0.8493,4.4962 -2.4979,5.9949 -4.0966,6.1448 h -1e-4 C 77.3888,94.56 74.741,91.9622 71.3938,89.764 v 0 C 66.0982,86.3169 63.1507,84.1687 58.005,80.7715 h -1e-4 c -5.9449,-3.8968 -2.0982,-6.045 1.299,-9.542 l 1e-4,-1e-4 c 0.9,-0.9 16.2364,-14.8876 16.5361,-16.1365 l 10e-5,-1e-4 c 0.0499,-0.15 0.0498,-0.7493 -0.2998,-1.049 l -1e-4,-10e-5 C 75.1906,53.744 74.691,53.844 74.2914,53.9439 h -10e-5 c -0.5504,0.1005 -8.9434,5.6959 -25.2788,16.736 l -1e-4,1e-4 c -2.398,1.6486 -4.5461,2.4479 -6.4945,2.3979 h -10e-5 c -2.1482,-0.05 -6.2448,-1.199 -9.3421,-2.1981 h -10e-5 c -3.7468,-1.199 -6.7443,-1.8485 -6.4945,-3.9467 v -10e-5 c 0.1499,-1.0991 1.6487,-2.1981 4.4463,-3.3472 z"
     style="fill:#99c1f1;stroke-width:1"
     id="path21496" /><path
     d="M 31.1274,63.7035 C 48.6128,56.1098 60.2531,51.064 66.0982,48.6161 l 2e-4,-1e-4 c 16.636,-6.9442 20.1331,-8.1432 22.3812,-8.1931 h 10e-5 c 0.4997,0 1.5986,0.1 2.3479,0.6994 l 10e-5,10e-5 c 0.5994,0.4995 0.7493,1.149 0.8492,1.6485 l 1e-4,2e-4 c 0.0998,0.4996 0.1997,1.5486 0.0998,2.3479 v 1e-4 c -0.8993,9.4922 -4.796,32.5228 -6.7943,43.1139 v 2e-4 c -0.8493,4.4961 -2.4979,5.9949 -4.0966,6.1447 h -1e-4 c -3.497,0.2997 -6.1448,-2.2981 -9.492,-4.4962 l -1e-4,-10e-5 C 66.0982,86.4345 63.1507,84.2863 58.005,80.8892 l -1e-4,-1e-4 c -5.9449,-3.8967 -2.0982,-6.0449 1.299,-9.542 l 1e-4,-1e-4 C 60.2045,70.4467 75.5404,56.4595 75.8401,55.2106 l 10e-5,-2e-4 c 0.0499,-0.1501 0.0498,-0.7493 -0.2998,-1.049 h -1e-4 C 75.1906,53.8617 74.691,53.9616 74.2914,54.0615 l -10e-5,10e-5 c -0.5509,0.1008 -8.9439,5.6961 -25.2788,16.736 h -1e-4 c -2.398,1.6486 -4.5462,2.4479 -6.4945,2.398 h -2e-4 c -2.1482,-0.0501 -6.2447,-1.199 -9.342,-2.1982 h -2e-4 c -3.7468,-1.199 -6.7442,-1.8485 -6.4944,-3.9467 v -1e-4 c 0.15,-1.0991 1.6487,-2.1981 4.4463,-3.3471 z"
     style="fill:#99c1f1;stroke-width:1"
     id="path21498" /><path
     d="M 31.1274,63.8211 C 48.6128,56.2275 60.2531,51.1817 66.0982,48.7337 l 2e-4,-10e-5 c 16.636,-6.9441 20.1331,-8.1431 22.3812,-8.1931 h 2e-4 c 0.4996,10e-5 1.5985,0.1 2.3478,0.6995 h 10e-5 c 0.5995,0.4996 0.7493,1.149 0.8492,1.6486 l 1e-4,2e-4 c 0.0998,0.4996 0.1997,1.5486 0.0998,2.3478 v 2e-4 c -0.8993,9.4923 -4.796,32.5228 -6.7943,43.1139 v 2e-4 c -0.8494,4.4961 -2.4979,5.9948 -4.0966,6.1447 h -1e-4 c -3.497,0.2996 -6.1448,-2.2981 -9.492,-4.4963 l -1e-4,-1e-4 C 66.0982,86.5522 63.1507,84.404 58.005,81.0068 l -2e-4,-1e-4 C 52.06,77.11 55.9068,74.9618 59.3039,71.4648 l 2e-4,-2e-4 c 0.9008,-0.9007 16.2363,-14.8875 16.536,-16.1364 l 10e-5,-2e-4 c 0.0499,-0.1502 0.0498,-0.7493 -0.2998,-1.0489 l -2e-4,-10e-5 C 75.1905,53.9794 74.691,54.0793 74.2914,54.1792 h -2e-4 c -0.5513,0.1012 -8.9442,5.6965 -25.2787,16.736 l -1e-4,1e-4 c -2.398,1.6486 -4.5462,2.4479 -6.4945,2.3979 h -2e-4 c -2.1483,-0.05 -6.2447,-1.199 -9.342,-2.1981 l -2e-4,-1e-4 c -3.7468,-1.1989 -6.7442,-1.8484 -6.4944,-3.9466 v -2e-4 c 0.15,-1.099 1.6488,-2.1981 4.4463,-3.3471 z"
     style="fill:#99c1f1;stroke-width:1"
     id="path21500" /><path
     d="M 31.1274,63.9388 C 48.6128,56.3451 60.2531,51.2993 66.0982,48.8514 l 3e-4,-10e-5 c 16.6359,-6.9442 20.133,-8.1432 22.3811,-8.1931 h 2e-4 c 0.4997,0 1.5986,0.1 2.3478,0.6994 l 2e-4,1e-4 c 0.5994,0.4996 0.7492,1.149 0.8491,1.6485 l 1e-4,2e-4 c 0.0999,0.4997 0.1997,1.5487 0.0998,2.3479 v 2e-4 c -0.8993,9.4923 -4.796,32.5228 -6.7943,43.1138 v 3e-4 c -0.8494,4.4961 -2.498,5.9948 -4.0966,6.1446 h -2e-4 c -3.497,0.2997 -6.1447,-2.2981 -9.4919,-4.4962 l -1e-4,-1e-4 C 66.0982,86.6698 63.1506,84.5216 58.005,81.1245 l -2e-4,-1e-4 c -5.9448,-3.8967 -2.098,-6.0449 1.2991,-9.542 l 2e-4,-2e-4 c 0.9012,-0.901 16.2363,-14.8875 16.536,-16.1363 l 10e-5,-3e-4 c 0.0499,-0.1503 0.0497,-0.7493 -0.2998,-1.0489 l -2e-4,-1e-4 C 75.1905,54.097 74.691,54.1969 74.2914,54.2968 l -2e-4,1e-4 c -0.5518,0.1014 -8.9447,5.6968 -25.2787,16.736 l -2e-4,1e-4 c -2.3979,1.6485 -4.5461,2.4478 -6.4944,2.3979 h -2e-4 c -2.1483,-0.0501 -6.2447,-1.199 -9.342,-2.1982 h -2e-4 c -3.7468,-1.199 -6.7442,-1.8485 -6.4944,-3.9467 v -2e-4 c 0.1501,-1.099 1.6488,-2.198 4.4463,-3.347 z"
     style="fill:#99c1f1;stroke-width:1"
     id="path21502" /><path
     d="M 31.1274,64.0564 C 48.6128,56.4628 60.2531,51.417 66.0982,48.969 l 3e-4,-1e-4 c 16.6359,-6.9441 20.133,-8.1431 22.3811,-8.1931 h 2e-4 c 0.4998,1e-4 1.5986,0.1001 2.3478,0.6995 l 2e-4,1e-4 c 0.5994,0.4996 0.7492,1.1489 0.8491,1.6485 l 1e-4,2e-4 c 0.0999,0.4997 0.1997,1.5486 0.0998,2.3478 v 3e-4 c -0.8993,9.4923 -4.796,32.5227 -6.7943,43.1138 l -1e-4,3e-4 c -0.8493,4.496 -2.4979,5.9947 -4.0965,6.1446 h -2e-4 c -3.497,0.2996 -6.1447,-2.2982 -9.4919,-4.4963 l -2e-4,-1e-4 C 66.0982,86.7874 63.1506,84.6392 58.005,81.2421 l -2e-4,-10e-5 c -5.9448,-3.8967 -2.098,-6.0449 1.2991,-9.5419 l 2e-4,-3e-4 c 0.9017,-0.9014 16.2363,-14.8874 16.536,-16.1363 l 10e-5,-3e-4 c 0.0499,-0.1504 0.0497,-0.7493 -0.2998,-1.0488 l -2e-4,-2e-4 C 75.1905,54.2147 74.691,54.3146 74.2914,54.4145 h -3e-4 c -0.5521,0.1018 -8.9451,5.6971 -25.2786,16.736 l -2e-4,1e-4 c -2.3979,1.6486 -4.5461,2.4479 -6.4944,2.3979 h -3e-4 c -2.1483,-0.0501 -6.2446,-1.199 -9.3419,-2.1981 l -3e-4,-10e-5 c -3.7467,-1.199 -6.7441,-1.8484 -6.4943,-3.9466 v -3e-4 c 0.1501,-1.099 1.6489,-2.198 4.4463,-3.3469 z"
     style="fill:#99c1f1;stroke-width:1"
     id="path21504" /><path
     d="M 31.1274,64.1741 C 48.6128,56.5804 60.2531,51.5346 66.0982,49.0867 l 4e-4,-2e-4 c 16.6358,-6.9441 20.1329,-8.143 22.381,-8.193 h 3e-4 c 0.4997,0 1.5985,0.1 2.3477,0.6994 l 2e-4,2e-4 c 0.5994,0.4995 0.7492,1.1489 0.8491,1.6484 l 1e-4,3e-4 c 0.0999,0.4997 0.1997,1.5486 0.0998,2.3478 v 3e-4 c -0.8993,9.4924 -4.796,32.5227 -6.7943,43.1137 l -1e-4,4e-4 c -0.8493,4.496 -2.4979,5.9947 -4.0965,6.1445 h -3e-4 c -3.4969,0.2996 -6.1447,-2.2981 -9.4918,-4.4962 l -2e-4,-2e-4 c -5.2954,-3.447 -8.243,-5.5952 -13.3886,-8.9923 l -2e-4,-2e-4 C 52.06,77.463 55.9068,75.3148 59.3039,71.8177 l 3e-4,-3e-4 C 60.2062,70.9157 75.5404,56.93 75.8401,55.6812 l 10e-5,-4e-4 c 0.0499,-0.1505 0.0496,-0.7492 -0.2998,-1.0488 l -2e-4,-10e-5 C 75.1905,54.3323 74.691,54.4322 74.2914,54.5321 l -3e-4,1e-4 c -0.5526,0.1021 -8.9455,5.6974 -25.2786,16.736 l -2e-4,1e-4 c -2.3979,1.6486 -4.5461,2.4479 -6.4944,2.3979 h -3e-4 C 40.3693,73.6161 36.2729,72.4671 33.1757,71.468 l -3e-4,-1e-4 C 29.4286,70.269 26.4313,69.6195 26.6811,67.5213 v -3e-4 c 0.1502,-1.099 1.6489,-2.198 4.4463,-3.3469 z"
     style="fill:#99c1f1;stroke-width:1"
     id="path21506" /><path
     d="M 31.1274,64.2917 C 48.6128,56.6981 60.2531,51.6523 66.0982,49.2043 l 4e-4,-1e-4 c 16.6358,-6.9441 20.1329,-8.1431 22.381,-8.1931 h 3e-4 c 0.4998,1e-4 1.5985,0.1001 2.3477,0.6995 l 2e-4,1e-4 c 0.5994,0.4996 0.7492,1.149 0.8491,1.6485 l 1e-4,3e-4 c 0.0999,0.4998 0.1997,1.5486 0.0998,2.3477 v 4e-4 C 90.8775,55.2 86.9808,78.2303 84.9825,88.8213 l -1e-4,4e-4 c -0.8493,4.4959 -2.4979,5.9946 -4.0965,6.1445 h -3e-4 c -3.4969,0.2996 -6.1447,-2.2982 -9.4918,-4.4963 l -2e-4,-10e-5 C 66.0982,87.0227 63.1506,84.8745 58.005,81.4774 l -3e-4,-2e-4 C 52.06,77.5806 55.9068,75.4324 59.3039,71.9354 l 3e-4,-3e-4 C 60.2067,71.0329 75.5404,57.0476 75.8401,55.7988 l 2e-4,-4e-4 c 0.0498,-0.1506 0.0495,-0.7492 -0.2999,-1.0487 l -3e-4,-2e-4 C 75.1904,54.45 74.691,54.5499 74.2914,54.6498 l -4e-4,1e-4 c -0.553,0.1024 -8.9459,5.6977 -25.2785,16.7359 l -2e-4,2e-4 c -2.3979,1.6485 -4.5461,2.4478 -6.4944,2.3978 h -4e-4 c -2.1483,-0.0501 -6.2446,-1.199 -9.3418,-2.1981 l -4e-4,-1e-4 c -3.7467,-1.199 -6.744,-1.8484 -6.4942,-3.9466 v -4e-4 c 0.1502,-1.099 1.6489,-2.1979 4.4463,-3.3468 z"
     style="fill:#99c1f1;stroke-width:1"
     id="path21508" /><path
     d="M 31.1274,64.4094 C 48.6128,56.8157 60.2531,51.7699 66.0982,49.322 l 5e-4,-2e-4 c 16.6357,-6.9441 20.1328,-8.143 22.3809,-8.193 h 4e-4 c 0.4997,0 1.5985,0.1001 2.3476,0.6994 l 3e-4,2e-4 c 0.5993,0.4996 0.7491,1.1489 0.849,1.6484 l 1e-4,4e-4 c 0.0999,0.4998 0.1997,1.5485 0.0998,2.3477 v 4e-4 c -0.8993,9.4924 -4.796,32.5227 -6.7943,43.1136 l -1e-4,5e-4 c -0.8493,4.4959 -2.4979,5.9946 -4.0965,6.1444 l -3e-4,1e-4 c -3.4969,0.2995 -6.1447,-2.2982 -9.4918,-4.4963 l -2e-4,-2e-4 c -5.2955,-3.447 -8.243,-5.5952 -13.3886,-8.9923 l -3e-4,-2e-4 C 52.0601,77.6982 55.9068,75.55 59.3039,72.053 l 3e-4,-3e-4 C 60.2071,71.1502 75.5404,57.1653 75.8401,55.9165 l 2e-4,-5e-4 c 0.0498,-0.1506 0.0495,-0.7492 -0.2999,-1.0487 l -3e-4,-2e-4 C 75.1904,54.5676 74.691,54.6675 74.2914,54.7674 l -4e-4,10e-5 c -0.5535,0.1027 -8.9464,5.698 -25.2785,16.736 l -3e-4,2e-4 c -2.3979,1.6485 -4.546,2.4478 -6.4943,2.3978 h -4e-4 c -2.1484,-0.0502 -6.2446,-1.1991 -9.3418,-2.1982 l -4e-4,-1e-4 c -3.7467,-1.1989 -6.744,-1.8484 -6.4942,-3.9466 v -4e-4 c 0.1502,-1.099 1.649,-2.1979 4.4463,-3.3468 z"
     style="fill:#99c1f1;stroke-width:1"
     id="path21510" /><path
     d="M 31.1274,64.527 C 48.6128,56.9334 60.2531,51.8876 66.0982,49.4396 l 5e-4,-2e-4 c 16.6357,-6.944 20.1328,-8.143 22.3809,-8.193 h 4e-4 c 0.4998,10e-5 1.5985,0.1001 2.3476,0.6995 l 3e-4,2e-4 c 0.5993,0.4995 0.7491,1.1489 0.849,1.6484 l 1e-4,4e-4 c 0.0999,0.4998 0.1997,1.5485 0.0998,2.3476 v 5e-4 c -0.8994,9.4925 -4.796,32.5226 -6.7943,43.1136 l -1e-4,5e-4 c -0.8493,4.4959 -2.4979,5.9945 -4.0965,6.1444 h -4e-4 c -3.4969,0.2995 -6.1446,-2.2982 -9.4917,-4.4963 l -3e-4,-2e-4 C 66.0981,87.258 63.1506,85.1098 58.005,81.7127 l -3e-4,-2e-4 c -5.9446,-3.8966 -2.0979,-6.0448 1.2992,-9.5418 l 4e-4,-4e-4 C 60.2076,71.2674 75.5404,57.2829 75.8401,56.0341 l 2e-4,-5e-4 c 0.0498,-0.1507 0.0494,-0.7492 -0.2999,-1.0486 l -3e-4,-3e-4 C 75.1904,54.6853 74.691,54.7852 74.2914,54.8851 l -5e-4,10e-5 c -0.5539,0.103 -8.9467,5.6983 -25.2784,16.7359 l -3e-4,2e-4 c -2.3979,1.6485 -4.546,2.4478 -6.4943,2.3978 h -5e-4 C 40.3691,73.969 36.2729,72.8201 33.1757,71.821 l -4e-4,-1e-4 c -3.7467,-1.199 -6.744,-1.8485 -6.4942,-3.9466 v -5e-4 c 0.1503,-1.0989 1.649,-2.1979 4.4463,-3.3467 z"
     style="fill:#99c1f1;stroke-width:1"
     id="path21512" /><path
     d="M 31.1274,64.6447 C 48.6128,57.051 60.2531,52.0052 66.0982,49.5573 l 5e-4,-2e-4 c 16.6357,-6.9441 20.1328,-8.143 22.3809,-8.193 h 5e-4 c 0.4998,10e-5 1.5984,0.1001 2.3475,0.6994 l 3e-4,2e-4 c 0.5993,0.4996 0.7491,1.1489 0.849,1.6484 l 1e-4,5e-4 c 0.0999,0.4998 0.1997,1.5485 0.0998,2.3476 v 5e-4 c -0.8994,9.4925 -4.796,32.5226 -6.7943,43.1135 l -1e-4,6e-4 c -0.8493,4.4958 -2.4979,5.9945 -4.0965,6.1443 l -4e-4,10e-5 c -3.4969,0.2995 -6.1446,-2.2982 -9.4917,-4.4963 l -3e-4,-2e-4 C 66.0981,87.3757 63.1506,85.2275 58.005,81.8304 l -4e-4,-3e-4 c -5.9445,-3.8966 -2.0978,-6.0448 1.2993,-9.5418 l 4e-4,-4e-4 C 60.208,71.3847 75.5404,57.4005 75.8401,56.1518 l 2e-4,-6e-4 c 0.0498,-0.1508 0.0494,-0.7492 -0.2999,-1.0486 l -4e-4,-2e-4 C 75.1903,54.803 74.6909,54.9028 74.2914,55.0027 l -5e-4,1e-4 c -0.5543,0.1034 -8.9472,5.6987 -25.2784,16.736 l -3e-4,2e-4 c -2.3979,1.6485 -4.546,2.4478 -6.4943,2.3978 h -5e-4 C 40.369,74.0866 36.2728,72.9377 33.1757,71.9386 l -5e-4,-10e-5 c -3.7466,-1.1989 -6.7439,-1.8484 -6.4941,-3.9466 l 10e-5,-5e-4 c 0.1502,-1.0989 1.649,-2.1978 4.4462,-3.3467 z"
     style="fill:#99c1f1;stroke-width:1"
     id="path21514" /><path
     d="M 31.1274,64.7623 C 48.6128,57.1687 60.2531,52.1229 66.0982,49.6749 l 6e-4,-2e-4 c 16.6357,-6.944 20.1327,-8.143 22.3808,-8.193 h 5e-4 c 0.4998,1e-4 1.5984,0.1002 2.3475,0.6995 l 3e-4,2e-4 c 0.5993,0.4996 0.7491,1.1489 0.849,1.6484 l 1e-4,5e-4 c 0.0999,0.4998 0.1997,1.5485 0.0998,2.3475 v 6e-4 c -0.8994,9.4925 -4.796,32.5226 -6.7943,43.1135 l -1e-4,6e-4 c -0.8493,4.4958 -2.4979,5.9944 -4.0965,6.1443 h -4e-4 c -3.4969,0.2995 -6.1446,-2.2982 -9.4917,-4.4963 l -3e-4,-2e-4 C 66.0981,87.4933 63.1506,85.3451 58.005,81.948 l -4e-4,-2e-4 C 52.0601,78.0512 55.9068,75.903 59.3039,72.406 l 5e-4,-5e-4 c 0.904,-0.9036 16.236,-14.8873 16.5357,-16.1361 l 2e-4,-6e-4 c 0.0498,-0.1509 0.0493,-0.7492 -0.2999,-1.0485 l -4e-4,-3e-4 c -0.3497,-0.2994 -0.8491,-0.1995 -1.2486,-0.0996 l -6e-4,1e-4 c -0.5547,0.1037 -8.9476,5.699 -25.2783,16.7359 l -3e-4,3e-4 c -2.3979,1.6484 -4.546,2.4477 -6.4943,2.3977 h -6e-4 c -2.1483,-0.0502 -6.2445,-1.199 -9.3416,-2.1981 l -5e-4,-2e-4 c -3.7467,-1.1989 -6.7439,-1.8484 -6.4941,-3.9465 l 10e-5,-6e-4 c 0.1503,-1.0989 1.649,-2.1978 4.4462,-3.3466 z"
     style="fill:#99c1f1;stroke-width:1"
     id="path21516" /><path
     d="M 31.1274,64.88 C 48.6128,57.2863 60.2531,52.2405 66.0982,49.7926 l 6e-4,-3e-4 c 16.6357,-6.944 20.1327,-8.1429 22.3808,-8.1929 h 5e-4 c 0.4999,10e-5 1.5984,0.1001 2.3475,0.6994 l 4e-4,3e-4 c 0.5992,0.4995 0.749,1.1488 0.8489,1.6483 l 1e-4,6e-4 c 0.0999,0.4998 0.1997,1.5484 0.0998,2.3475 v 7e-4 c -0.8994,9.4925 -4.796,32.5224 -6.7943,43.1133 l -1e-4,7e-4 c -0.8494,4.4957 -2.4979,5.9944 -4.0965,6.1442 l -5e-4,1e-4 c -3.4968,0.2994 -6.1445,-2.2983 -9.4916,-4.4963 l -4e-4,-3e-4 C 66.0981,87.6109 63.1506,85.4628 58.005,82.0657 l -4e-4,-3e-4 c -5.9445,-3.8966 -2.0978,-6.0448 1.2993,-9.5418 l 5e-4,-5e-4 c 0.9045,-0.9039 16.236,-14.8873 16.5357,-16.136 l 2e-4,-7e-4 c 0.0498,-0.151 0.0493,-0.7492 -0.2999,-1.0485 l -4e-4,-3e-4 C 75.1903,55.0383 74.6909,55.1382 74.2914,55.238 l -6e-4,2e-4 c -0.5552,0.1039 -8.948,5.6992 -25.2783,16.7359 l -4e-4,2e-4 c -2.3978,1.6485 -4.5459,2.4478 -6.4942,2.3978 h -6e-4 C 40.3689,74.3219 36.2728,73.173 33.1757,72.1739 l -6e-4,-1e-4 c -3.7466,-1.1989 -6.7438,-1.8484 -6.494,-3.9466 l 10e-5,-6e-4 c 0.1503,-1.0989 1.649,-2.1978 4.4462,-3.3466 z"
     style="fill:#99c1f1;stroke-width:1"
     id="path21518" /><path
     d="M 31.1274,64.9976 C 48.6128,57.404 60.2531,52.3582 66.0982,49.9102 l 7e-4,-2e-4 c 16.6356,-6.944 20.1326,-8.143 22.3807,-8.193 h 6e-4 c 0.4999,1e-4 1.5984,0.1002 2.3474,0.6995 l 4e-4,3e-4 c 0.5992,0.4995 0.749,1.1488 0.8489,1.6483 l 1e-4,6e-4 c 0.0999,0.4998 0.1997,1.5484 0.0998,2.3474 v 8e-4 c -0.8994,9.4925 -4.796,32.5224 -6.7943,43.1133 l -1e-4,7e-4 c -0.8494,4.4957 -2.4979,5.9943 -4.0965,6.1442 h -5e-4 c -3.4968,0.2995 -6.1445,-2.2982 -9.4916,-4.4963 l -4e-4,-2e-4 C 66.0981,87.7286 63.1506,85.5804 58.005,82.1833 l -5e-4,-3e-4 c -5.9444,-3.8965 -2.0977,-6.0447 1.2994,-9.5417 l 5e-4,-6e-4 c 0.9049,-0.9043 16.236,-14.8873 16.5357,-16.136 l 3e-4,-7e-4 c 0.0497,-0.1511 0.0492,-0.7491 -0.3,-1.0484 l -5e-4,-4e-4 c -0.3496,-0.2993 -0.849,-0.1994 -1.2485,-0.0995 l -7e-4,1e-4 c -0.5556,0.1043 -8.9484,5.6996 -25.2782,16.7359 l -4e-4,3e-4 c -2.3978,1.6485 -4.5459,2.4477 -6.4942,2.3977 h -7e-4 c -2.1483,-0.0502 -6.2444,-1.1991 -9.3415,-2.1981 l -6e-4,-2e-4 c -3.7466,-1.1989 -6.7438,-1.8484 -6.494,-3.9465 l 10e-5,-7e-4 c 0.1504,-1.0989 1.6491,-2.1977 4.4462,-3.3465 z"
     style="fill:#99c1f1;stroke-width:1"
     id="path21520" /><path
     d="M 31.1274,65.1153 C 48.6128,57.5216 60.2531,52.4758 66.0982,50.0279 l 7e-4,-3e-4 c 16.6356,-6.944 20.1326,-8.1429 22.3807,-8.1929 h 6e-4 c 0.4999,1e-4 1.5984,0.1002 2.3474,0.6994 l 4e-4,3e-4 c 0.5992,0.4996 0.749,1.1489 0.8489,1.6483 l 2e-4,7e-4 c 0.0998,0.4998 0.1996,1.5484 0.0997,2.3474 v 8e-4 c -0.8994,9.4925 -4.796,32.5224 -6.7943,43.1132 l -1e-4,8e-4 c -0.8494,4.4957 -2.4979,5.9943 -4.0965,6.1441 l -6e-4,1e-4 c -3.4968,0.2994 -6.1445,-2.2983 -9.4915,-4.4963 l -4e-4,-3e-4 C 66.0981,87.8462 63.1505,85.698 58.005,82.301 l -5e-4,-3e-4 c -5.9444,-3.8966 -2.0977,-6.0448 1.2994,-9.5418 l 6e-4,-6e-4 C 60.2098,71.8537 75.5404,57.8711 75.8401,56.6224 l 3e-4,-8e-4 c 0.0497,-0.1512 0.0491,-0.7491 -0.3,-1.0484 l -5e-4,-3e-4 c -0.3497,-0.2993 -0.849,-0.1994 -1.2485,-0.0996 l -7e-4,2e-4 c -0.5561,0.1046 -8.9489,5.6999 -25.2782,16.7359 l -4e-4,3e-4 c -2.3979,1.6484 -4.5459,2.4477 -6.4942,2.3977 h -7e-4 c -2.1484,-0.0502 -6.2444,-1.1991 -9.3415,-2.1982 l -6e-4,-2e-4 c -3.7466,-1.1988 -6.7438,-1.8483 -6.494,-3.9465 l 10e-5,-7e-4 c 0.1504,-1.0988 1.6491,-2.1977 4.4462,-3.3465 z"
     style="fill:#99c1f1;stroke-width:1"
     id="path21522" /><path
     d="M 31.1274,65.2329 C 48.6128,57.6393 60.2531,52.5935 66.0982,50.1455 l 8e-4,-3e-4 c 16.6355,-6.9439 20.1325,-8.1429 22.3806,-8.1929 h 7e-4 c 0.4999,10e-5 1.5983,0.1002 2.3473,0.6995 l 5e-4,3e-4 c 0.5991,0.4995 0.7489,1.1488 0.8488,1.6483 l 2e-4,7e-4 c 0.0998,0.4998 0.1996,1.5484 0.0997,2.3473 l -10e-5,9e-4 c -0.8993,9.4926 -4.7959,32.5223 -6.7942,43.1132 l -1e-4,8e-4 c -0.8494,4.4956 -2.4979,5.9942 -4.0965,6.1441 h -6e-4 c -3.4968,0.2994 -6.1445,-2.2982 -9.4915,-4.4963 l -4e-4,-3e-4 C 66.0981,87.9639 63.1505,85.8157 58.005,82.4186 l -5e-4,-3e-4 c -5.9443,-3.8966 -2.0977,-6.0447 1.2994,-9.5417 l 6e-4,-6e-4 C 60.2102,71.9709 75.5404,57.9887 75.8401,56.74 l 3e-4,-8e-4 c 0.0497,-0.1513 0.0491,-0.7491 -0.3,-1.0483 l -5e-4,-4e-4 c -0.3497,-0.2993 -0.849,-0.1994 -1.2485,-0.0995 l -8e-4,10e-5 C 73.7341,55.696 65.3413,61.2913 49.0125,72.327 l -4e-4,3e-4 c -2.3979,1.6485 -4.5459,2.4477 -6.4942,2.3977 h -8e-4 c -2.1484,-0.0502 -6.2444,-1.1991 -9.3414,-2.1981 l -7e-4,-2e-4 c -3.7465,-1.1989 -6.7437,-1.8484 -6.4939,-3.9465 l 10e-5,-8e-4 c 0.1504,-1.0988 1.6492,-2.1977 4.4462,-3.3464 z"
     style="fill:#99c1f1;stroke-width:1"
     id="path21524" /><path
     d="M 31.1274,65.3506 C 48.6128,57.7569 60.2531,52.7111 66.0982,50.2632 l 8e-4,-3e-4 C 82.7345,43.3189 86.2315,42.12 88.4796,42.07 h 7e-4 c 0.5,10e-5 1.5983,0.1002 2.3473,0.6994 l 5e-4,4e-4 c 0.5991,0.4995 0.7489,1.1488 0.8488,1.6482 l 2e-4,8e-4 c 0.0998,0.4999 0.1996,1.5483 0.0997,2.3473 l -10e-5,9e-4 c -0.8994,9.4926 -4.7959,32.5223 -6.7942,43.1131 l -2e-4,9e-4 c -0.8493,4.4956 -2.4978,5.9942 -4.0964,6.144 l -6e-4,10e-5 c -3.4968,0.2994 -6.1445,-2.2983 -9.4915,-4.4963 l -5e-4,-3e-4 C 66.0981,88.0815 63.1505,85.9333 58.005,82.5363 l -6e-4,-4e-4 c -5.9442,-3.8965 -2.0976,-6.0447 1.2995,-9.5417 l 7e-4,-6e-4 c 0.906,-0.9055 16.2358,-14.8873 16.5355,-16.1359 l 3e-4,-9e-4 c 0.0497,-0.1513 0.049,-0.7491 -0.3,-1.0483 l -5e-4,-4e-4 c -0.3497,-0.2992 -0.849,-0.1993 -1.2485,-0.0995 l -8e-4,2e-4 c -0.5569,0.1052 -8.9497,5.7005 -25.2781,16.7359 l -5e-4,3e-4 c -2.3978,1.6484 -4.5459,2.4477 -6.4941,2.3977 h -8e-4 c -2.1484,-0.0503 -6.2444,-1.1991 -9.3414,-2.1982 l -7e-4,-2e-4 C 29.4284,71.4454 26.4313,70.796 26.6811,68.6978 l 10e-5,-8e-4 c 0.1505,-1.0988 1.6492,-2.1976 4.4462,-3.3464 z"
     style="fill:#99c1f1;stroke-width:1"
     id="path21526" /></g><path
   id="path20568"
   fill-rule="evenodd"
   clip-rule="evenodd"
   fill="#ffffff"
   d="m 31.127391,63.350537 c 17.485426,-7.59367 29.125726,-12.63947 34.970856,-15.08743 16.63613,-6.94421 20.13322,-8.143211 22.38134,-8.193169 0.49959,0 1.59867,0.09992 2.34805,0.699417 0.5995,0.499584 0.74937,1.149042 0.84929,1.648626 0.0999,0.499583 0.19983,1.548706 0.0999,2.348046 -0.89925,9.49209 -4.796,32.5229 -6.79433,43.11406 -0.8493,4.49626 -2.49792,5.99501 -4.09659,6.14488 -3.49708,0.29975 -6.14488,-2.29808 -9.49209,-4.49625 -5.29558,-3.44713 -8.24313,-5.59534 -13.38884,-8.99251 -5.94504,-3.89675 -2.09825,-6.04496 1.29892,-9.54204 0.89925,-0.89925 16.23647,-14.88759 16.53622,-16.13655 0.05,-0.14988 0.05,-0.74938 -0.29975,-1.04913 -0.34971,-0.29975 -0.8493,-0.19983 -1.24896,-0.0999 -0.54955,0.0999 -8.94255,5.69525 -25.27893,16.73605 -2.398,1.64863 -4.54621,2.44796 -6.494591,2.398 -2.148209,-0.05 -6.244796,-1.199 -9.342215,-2.19816 -3.746876,-1.19901 -6.744378,-1.84846 -6.494586,-3.94672 0.149875,-1.09908 1.648626,-2.19816 4.446294,-3.34721 z"
   style="stroke-width:1;fill:#ffffff" /></svg>
