<?xml version="1.0" encoding="UTF-8" standalone="no"?>
<svg
   version="1.1"
   viewBox="0 0 128 128"
   id="svg23"
   sodipodi:docname="steam.svg"
   width="128"
   height="128"
   inkscape:version="1.1.1 (3bf5ae0d25, 2021-09-20)"
   xmlns:inkscape="http://www.inkscape.org/namespaces/inkscape"
   xmlns:sodipodi="http://sodipodi.sourceforge.net/DTD/sodipodi-0.dtd"
   xmlns:xlink="http://www.w3.org/1999/xlink"
   xmlns="http://www.w3.org/2000/svg"
   xmlns:svg="http://www.w3.org/2000/svg">
  <sodipodi:namedview
     id="namedview25"
     pagecolor="#505050"
     bordercolor="#eeeeee"
     borderopacity="1"
     inkscape:pageshadow="0"
     inkscape:pageopacity="0"
     inkscape:pagecheckerboard="0"
     showgrid="false"
     inkscape:snap-smooth-nodes="true"
     inkscape:snap-midpoints="true"
     inkscape:snap-intersection-paths="true"
     inkscape:object-paths="true"
     inkscape:zoom="1.4142136"
     inkscape:cx="85.206367"
     inkscape:cy="104.6518"
     inkscape:window-width="1920"
     inkscape:window-height="1011"
     inkscape:window-x="0"
     inkscape:window-y="32"
     inkscape:window-maximized="1"
     inkscape:current-layer="svg23"
     inkscape:snap-page="true"
     inkscape:snap-nodes="true"
     inkscape:object-nodes="true" />
  <defs
     id="defs17">
    <linearGradient
       id="a"
       x2="116.68872"
       x1="116.68872"
       y2="232.87497"
       gradientTransform="matrix(0.51507401,0,0,0.51529798,3.9227529,4)"
       y1="0"
       gradientUnits="userSpaceOnUse">
      <stop
         stop-color="#111D2E"
         offset="0"
         id="stop2" />
      <stop
         stop-color="#051839"
         offset=".21248"
         id="stop4" />
      <stop
         stop-color="#0A1B48"
         offset=".40695"
         id="stop6" />
      <stop
         stop-color="#132E62"
         offset=".58110"
         id="stop8" />
      <stop
         stop-color="#144B7E"
         offset=".73760"
         id="stop10" />
      <stop
         stop-color="#136497"
         offset=".87279"
         id="stop12" />
      <stop
         stop-color="#1387B8"
         offset="1"
         id="stop14" />
    </linearGradient>
    <linearGradient
       inkscape:collect="always"
       xlink:href="#a"
       id="linearGradient2189"
       x1="64.099998"
       y1="4"
       x2="63.961651"
       y2="124"
       gradientUnits="userSpaceOnUse"
       gradientTransform="translate(-0.1)" />
  </defs>
  <circle
     style="fill:url(#linearGradient2189);fill-opacity:1;stroke-width:2.43651;stroke-linecap:round;stroke-linejoin:round;paint-order:markers stroke fill"
     id="path2067"
     cx="64"
     cy="64"
     r="60" />
  <path
     id="circle2587"
     style="fill:#cfcfcf;fill-opacity:1;stroke-width:2.43651;stroke-linecap:round;stroke-linejoin:round;paint-order:markers stroke fill"
     d="m 83.724219,26.146484 c -12.574553,0 -22.802735,10.239047 -22.802735,22.826172 0,0.100944 -0.0013,0.202111 0.0039,0.296875 L 46.233984,70.597656 c -2.379889,-0.108155 -4.7668,0.308046 -7.03125,1.240235 -0.998234,0.406867 -1.934858,0.907551 -2.8125,1.484375 L 4.2789062,60.109375 A 60,60 0 0 0 3.9996094,64 60,60 0 0 0 6.6675781,81.541016 l 22.6328129,9.332031 c 1.145109,5.114163 4.656664,9.599873 9.835937,11.757813 8.473909,3.5382 18.244534,-0.49274 21.769531,-8.964844 0.917324,-2.214592 1.345046,-4.537872 1.283203,-6.855469 L 83.210547,71.796875 c 0.170065,0.0052 0.343607,0.01172 0.513672,0.01172 12.579707,0 22.804691,-10.249844 22.804691,-22.835938 0,-12.587125 -10.224984,-22.826172 -22.804691,-22.826172 z m 0,7.617188 c 8.3796,0 15.199219,6.82701 15.199219,15.208984 0,8.388669 -6.819619,15.212891 -15.199219,15.212891 -8.374446,0 -15.191406,-6.824222 -15.191407,-15.212891 0,-8.381974 6.816961,-15.208984 15.191407,-15.208984 z m 0.02734,3.757812 c -6.297584,0 -11.410156,5.117177 -11.410156,11.427735 0,6.311073 5.112572,11.425781 11.410156,11.425781 6.302738,0 11.414063,-5.114708 11.414063,-11.425781 0,-6.310558 -5.111326,-11.427735 -11.414063,-11.427735 z M 45.675391,74.398438 c 1.604866,0.01288 3.234048,0.330297 4.80664,0.984374 3.170952,1.318456 5.629757,3.800125 6.933594,6.972657 1.303837,3.172532 1.299763,6.673705 -0.01953,9.835937 -2.728266,6.545922 -10.255937,9.652204 -16.798828,6.927735 -3.018408,-1.256652 -5.29667,-3.557671 -6.611328,-6.302735 l 7.423828,3.074219 c 4.825228,2.008583 10.359489,-0.279008 12.365234,-5.099609 2.011928,-4.825751 -0.269146,-10.366417 -5.091797,-12.375 l -7.673828,-3.177735 c 1.480602,-0.561373 3.061149,-0.852719 4.666016,-0.839843 z" />
  <path
     style="display:inline;opacity:0.2;fill:#000000;fill-opacity:1;stroke:none;stroke-width:8;stroke-linejoin:round;stroke-miterlimit:4;stroke-dasharray:1, 0.5;stroke-dashoffset:0;stroke-opacity:1;enable-background:new"
     d="M 123.93748,62.24609 A 60.000008,60.000008 0 0 1 63.99999,121 60.000008,60.000008 0 0 1 4.0624905,62.753902 60.000008,60.000008 0 0 0 3.9999905,63.999996 60.000008,60.000008 0 0 0 63.99999,124 60.000008,60.000008 0 0 0 123.99998,63.999996 60.000008,60.000008 0 0 0 123.93748,62.24609 Z"
     id="circle1110"
     inkscape:connector-curvature="0" />
  <path
     id="path2748"
     style="fill:#ffffff;fill-opacity:1;stroke-width:2.43651;stroke-linecap:round;stroke-linejoin:round;paint-order:markers stroke fill"
     d="M 83.724609 28.146484 C 71.150056 28.146484 60.921875 38.121347 60.921875 50.384766 C 60.921875 50.483116 60.920581 50.581501 60.925781 50.673828 L 46.234375 71.453125 C 43.854486 71.347752 41.467575 71.753893 39.203125 72.662109 C 38.204891 73.058513 37.268267 73.547385 36.390625 74.109375 L 4.2792969 61.236328 A 60 58.456969 0 0 0 4.03125 64.601562 A 60 60 0 0 0 6.6679688 81.541016 L 29.300781 90.873047 C 30.44589 95.98721 33.957446 100.47292 39.136719 102.63086 C 41.255196 103.51541 43.45447 103.92678 45.617188 103.91406 C 52.10534 103.87591 58.262502 100.02009 60.90625 93.666016 C 61.823574 91.451424 62.251296 89.128144 62.189453 86.810547 L 83.210938 71.796875 C 83.381002 71.802075 83.554544 71.808594 83.724609 71.808594 C 96.065071 71.808594 106.11345 61.938387 106.49219 49.681641 C 106.10675 37.745405 96.060719 28.146485 83.724609 28.146484 z M 83.724609 33.763672 C 92.104209 33.763672 98.923828 40.590682 98.923828 48.972656 C 98.923828 49.214015 98.899838 49.448857 98.888672 49.6875 C 98.899879 49.920261 98.923828 50.149363 98.923828 50.384766 C 98.923828 58.557702 92.104209 65.207031 83.724609 65.207031 C 75.350163 65.207031 68.533204 58.557702 68.533203 50.384766 C 68.533203 50.149363 68.557157 49.920261 68.568359 49.6875 C 68.557198 49.448857 68.533203 49.214015 68.533203 48.972656 C 68.533203 40.590682 75.350163 33.763672 83.724609 33.763672 z M 83.751953 39.228516 C 77.695377 39.228516 72.74776 43.844012 72.376953 49.666016 C 72.748539 55.641232 77.695912 60.375 83.751953 60.375 C 89.81295 60.375 94.759355 55.641232 95.130859 49.666016 C 94.760133 43.844012 89.813485 39.228516 83.751953 39.228516 z M 45.675781 74.398438 C 47.280647 74.411317 48.90983 74.728735 50.482422 75.382812 C 53.653374 76.701268 56.112179 79.182937 57.416016 82.355469 C 58.093185 84.003176 58.408357 85.739224 58.378906 87.470703 C 58.408911 89.173113 58.087896 90.877553 57.396484 92.492188 C 54.668218 98.869766 47.140547 101.89659 40.597656 99.242188 C 37.579248 98.017854 35.300986 95.776031 33.986328 93.101562 L 34.179688 93.179688 C 34.116578 93.057892 34.045547 92.940058 33.986328 92.816406 L 41.410156 95.890625 C 46.235384 97.899208 51.769646 95.611617 53.775391 90.791016 C 54.246013 89.662196 54.472852 88.494494 54.496094 87.341797 C 54.400975 83.820474 52.235301 80.513472 48.683594 79.072266 L 41.009766 75.974609 C 41.339581 75.852775 41.676727 75.749654 42.015625 75.654297 L 41.009766 75.238281 C 42.490368 74.676908 44.070915 74.385562 45.675781 74.398438 z " />
</svg>
