<?xml version="1.0" encoding="UTF-8" standalone="no"?>
<!-- Created with Inkscape (http://www.inkscape.org/) -->

<svg
   width="16.0px"
   height="16.0px"
   viewBox="0 0 16.0 16.0"
   version="1.1"
   id="SVGRoot"
   sodipodi:docname="libreoffice-impress-symbolic.svg"
   inkscape:version="1.1.2 (0a00cf5339, 2022-02-04)"
   xmlns:inkscape="http://www.inkscape.org/namespaces/inkscape"
   xmlns:sodipodi="http://sodipodi.sourceforge.net/DTD/sodipodi-0.dtd"
   xmlns="http://www.w3.org/2000/svg"
   xmlns:svg="http://www.w3.org/2000/svg">
  <sodipodi:namedview
     id="namedview1203"
     pagecolor="#505050"
     bordercolor="#eeeeee"
     borderopacity="1"
     inkscape:pageshadow="0"
     inkscape:pageopacity="0"
     inkscape:pagecheckerboard="0"
     inkscape:document-units="px"
     showgrid="true"
     inkscape:zoom="45.254834"
     inkscape:cx="7.2699416"
     inkscape:cy="7.8444658"
     inkscape:window-width="1920"
     inkscape:window-height="1011"
     inkscape:window-x="0"
     inkscape:window-y="32"
     inkscape:window-maximized="1"
     inkscape:current-layer="layer1">
    <inkscape:grid
       type="xygrid"
       id="grid1266"
       spacingx="1"
       spacingy="1"
       empspacing="2" />
  </sodipodi:namedview>
  <defs
     id="defs1198">
    <inkscape:path-effect
       effect="fillet_chamfer"
       id="path-effect2301"
       is_visible="true"
       lpeversion="1"
       satellites_param="F,0,0,1,0,0.5,0,1 @ F,0,0,1,0,0.5,0,1 @ F,0,0,1,0,0.5,0,1"
       unit="px"
       method="auto"
       mode="F"
       radius="0.5"
       chamfer_steps="1"
       flexible="false"
       use_knot_distance="true"
       apply_no_radius="true"
       apply_with_radius="true"
       only_selected="false"
       hide_knots="false" />
    <inkscape:path-effect
       effect="fillet_chamfer"
       id="path-effect3415"
       is_visible="true"
       lpeversion="1"
       satellites_param="F,0,0,1,0,0.25,0,1 @ F,0,0,1,0,0.25,0,1 @ F,0,0,1,0,0.25,0,1"
       unit="px"
       method="auto"
       mode="F"
       radius="0.25"
       chamfer_steps="1"
       flexible="false"
       use_knot_distance="true"
       apply_no_radius="true"
       apply_with_radius="true"
       only_selected="false"
       hide_knots="false" />
  </defs>
  <g
     inkscape:label="Warstwa 1"
     inkscape:groupmode="layer"
     id="layer1">
    <path
       style="fill:#ffffff;stroke:#ffffff;stroke-width:2;stroke-linecap:round;stroke-linejoin:round;stroke-miterlimit:4;stroke-dasharray:none;paint-order:markers stroke fill"
       d="m 10.005859,1 h 4 v 4.0000001 z"
       id="path1120" />
    <g
       id="g1890"
       transform="matrix(3.7795275,0,0,3.7795275,0.0039059,0)"
       style="fill:#ffffff;fill-opacity:1;stroke:none;stroke-opacity:1">
      <path
         id="path1886"
         style="color:#000000;fill:#ffffff;fill-opacity:1;stroke:none;stroke-width:3.77953;stroke-linecap:round;stroke-linejoin:round;stroke-opacity:1;-inkscape-stroke:none;paint-order:markers stroke fill"
         d="m -14.003906,0 c -1.104908,-1.6129481e-4 -2.000162,0.89509195 -2,2 v 12.003906 c 0.0039,1.102025 0.897969,1.992356 2,1.992188 H -4 c 1.1020312,1.68e-4 1.9960939,-0.890163 2,-1.992188 V 8.9980469 C -2.0004581,8.4694739 -2.2109348,7.9623552 -2.5839844,7.5878906 L -9.5878906,0.58398438 C -9.9623552,0.21093484 -10.469474,4.5821147e-4 -10.998047,0 Z m 1.005859,2 h 0.996094 1.003906 c 0.266096,2.294e-4 0.521452,0.1061394 0.708985,0.2949219 l 5.9941401,5.9941406 C -4.1061383,8.4765947 -4.0002294,8.731953 -4,8.9980469 V 13 c 0.00212,0.552455 -0.4436379,1.001952 -0.9960938,1.003906 H -12.998047 C -13.553388,14.006041 -14.006041,13.555341 -14.003906,13 V 2.9960938 C -14.001952,2.4436379 -13.550502,1.9978771 -12.998047,2 Z"
         transform="matrix(0.26458334,0,0,0.26458334,4.4979168,0)" />
    </g>
    <path
       id="rect2654"
       style="fill:#ffffff;stroke-width:0;stroke-linecap:round;stroke-linejoin:round;paint-order:markers stroke fill"
       d="M 4.5 8 C 4.223 8 4 8.223 4 8.5 L 4 12.5 C 4 12.777 4.223 13 4.5 13 L 11.5 13 C 11.777 13 12 12.777 12 12.5 L 12 8.5 C 12 8.223 11.777 8 11.5 8 L 4.5 8 z M 5.5 9 A 0.5 0.5 0 0 1 6 9.5 A 0.5 0.5 0 0 1 5.5 10 A 0.5 0.5 0 0 1 5 9.5 A 0.5 0.5 0 0 1 5.5 9 z M 7.5 9 L 10.5 9 C 10.777 9 11 9.223 11 9.5 C 11 9.777 10.777 10 10.5 10 L 7.5 10 C 7.223 10 7 9.777 7 9.5 C 7 9.223 7.223 9 7.5 9 z M 5.5 11 A 0.5 0.5 0 0 1 6 11.5 A 0.5 0.5 0 0 1 5.5 12 A 0.5 0.5 0 0 1 5 11.5 A 0.5 0.5 0 0 1 5.5 11 z M 7.5 11 L 10.5 11 C 10.777 11 11 11.223 11 11.5 C 11 11.777 10.777 12 10.5 12 L 7.5 12 C 7.223 12 7 11.777 7 11.5 C 7 11.223 7.223 11 7.5 11 z " />
  </g>
</svg>
