<?xml version="1.0" encoding="UTF-8" standalone="no"?>
<!-- Created with Inkscape (http://www.inkscape.org/) -->

<svg
   width="16"
   height="16"
   viewBox="0 0 4.2333332 4.2333332"
   version="1.1"
   id="svg5"
   inkscape:version="1.1.1 (3bf5ae0d25, 2021-09-20)"
   sodipodi:docname="com.mojang.Minecraft-symbolic.svg"
   xmlns:inkscape="http://www.inkscape.org/namespaces/inkscape"
   xmlns:sodipodi="http://sodipodi.sourceforge.net/DTD/sodipodi-0.dtd"
   xmlns="http://www.w3.org/2000/svg"
   xmlns:svg="http://www.w3.org/2000/svg">
  <sodipodi:namedview
     id="namedview7"
     pagecolor="#505050"
     bordercolor="#eeeeee"
     borderopacity="1"
     inkscape:pageshadow="0"
     inkscape:pageopacity="0"
     inkscape:pagecheckerboard="true"
     inkscape:document-units="mm"
     showgrid="false"
     inkscape:snap-page="true"
     inkscape:object-paths="true"
     inkscape:snap-intersection-paths="true"
     inkscape:snap-smooth-nodes="true"
     inkscape:snap-midpoints="true"
     inkscape:snap-bbox="true"
     inkscape:bbox-paths="true"
     inkscape:bbox-nodes="true"
     inkscape:snap-bbox-edge-midpoints="true"
     inkscape:snap-bbox-midpoints="true"
     inkscape:snap-object-midpoints="true"
     inkscape:snap-center="true"
     inkscape:snap-text-baseline="true"
     units="px"
     inkscape:zoom="32"
     inkscape:cx="16.921875"
     inkscape:cy="9.5625"
     inkscape:window-width="1920"
     inkscape:window-height="1011"
     inkscape:window-x="0"
     inkscape:window-y="32"
     inkscape:window-maximized="1"
     inkscape:current-layer="layer1"
     showguides="false" />
  <defs
     id="defs2" />
  <g
     inkscape:label="Warstwa 1"
     inkscape:groupmode="layer"
     id="layer1">
    <path
       id="rect846"
       style="fill:#ffffff;stroke-width:0.515342;stroke-linecap:round;stroke-linejoin:round;paint-order:markers stroke fill"
       d="m 0.72760404,0.26458326 c -0.25651352,0 -0.46302083,0.20650731 -0.46302083,0.46302083 V 3.5057291 c 0,0.2565136 0.20650731,0.4630209 0.46302083,0.4630209 H 1.1906249 V 3.3890696 2.6949905 c 0,-0.064129 0.051627,-0.1157552 0.1157552,-0.1157552 H 1.5378905 1.6536457 V 2.2324218 c 0,-0.064129 0.051627,-0.1157552 0.1157552,-0.1157552 h 0.6945313 c 0.064129,0 0.1157552,0.051627 0.1157552,0.1157552 V 2.5792353 H 2.926953 c 0.064129,0 0.1157552,0.051627 0.1157552,0.1157552 V 3.3890696 3.96875 H 3.505729 c 0.2565136,0 0.4630209,-0.2065073 0.4630209,-0.4630209 V 0.72760409 c 0,-0.25651352 -0.2065073,-0.46302083 -0.4630209,-0.46302083 z M 0.84335925,1.1906249 H 1.5378905 c 0.064129,0 0.1157552,0.051627 0.1157552,0.1157553 v 0.6945312 c 0,0.064129 -0.051627,0.1157552 -0.1157552,0.1157552 H 0.84335925 c -0.0641284,0 -0.11575521,-0.051627 -0.11575521,-0.1157552 V 1.3063802 c 0,-0.064129 0.0516269,-0.1157553 0.11575521,-0.1157553 z m 1.85208335,0 h 0.6945312 c 0.064129,0 0.1157552,0.051627 0.1157552,0.1157553 v 0.6945312 c 0,0.064129 -0.051627,0.1157552 -0.1157552,0.1157552 H 2.6954426 c -0.064129,0 -0.1157552,-0.051627 -0.1157552,-0.1157552 V 1.3063802 c 0,-0.064129 0.051627,-0.1157553 0.1157552,-0.1157553 z m -1.0417969,2.3142 V 3.96875 H 2.5796874 V 3.5048249 H 2.4784016 c -0.00477,5.935e-4 -0.00953,9.042e-4 -0.014469,9.042e-4 H 1.7694009 c -0.00493,0 -0.0097,-3.107e-4 -0.014469,-9.042e-4 z" />
    <path
       id="path640"
       style="stroke-width:0.777229;stroke-linecap:round;stroke-linejoin:round;paint-order:markers stroke fill"
       d="m -3.0427077,2.6453166 h 0.2645833 c 0.07329,0 0.1322917,0.078669 0.1322917,0.1763888 v 1.7638889 c 0,0.097719 -0.059002,0.1763889 -0.1322917,0.1763889 h -0.2645833 c -0.07329,0 -0.1322916,-0.07867 -0.1322916,-0.1763889 V 2.8217054 c 0,-0.097719 0.059002,-0.1763888 0.1322916,-0.1763888 z m 1.5875,0 h 0.264583 c 0.07329,0 0.1322916,0.059002 0.1322916,0.1322917 v 1.8520832 c 0,0.07329 -0.059002,0.1322917 -0.1322916,0.1322917 h -0.264583 c -0.07329,0 -0.1322915,-0.059002 -0.1322915,-0.1322917 V 2.7776083 c 0,-0.07329 0.059002,-0.1322917 0.1322915,-0.1322917 z m -1.5874997,0 h 1.8520828 c 0.07329,0 0.1322916,0.059002 0.1322916,0.1322917 v 0.7932334 c 0,0.07329 -0.059002,0.1322916 -0.1322916,0.1322916 h -1.8520828 c -0.07329,0 -0.1322917,-0.059002 -0.1322917,-0.1322916 V 2.7776083 c 0,-0.07329 0.059002,-0.1322917 0.1322917,-0.1322917 z m 0.5291664,-0.52865 h 0.79375 c 0.07329,0 0.1322916,0.059002 0.1322916,0.1322916 V 3.571875 c 0,0.07329 -0.059002,0.1322917 -0.1322916,0.1322917 h -0.79375 c -0.07329,0 -0.1322916,-0.059002 -0.1322916,-0.1322917 V 2.2489582 c 0,-0.07329 0.059002,-0.1322916 0.1322916,-0.1322916 z m 1.0583333,-1.0583333 h 0.7937495 c 0.07329,0 0.1322916,0.059002 0.1322916,0.1322916 v 0.7937498 c 0,0.07329 -0.059002,0.1322916 -0.1322916,0.1322916 h -0.7937495 c -0.07329,0 -0.1322915,-0.059002 -0.1322915,-0.1322916 V 1.1906249 c 0,-0.07329 0.059002,-0.1322916 0.1322915,-0.1322916 z m -2.1166666,0 h 0.79375 c 0.07329,0 0.1322917,0.059002 0.1322917,0.1322916 v 0.79375 c 0,0.07329 -0.059002,0.1322917 -0.1322917,0.1322917 h -0.79375 c -0.07329,0 -0.1322916,-0.059002 -0.1322916,-0.1322917 v -0.79375 c 0,-0.07329 0.059002,-0.1322916 0.1322916,-0.1322916 z" />
  </g>
</svg>
